BVTest.ufo
<glyph name="exclam" format="1">
  <advance width="346"/>
  <unicode hex="0021"/>
  <outline>
    <contour>
      <point x="231" y="628" type="qcurve" smooth="yes"/>
      <point x="231" y="620"/>
      <point x="230" y="603"/>
      <point x="229" y="594" type="qcurve" smooth="yes"/>
      <point x="183" y="182" type="line"/>
      <point x="163" y="182" type="line"/>
      <point x="119" y="594" type="line" smooth="yes"/>
      <point x="117" y="613"/>
      <point x="115" y="632"/>
      <point x="115" y="633" type="qcurve" smooth="yes"/>
      <point x="115" y="666"/>
      <point x="148" y="704"/>
      <point x="174" y="704" type="qcurve" smooth="yes"/>
      <point x="195" y="704"/>
      <point x="212" y="687" type="qcurve" smooth="yes"/>
      <point x="231" y="667"/>
    </contour>
    <contour>
      <point x="229" y="43" type="qcurve" smooth="yes"/>
      <point x="229" y="19"/>
      <point x="196" y="-14"/>
      <point x="173" y="-14" type="qcurve" smooth="yes"/>
      <point x="153" y="-14"/>
      <point x="136" y="0" type="qcurve" smooth="yes"/>
      <point x="116" y="15"/>
      <point x="116" y="43" type="qcurve" smooth="yes"/>
      <point x="116" y="68"/>
      <point x="135" y="84" type="qcurve" smooth="yes"/>
      <point x="152" y="98"/>
      <point x="173" y="98" type="qcurve" smooth="yes"/>
      <point x="194" y="98"/>
      <point x="229" y="67"/>
    </contour>
  </outline>
</glyph>
<glyph name="quotedbl" format="1">
  <advance width="424"/>
  <unicode hex="0022"/>
  <outline>
    <contour>
      <point x="356" y="650" type="qcurve" smooth="yes"/>
      <point x="356" y="632"/>
      <point x="350" y="585"/>
      <point x="345" y="556" type="qcurve" smooth="yes"/>
      <point x="317" y="408" type="line"/>
      <point x="292" y="408" type="line"/>
      <point x="265" y="556" type="line" smooth="yes"/>
      <point x="253" y="622"/>
      <point x="253" y="643" type="qcurve" smooth="yes"/>
      <point x="253" y="704"/>
      <point x="305" y="704" type="qcurve" smooth="yes"/>
      <point x="328" y="704"/>
      <point x="356" y="673"/>
    </contour>
    <contour>
      <point x="170" y="649" type="qcurve" smooth="yes"/>
      <point x="170" y="641"/>
      <point x="163" y="595"/>
      <point x="156" y="557" type="qcurve" smooth="yes"/>
      <point x="128" y="408" type="line"/>
      <point x="107" y="408" type="line"/>
      <point x="79" y="558" type="line" smooth="yes"/>
      <point x="68" y="619"/>
      <point x="68" y="643" type="qcurve" smooth="yes"/>
      <point x="68" y="704"/>
      <point x="118" y="704" type="qcurve" smooth="yes"/>
      <point x="141" y="704"/>
      <point x="170" y="674"/>
    </contour>
  </outline>
</glyph>
<glyph name="numbersign" format="1">
  <advance width="520"/>
  <unicode hex="0023"/>
  <outline>
    <contour>
      <point x="502" y="217" type="line"/>
      <point x="363" y="217" type="line"/>
      <point x="316" y="-14" type="line"/>
      <point x="275" y="-14" type="line"/>
      <point x="321" y="217" type="line"/>
      <point x="149" y="217" type="line"/>
      <point x="101" y="-14" type="line"/>
      <point x="58" y="-14" type="line"/>
      <point x="105" y="217" type="line"/>
      <point x="18" y="217" type="line"/>
      <point x="18" y="259" type="line"/>
      <point x="113" y="259" type="line"/>
      <point x="149" y="433" type="line"/>
      <point x="18" y="433" type="line"/>
      <point x="18" y="473" type="line"/>
      <point x="159" y="473" type="line"/>
      <point x="205" y="704" type="line"/>
      <point x="246" y="704" type="line"/>
      <point x="201" y="473" type="line"/>
      <point x="372" y="473" type="line"/>
      <point x="421" y="704" type="line"/>
      <point x="463" y="704" type="line"/>
      <point x="415" y="473" type="line"/>
      <point x="502" y="473" type="line"/>
      <point x="502" y="433" type="line"/>
      <point x="408" y="433" type="line"/>
      <point x="372" y="259" type="line"/>
      <point x="502" y="259" type="line"/>
    </contour>
    <contour>
      <point x="365" y="433" type="line"/>
      <point x="192" y="433" type="line"/>
      <point x="156" y="259" type="line"/>
      <point x="329" y="259" type="line"/>
    </contour>
  </outline>
</glyph>
<glyph name="dollar" format="1">
  <advance width="520"/>
  <unicode hex="0024"/>
  <outline>
    <contour>
      <point x="468" y="171" type="qcurve" smooth="yes"/>
      <point x="468" y="91"/>
      <point x="407" y="39" type="qcurve" smooth="yes"/>
      <point x="350" y="-9"/>
      <point x="267" y="-14" type="qcurve"/>
      <point x="267" y="-78" type="line"/>
      <point x="235" y="-78" type="line"/>
      <point x="235" y="-14" type="line"/>
      <point x="136" y="-9"/>
      <point x="55" y="26" type="qcurve"/>
      <point x="55" y="170" type="line"/>
      <point x="77" y="170" type="line"/>
      <point x="87" y="32"/>
      <point x="235" y="19" type="qcurve"/>
      <point x="235" y="315" type="line"/>
      <point x="184" y="347"/>
      <point x="119" y="398"/>
      <point x="102" y="415" type="qcurve" smooth="yes"/>
      <point x="55" y="467"/>
      <point x="55" y="535" type="qcurve" smooth="yes"/>
      <point x="55" y="614"/>
      <point x="119" y="660" type="qcurve" smooth="yes"/>
      <point x="169" y="695"/>
      <point x="235" y="700" type="qcurve"/>
      <point x="235" y="747" type="line"/>
      <point x="267" y="747" type="line"/>
      <point x="267" y="700" type="line"/>
      <point x="299" y="699"/>
      <point x="337" y="691" type="qcurve"/>
      <point x="435" y="655" type="line"/>
      <point x="435" y="503" type="line"/>
      <point x="415" y="503" type="line"/>
      <point x="402" y="653"/>
      <point x="267" y="666" type="qcurve"/>
      <point x="267" y="408" type="line"/>
      <point x="330" y="363"/>
      <point x="407" y="301"/>
      <point x="424" y="284" type="qcurve" smooth="yes"/>
      <point x="468" y="235"/>
    </contour>
    <contour>
      <point x="235" y="430" type="qcurve"/>
      <point x="235" y="666" type="line"/>
      <point x="134" y="651"/>
      <point x="134" y="567" type="qcurve" smooth="yes"/>
      <point x="134" y="493"/>
    </contour>
    <contour>
      <point x="387" y="146" type="qcurve" smooth="yes"/>
      <point x="387" y="188"/>
      <point x="356" y="222" type="qcurve" smooth="yes"/>
      <point x="345" y="234"/>
      <point x="301" y="270"/>
      <point x="267" y="293" type="qcurve"/>
      <point x="267" y="19" type="line"/>
      <point x="306" y="22"/>
      <point x="341" y="49" type="qcurve" smooth="yes"/>
      <point x="387" y="85"/>
    </contour>
  </outline>
</glyph>
<glyph name="percent" format="1">
  <advance width="899"/>
  <unicode hex="0025"/>
  <outline>
    <contour>
      <point x="821" y="258" type="qcurve" smooth="yes"/>
      <point x="821" y="142"/>
      <point x="752" y="60" type="qcurve" smooth="yes"/>
      <point x="690" y="-14"/>
      <point x="616" y="-14" type="qcurve" smooth="yes"/>
      <point x="484" y="-14"/>
      <point x="484" y="128" type="qcurve" smooth="yes"/>
      <point x="484" y="215"/>
      <point x="554" y="294" type="qcurve" smooth="yes"/>
      <point x="624" y="373"/>
      <point x="710" y="373" type="qcurve" smooth="yes"/>
      <point x="761" y="373"/>
      <point x="792" y="336" type="qcurve" smooth="yes"/>
      <point x="821" y="302"/>
    </contour>
    <contour>
      <point x="677" y="706" type="line"/>
      <point x="275" y="-14" type="line"/>
      <point x="225" y="-14" type="line"/>
      <point x="589" y="638" type="line"/>
      <point x="524" y="611"/>
      <point x="460" y="611" type="qcurve" smooth="yes"/>
      <point x="429" y="611"/>
      <point x="408" y="619" type="qcurve"/>
      <point x="408" y="615"/>
      <point x="410" y="600"/>
      <point x="413" y="583"/>
      <point x="416" y="567"/>
      <point x="416" y="563" type="qcurve" smooth="yes"/>
      <point x="416" y="461"/>
      <point x="344" y="379" type="qcurve" smooth="yes"/>
      <point x="276" y="301"/>
      <point x="203" y="301" type="qcurve" smooth="yes"/>
      <point x="79" y="301"/>
      <point x="79" y="444" type="qcurve" smooth="yes"/>
      <point x="79" y="530"/>
      <point x="148" y="610" type="qcurve" smooth="yes"/>
      <point x="218" y="691"/>
      <point x="304" y="691" type="qcurve" smooth="yes"/>
      <point x="344" y="691"/>
      <point x="384" y="662" type="qcurve" smooth="yes"/>
      <point x="424" y="633"/>
      <point x="471" y="634" type="qcurve" smooth="yes"/>
      <point x="574" y="635"/>
      <point x="627" y="706" type="qcurve"/>
    </contour>
    <contour>
      <point x="794" y="252" type="qcurve" smooth="yes"/>
      <point x="794" y="285"/>
      <point x="776" y="311" type="qcurve" smooth="yes"/>
      <point x="755" y="339"/>
      <point x="722" y="339" type="qcurve" smooth="yes"/>
      <point x="659" y="339"/>
      <point x="610" y="249" type="qcurve" smooth="yes"/>
      <point x="563" y="166"/>
      <point x="563" y="89" type="qcurve" smooth="yes"/>
      <point x="563" y="17"/>
      <point x="628" y="17" type="qcurve" smooth="yes"/>
      <point x="695" y="17"/>
      <point x="748" y="103" type="qcurve" smooth="yes"/>
      <point x="794" y="179"/>
    </contour>
    <contour>
      <point x="389" y="578" type="qcurve"/>
      <point x="380" y="626" type="line"/>
      <point x="357" y="633"/>
      <point x="336" y="648" type="qcurve" smooth="yes"/>
      <point x="317" y="661"/>
      <point x="308" y="661" type="qcurve" smooth="yes"/>
      <point x="271" y="661"/>
      <point x="219" y="591" type="qcurve" smooth="yes"/>
      <point x="158" y="511"/>
      <point x="158" y="414" type="qcurve" smooth="yes"/>
      <point x="158" y="337"/>
      <point x="223" y="337" type="qcurve" smooth="yes"/>
      <point x="289" y="337"/>
      <point x="341" y="419" type="qcurve" smooth="yes"/>
      <point x="389" y="495"/>
    </contour>
  </outline>
</glyph>
<glyph name="ampersand" format="1">
  <advance width="809"/>
  <unicode hex="0026"/>
  <outline>
    <contour>
      <point x="777" y="124" type="line"/>
      <point x="767" y="74"/>
      <point x="734" y="35" type="qcurve" smooth="yes"/>
      <point x="691" y="-15"/>
      <point x="620" y="-15" type="qcurve" smooth="yes"/>
      <point x="533" y="-15"/>
      <point x="442" y="83" type="qcurve"/>
      <point x="389" y="37"/>
      <point x="357" y="20" type="qcurve" smooth="yes"/>
      <point x="292" y="-15"/>
      <point x="220" y="-15" type="qcurve" smooth="yes"/>
      <point x="134" y="-15"/>
      <point x="84" y="32" type="qcurve" smooth="yes"/>
      <point x="38" y="75"/>
      <point x="38" y="136" type="qcurve" smooth="yes"/>
      <point x="38" y="273"/>
      <point x="249" y="385" type="qcurve"/>
      <point x="207" y="476"/>
      <point x="207" y="536" type="qcurve" smooth="yes"/>
      <point x="207" y="617"/>
      <point x="264" y="664" type="qcurve" smooth="yes"/>
      <point x="313" y="704"/>
      <point x="384" y="704" type="qcurve" smooth="yes"/>
      <point x="448" y="704"/>
      <point x="486" y="666" type="qcurve" smooth="yes"/>
      <point x="521" y="631"/>
      <point x="521" y="580" type="qcurve" smooth="yes"/>
      <point x="521" y="516"/>
      <point x="461" y="464" type="qcurve" smooth="yes"/>
      <point x="429" y="437"/>
      <point x="354" y="397" type="qcurve"/>
      <point x="417" y="283"/>
      <point x="489" y="187" type="qcurve"/>
      <point x="578" y="294"/>
      <point x="578" y="367" type="qcurve" smooth="yes"/>
      <point x="578" y="389"/>
      <point x="551" y="424"/>
      <point x="530" y="424" type="qcurve"/>
      <point x="530" y="443" type="line"/>
      <point x="744" y="443" type="line"/>
      <point x="744" y="424" type="line"/>
      <point x="697" y="418"/>
      <point x="680" y="404" type="qcurve" smooth="yes"/>
      <point x="668" y="394"/>
      <point x="635" y="347"/>
      <point x="615" y="309" type="qcurve" smooth="yes"/>
      <point x="574" y="232"/>
      <point x="513" y="157" type="qcurve"/>
      <point x="597" y="62"/>
      <point x="665" y="62" type="qcurve" smooth="yes"/>
      <point x="740" y="62"/>
      <point x="758" y="137" type="qcurve"/>
    </contour>
    <contour>
      <point x="462" y="582" type="qcurve" smooth="yes"/>
      <point x="462" y="620"/>
      <point x="416" y="668"/>
      <point x="384" y="668" type="qcurve" smooth="yes"/>
      <point x="335" y="668"/>
      <point x="311" y="630" type="qcurve" smooth="yes"/>
      <point x="294" y="604"/>
      <point x="294" y="576" type="qcurve" smooth="yes"/>
      <point x="294" y="523"/>
      <point x="337" y="431" type="qcurve"/>
      <point x="462" y="488"/>
    </contour>
    <contour>
      <point x="415" y="112" type="qcurve"/>
      <point x="398" y="134"/>
      <point x="348" y="198"/>
      <point x="322" y="246" type="qcurve" smooth="yes"/>
      <point x="265" y="350" type="line"/>
      <point x="144" y="283"/>
      <point x="144" y="182" type="qcurve" smooth="yes"/>
      <point x="144" y="128"/>
      <point x="177" y="89" type="qcurve" smooth="yes"/>
      <point x="211" y="46"/>
      <point x="272" y="46" type="qcurve" smooth="yes"/>
      <point x="335" y="46"/>
    </contour>
  </outline>
</glyph>
<glyph name="quotesingle" format="1">
  <advance width="188"/>
  <unicode hex="0027"/>
  <outline>
    <contour>
      <point x="145" y="650" type="qcurve" smooth="yes"/>
      <point x="145" y="636"/>
      <point x="131" y="557" type="qcurve" smooth="yes"/>
      <point x="104" y="408" type="line"/>
      <point x="81" y="408" type="line"/>
      <point x="54" y="558" type="line" smooth="yes"/>
      <point x="49" y="589"/>
      <point x="43" y="631"/>
      <point x="43" y="643" type="qcurve" smooth="yes"/>
      <point x="43" y="704"/>
      <point x="91" y="704" type="qcurve" smooth="yes"/>
      <point x="117" y="704"/>
      <point x="145" y="671"/>
    </contour>
  </outline>
</glyph>
<glyph name="parenleft" format="1">
  <advance width="346"/>
  <unicode hex="0028"/>
  <outline>
    <contour>
      <point x="322" y="-222" type="line"/>
      <point x="195" y="-163"/>
      <point x="119" y="-33" type="qcurve" smooth="yes"/>
      <point x="43" y="95"/>
      <point x="43" y="250" type="qcurve" smooth="yes"/>
      <point x="43" y="404"/>
      <point x="120" y="534" type="qcurve" smooth="yes"/>
      <point x="197" y="663"/>
      <point x="322" y="722" type="qcurve"/>
      <point x="322" y="701" type="line"/>
      <point x="235" y="654"/>
      <point x="189" y="544" type="qcurve" smooth="yes"/>
      <point x="140" y="431"/>
      <point x="140" y="263" type="qcurve" smooth="yes"/>
      <point x="140" y="-90"/>
      <point x="322" y="-203" type="qcurve"/>
    </contour>
  </outline>
</glyph>
<glyph name="parenright" format="1">
  <advance width="346"/>
  <unicode hex="0029"/>
  <outline>
    <contour>
      <point x="304" y="248" type="qcurve" smooth="yes"/>
      <point x="304" y="91"/>
      <point x="225" y="-37" type="qcurve" smooth="yes"/>
      <point x="146" y="-168"/>
      <point x="23" y="-222" type="qcurve"/>
      <point x="23" y="-203" type="line"/>
      <point x="207" y="-106"/>
      <point x="207" y="235" type="qcurve" smooth="yes"/>
      <point x="207" y="382"/>
      <point x="181" y="475" type="qcurve" smooth="yes"/>
      <point x="139" y="625"/>
      <point x="23" y="702" type="qcurve"/>
      <point x="23" y="722" type="line"/>
      <point x="157" y="656"/>
      <point x="230" y="529" type="qcurve" smooth="yes"/>
      <point x="304" y="402"/>
    </contour>
  </outline>
</glyph>
<glyph name="asterisk" format="1">
  <advance width="520"/>
  <unicode hex="002A"/>
  <outline>
    <contour>
      <point x="447" y="596" type="qcurve" smooth="yes"/>
      <point x="447" y="578"/>
      <point x="415" y="547"/>
      <point x="381" y="538" type="qcurve" smooth="yes"/>
      <point x="283" y="511" type="line"/>
      <point x="308" y="504"/>
      <point x="356" y="490"/>
      <point x="381" y="482" type="qcurve" smooth="yes"/>
      <point x="446" y="461"/>
      <point x="446" y="426" type="qcurve" smooth="yes"/>
      <point x="446" y="389"/>
      <point x="408" y="389" type="qcurve" smooth="yes"/>
      <point x="380" y="389"/>
      <point x="337" y="431" type="qcurve" smooth="yes"/>
      <point x="271" y="493" type="line"/>
      <point x="271" y="468"/>
      <point x="286" y="423" type="qcurve" smooth="yes"/>
      <point x="302" y="379"/>
      <point x="302" y="355" type="qcurve" smooth="yes"/>
      <point x="302" y="301"/>
      <point x="258" y="301" type="qcurve" smooth="yes"/>
      <point x="240" y="301"/>
      <point x="219" y="334"/>
      <point x="219" y="353" type="qcurve" smooth="yes"/>
      <point x="219" y="381"/>
      <point x="232" y="424" type="qcurve" smooth="yes"/>
      <point x="252" y="493"/>
      <point x="252" y="494" type="qcurve"/>
      <point x="250" y="492"/>
      <point x="216" y="461"/>
      <point x="184" y="431" type="qcurve" smooth="yes"/>
      <point x="140" y="388"/>
      <point x="115" y="388" type="qcurve" smooth="yes"/>
      <point x="99" y="388"/>
      <point x="74" y="409"/>
      <point x="74" y="424" type="qcurve" smooth="yes"/>
      <point x="74" y="441"/>
      <point x="106" y="473"/>
      <point x="141" y="483" type="qcurve" smooth="yes"/>
      <point x="240" y="511" type="line"/>
      <point x="227" y="518"/>
      <point x="178" y="530" type="qcurve" smooth="yes"/>
      <point x="131" y="541"/>
      <point x="108" y="553" type="qcurve" smooth="yes"/>
      <point x="74" y="569"/>
      <point x="74" y="597" type="qcurve" smooth="yes"/>
      <point x="74" y="634"/>
      <point x="112" y="634" type="qcurve" smooth="yes"/>
      <point x="126" y="634"/>
      <point x="162" y="614"/>
      <point x="185" y="592" type="qcurve" smooth="yes"/>
      <point x="251" y="529" type="line"/>
      <point x="250" y="539"/>
      <point x="241" y="576"/>
      <point x="233" y="603" type="qcurve" smooth="yes"/>
      <point x="225" y="628"/>
      <point x="219" y="660"/>
      <point x="219" y="668" type="qcurve" smooth="yes"/>
      <point x="219" y="722"/>
      <point x="263" y="722" type="qcurve" smooth="yes"/>
      <point x="281" y="722"/>
      <point x="302" y="689"/>
      <point x="302" y="670" type="qcurve" smooth="yes"/>
      <point x="302" y="645"/>
      <point x="290" y="600" type="qcurve" smooth="yes"/>
      <point x="282" y="571"/>
      <point x="272" y="536"/>
      <point x="271" y="529" type="qcurve"/>
      <point x="275" y="531"/>
      <point x="308" y="563"/>
      <point x="339" y="592" type="qcurve" smooth="yes"/>
      <point x="383" y="633"/>
      <point x="407" y="633" type="qcurve" smooth="yes"/>
      <point x="422" y="633"/>
      <point x="447" y="611"/>
    </contour>
  </outline>
</glyph>
<glyph name="comma" format="1">
  <advance width="260"/>
  <unicode hex="002C"/>
  <outline>
    <contour>
      <point x="207" y="-4" type="qcurve" smooth="yes"/>
      <point x="207" y="-121"/>
      <point x="56" y="-173" type="qcurve"/>
      <point x="56" y="-150" type="line"/>
      <point x="99" y="-137"/>
      <point x="130" y="-104" type="qcurve" smooth="yes"/>
      <point x="165" y="-66"/>
      <point x="165" y="-19" type="qcurve" smooth="yes"/>
      <point x="165" y="0"/>
      <point x="154" y="0" type="qcurve" smooth="yes"/>
      <point x="146" y="0"/>
      <point x="118" y="-14"/>
      <point x="110" y="-14" type="qcurve" smooth="yes"/>
      <point x="56" y="-14"/>
      <point x="56" y="42" type="qcurve" smooth="yes"/>
      <point x="56" y="68"/>
      <point x="95" y="101"/>
      <point x="122" y="101" type="qcurve" smooth="yes"/>
      <point x="153" y="101"/>
      <point x="179" y="74" type="qcurve" smooth="yes"/>
      <point x="207" y="45"/>
    </contour>
  </outline>
</glyph>
<glyph name="period" format="1">
  <advance width="260"/>
  <unicode hex="002E"/>
  <outline>
    <contour>
      <point x="186" y="43" type="qcurve" smooth="yes"/>
      <point x="186" y="19"/>
      <point x="154" y="-14"/>
      <point x="130" y="-14" type="qcurve" smooth="yes"/>
      <point x="105" y="-14"/>
      <point x="74" y="19"/>
      <point x="74" y="43" type="qcurve" smooth="yes"/>
      <point x="74" y="67"/>
      <point x="106" y="99"/>
      <point x="130" y="99" type="qcurve" smooth="yes"/>
      <point x="153" y="99"/>
      <point x="186" y="67"/>
    </contour>
  </outline>
</glyph>
<glyph name="slash" format="1">
  <advance width="289"/>
  <unicode hex="002F"/>
  <outline>
    <contour>
      <point x="291" y="722" type="line"/>
      <point x="43" y="-14" type="line"/>
      <point x="1" y="-14" type="line"/>
      <point x="251" y="722" type="line"/>
    </contour>
  </outline>
</glyph>
<glyph name="zero" format="1">
  <advance width="520"/>
  <unicode hex="0030"/>
  <outline>
    <contour>
      <point x="483" y="350" type="qcurve" smooth="yes"/>
      <point x="483" y="201"/>
      <point x="425" y="100" type="qcurve" smooth="yes"/>
      <point x="363" y="-11"/>
      <point x="257" y="-11" type="qcurve" smooth="yes"/>
      <point x="160" y="-11"/>
      <point x="96" y="97" type="qcurve" smooth="yes"/>
      <point x="37" y="200"/>
      <point x="37" y="340" type="qcurve" smooth="yes"/>
      <point x="37" y="498"/>
      <point x="105" y="604" type="qcurve" smooth="yes"/>
      <point x="169" y="703"/>
      <point x="262" y="703" type="qcurve" smooth="yes"/>
      <point x="353" y="703"/>
      <point x="416" y="608" type="qcurve" smooth="yes"/>
      <point x="483" y="508"/>
    </contour>
    <contour>
      <point x="384" y="373" type="qcurve" smooth="yes"/>
      <point x="384" y="512"/>
      <point x="320" y="670"/>
      <point x="261" y="670" type="qcurve" smooth="yes"/>
      <point x="209" y="670"/>
      <point x="178" y="603" type="qcurve" smooth="yes"/>
      <point x="137" y="515"/>
      <point x="137" y="328" type="qcurve" smooth="yes"/>
      <point x="137" y="178"/>
      <point x="170" y="97" type="qcurve" smooth="yes"/>
      <point x="202" y="20"/>
      <point x="259" y="20" type="qcurve" smooth="yes"/>
      <point x="384" y="20"/>
    </contour>
  </outline>
</glyph>
<glyph name="one" format="1">
  <advance width="520"/>
  <unicode hex="0031"/>
  <outline>
    <contour>
      <point x="393" y="0" type="line"/>
      <point x="134" y="0" type="line"/>
      <point x="134" y="19" type="line"/>
      <point x="196" y="19"/>
      <point x="211" y="38" type="qcurve" smooth="yes"/>
      <point x="223" y="54"/>
      <point x="223" y="122" type="qcurve" smooth="yes"/>
      <point x="223" y="493" type="line" smooth="yes"/>
      <point x="223" y="566"/>
      <point x="220" y="583" type="qcurve" smooth="yes"/>
      <point x="213" y="620"/>
      <point x="182" y="620" type="qcurve" smooth="yes"/>
      <point x="162" y="620"/>
      <point x="129" y="605" type="qcurve"/>
      <point x="122" y="621" type="line"/>
      <point x="289" y="703" type="line"/>
      <point x="307" y="703" type="line"/>
      <point x="307" y="122" type="line" smooth="yes"/>
      <point x="307" y="52"/>
      <point x="318" y="38" type="qcurve" smooth="yes"/>
      <point x="331" y="19"/>
      <point x="393" y="19" type="qcurve"/>
    </contour>
  </outline>
</glyph>
<glyph name="two" format="1">
  <advance width="520"/>
  <unicode hex="0032"/>
  <outline>
    <contour>
      <point x="477" y="132" type="line"/>
      <point x="428" y="0" type="line"/>
      <point x="23" y="0" type="line"/>
      <point x="23" y="19" type="line"/>
      <point x="70" y="62"/>
      <point x="136" y="126"/>
      <point x="156" y="146" type="qcurve" smooth="yes"/>
      <point x="193" y="183"/>
      <point x="252" y="253"/>
      <point x="275" y="286" type="qcurve" smooth="yes"/>
      <point x="348" y="390"/>
      <point x="348" y="475" type="qcurve" smooth="yes"/>
      <point x="348" y="554"/>
      <point x="296" y="594" type="qcurve" smooth="yes"/>
      <point x="258" y="625"/>
      <point x="212" y="625" type="qcurve" smooth="yes"/>
      <point x="102" y="625"/>
      <point x="61" y="509" type="qcurve"/>
      <point x="43" y="509" type="line"/>
      <point x="52" y="579"/>
      <point x="87" y="629" type="qcurve" smooth="yes"/>
      <point x="140" y="703"/>
      <point x="238" y="703" type="qcurve" smooth="yes"/>
      <point x="316" y="703"/>
      <point x="373" y="655" type="qcurve" smooth="yes"/>
      <point x="435" y="602"/>
      <point x="435" y="522" type="qcurve" smooth="yes"/>
      <point x="435" y="403"/>
      <point x="288" y="243" type="qcurve" smooth="yes"/>
      <point x="155" y="99"/>
      <point x="131" y="77" type="qcurve"/>
      <point x="311" y="77" type="line" smooth="yes"/>
      <point x="343" y="77"/>
      <point x="385" y="79"/>
      <point x="395" y="82" type="qcurve" smooth="yes"/>
      <point x="429" y="91"/>
      <point x="458" y="132" type="qcurve"/>
    </contour>
  </outline>
</glyph>
<glyph name="three" format="1">
  <advance width="520"/>
  <unicode hex="0033"/>
  <outline>
    <contour>
      <point x="434" y="228" type="qcurve" smooth="yes"/>
      <point x="434" y="122"/>
      <point x="360" y="54" type="qcurve" smooth="yes"/>
      <point x="288" y="-11"/>
      <point x="162" y="-11" type="qcurve" smooth="yes"/>
      <point x="43" y="-11"/>
      <point x="43" y="43" type="qcurve" smooth="yes"/>
      <point x="43" y="58"/>
      <point x="67" y="79"/>
      <point x="83" y="79" type="qcurve" smooth="yes"/>
      <point x="105" y="79"/>
      <point x="149" y="55" type="qcurve" smooth="yes"/>
      <point x="193" y="32"/>
      <point x="230" y="32" type="qcurve" smooth="yes"/>
      <point x="277" y="32"/>
      <point x="318" y="70" type="qcurve" smooth="yes"/>
      <point x="359" y="108"/>
      <point x="359" y="166" type="qcurve" smooth="yes"/>
      <point x="359" y="280"/>
      <point x="259" y="322" type="qcurve" smooth="yes"/>
      <point x="218" y="339"/>
      <point x="158" y="341" type="qcurve"/>
      <point x="158" y="357" type="line"/>
      <point x="201" y="361"/>
      <point x="246" y="391" type="qcurve" smooth="yes"/>
      <point x="315" y="436"/>
      <point x="315" y="517" type="qcurve" smooth="yes"/>
      <point x="315" y="577"/>
      <point x="275" y="608" type="qcurve" smooth="yes"/>
      <point x="244" y="633"/>
      <point x="202" y="633" type="qcurve" smooth="yes"/>
      <point x="122" y="633"/>
      <point x="70" y="549" type="qcurve"/>
      <point x="53" y="557" type="line"/>
      <point x="82" y="619"/>
      <point x="107" y="646" type="qcurve" smooth="yes"/>
      <point x="158" y="703"/>
      <point x="239" y="703" type="qcurve" smooth="yes"/>
      <point x="325" y="703"/>
      <point x="369" y="647" type="qcurve" smooth="yes"/>
      <point x="399" y="606"/>
      <point x="399" y="563" type="qcurve" smooth="yes"/>
      <point x="399" y="489"/>
      <point x="306" y="408" type="qcurve"/>
      <point x="434" y="361"/>
    </contour>
  </outline>
</glyph>
<glyph name="four" format="1">
  <advance width="520"/>
  <unicode hex="0034"/>
  <outline>
    <contour>
      <point x="483" y="182" type="line"/>
      <point x="392" y="182" type="line"/>
      <point x="392" y="0" type="line"/>
      <point x="308" y="0" type="line"/>
      <point x="308" y="182" type="line"/>
      <point x="16" y="182" type="line"/>
      <point x="16" y="246" type="line"/>
      <point x="336" y="703" type="line"/>
      <point x="392" y="703" type="line"/>
      <point x="392" y="254" type="line"/>
      <point x="483" y="254" type="line"/>
    </contour>
    <contour>
      <point x="308" y="254" type="line"/>
      <point x="308" y="596" type="line"/>
      <point x="66" y="254" type="line"/>
    </contour>
  </outline>
</glyph>
<glyph name="five" format="1">
  <advance width="520"/>
  <unicode hex="0035"/>
  <outline>
    <contour>
      <point x="451" y="688" type="line"/>
      <point x="412" y="602" type="line"/>
      <point x="205" y="602" type="line"/>
      <point x="159" y="510" type="line"/>
      <point x="243" y="502"/>
      <point x="324" y="450" type="qcurve" smooth="yes"/>
      <point x="440" y="373"/>
      <point x="440" y="248" type="qcurve" smooth="yes"/>
      <point x="440" y="129"/>
      <point x="347" y="54" type="qcurve" smooth="yes"/>
      <point x="267" y="-11"/>
      <point x="168" y="-11" type="qcurve" smooth="yes"/>
      <point x="111" y="-11"/>
      <point x="50" y="26"/>
      <point x="50" y="55" type="qcurve" smooth="yes"/>
      <point x="50" y="92"/>
      <point x="90" y="92" type="qcurve" smooth="yes"/>
      <point x="112" y="92"/>
      <point x="150" y="66" type="qcurve" smooth="yes"/>
      <point x="190" y="40"/>
      <point x="225" y="40" type="qcurve" smooth="yes"/>
      <point x="285" y="40"/>
      <point x="329" y="84" type="qcurve" smooth="yes"/>
      <point x="374" y="129"/>
      <point x="374" y="194" type="qcurve" smooth="yes"/>
      <point x="374" y="286"/>
      <point x="298" y="349" type="qcurve" smooth="yes"/>
      <point x="217" y="416"/>
      <point x="73" y="421" type="qcurve"/>
      <point x="205" y="688" type="line"/>
    </contour>
  </outline>
</glyph>
<glyph name="six" format="1">
  <advance width="520"/>
  <unicode hex="0036"/>
  <outline>
    <contour>
      <point x="480" y="232" type="qcurve" smooth="yes"/>
      <point x="480" y="136"/>
      <point x="421" y="65" type="qcurve" smooth="yes"/>
      <point x="357" y="-11"/>
      <point x="261" y="-11" type="qcurve" smooth="yes"/>
      <point x="166" y="-11"/>
      <point x="105" y="72" type="qcurve" smooth="yes"/>
      <point x="45" y="153"/>
      <point x="45" y="270" type="qcurve" smooth="yes"/>
      <point x="45" y="461"/>
      <point x="187" y="594" type="qcurve" smooth="yes"/>
      <point x="302" y="703"/>
      <point x="437" y="703" type="qcurve" smooth="yes"/>
      <point x="466" y="703" type="line"/>
      <point x="466" y="684" type="line"/>
      <point x="354" y="678"/>
      <point x="272" y="596" type="qcurve" smooth="yes"/>
      <point x="190" y="514"/>
      <point x="159" y="384" type="qcurve"/>
      <point x="232" y="435"/>
      <point x="306" y="435" type="qcurve" smooth="yes"/>
      <point x="366" y="435"/>
      <point x="416" y="391" type="qcurve" smooth="yes"/>
      <point x="480" y="334"/>
    </contour>
    <contour>
      <point x="389" y="177" type="qcurve" smooth="yes"/>
      <point x="389" y="266"/>
      <point x="358" y="324" type="qcurve" smooth="yes"/>
      <point x="322" y="391"/>
      <point x="257" y="391" type="qcurve" smooth="yes"/>
      <point x="222" y="391"/>
      <point x="151" y="347" type="qcurve"/>
      <point x="146" y="309"/>
      <point x="141" y="254"/>
      <point x="141" y="237" type="qcurve" smooth="yes"/>
      <point x="141" y="158"/>
      <point x="176" y="90" type="qcurve" smooth="yes"/>
      <point x="216" y="14"/>
      <point x="276" y="16" type="qcurve" smooth="yes"/>
      <point x="323" y="17"/>
      <point x="355" y="58" type="qcurve" smooth="yes"/>
      <point x="389" y="102"/>
    </contour>
  </outline>
</glyph>
<glyph name="seven" format="1">
  <advance width="520"/>
  <unicode hex="0037"/>
  <outline>
    <contour>
      <point x="472" y="670" type="line"/>
      <point x="243" y="-14" type="line"/>
      <point x="187" y="-14" type="line"/>
      <point x="393" y="605" type="line"/>
      <point x="204" y="605" type="line" smooth="yes"/>
      <point x="131" y="605"/>
      <point x="94" y="577" type="qcurve" smooth="yes"/>
      <point x="78" y="564"/>
      <point x="53" y="521" type="qcurve"/>
      <point x="38" y="526" type="line"/>
      <point x="105" y="688" type="line"/>
      <point x="472" y="688" type="line"/>
    </contour>
  </outline>
</glyph>
<glyph name="eight" format="1">
  <advance width="520"/>
  <unicode hex="0038"/>
  <outline>
    <contour>
      <point x="460" y="163" type="qcurve" smooth="yes"/>
      <point x="460" y="99"/>
      <point x="420" y="52" type="qcurve" smooth="yes"/>
      <point x="367" y="-11"/>
      <point x="260" y="-11" type="qcurve" smooth="yes"/>
      <point x="167" y="-11"/>
      <point x="113" y="43" type="qcurve" smooth="yes"/>
      <point x="62" y="92"/>
      <point x="62" y="157" type="qcurve" smooth="yes"/>
      <point x="62" y="251"/>
      <point x="200" y="346" type="qcurve"/>
      <point x="135" y="402"/>
      <point x="115" y="425" type="qcurve" smooth="yes"/>
      <point x="71" y="480"/>
      <point x="71" y="539" type="qcurve" smooth="yes"/>
      <point x="71" y="612"/>
      <point x="128" y="659" type="qcurve" smooth="yes"/>
      <point x="183" y="703"/>
      <point x="260" y="703" type="qcurve" smooth="yes"/>
      <point x="358" y="703"/>
      <point x="409" y="644" type="qcurve" smooth="yes"/>
      <point x="445" y="600"/>
      <point x="445" y="554" type="qcurve" smooth="yes"/>
      <point x="445" y="500"/>
      <point x="396" y="451" type="qcurve" smooth="yes"/>
      <point x="366" y="421"/>
      <point x="303" y="382" type="qcurve"/>
      <point x="338" y="354"/>
      <point x="389" y="311"/>
      <point x="404" y="294" type="qcurve" smooth="yes"/>
      <point x="460" y="229"/>
    </contour>
    <contour>
      <point x="372" y="560" type="qcurve" smooth="yes"/>
      <point x="372" y="673"/>
      <point x="261" y="673" type="qcurve" smooth="yes"/>
      <point x="212" y="673"/>
      <point x="145" y="619"/>
      <point x="145" y="573" type="qcurve" smooth="yes"/>
      <point x="145" y="528"/>
      <point x="180" y="487" type="qcurve" smooth="yes"/>
      <point x="191" y="475"/>
      <point x="240" y="432"/>
      <point x="280" y="401" type="qcurve"/>
      <point x="331" y="449"/>
      <point x="345" y="469" type="qcurve" smooth="yes"/>
      <point x="372" y="508"/>
    </contour>
    <contour>
      <point x="388" y="122" type="qcurve" smooth="yes"/>
      <point x="388" y="177"/>
      <point x="329" y="238" type="qcurve"/>
      <point x="224" y="328" type="line"/>
      <point x="140" y="256"/>
      <point x="140" y="159" type="qcurve" smooth="yes"/>
      <point x="140" y="92"/>
      <point x="212" y="16"/>
      <point x="267" y="16" type="qcurve" smooth="yes"/>
      <point x="319" y="16"/>
      <point x="388" y="73"/>
    </contour>
  </outline>
</glyph>
<glyph name="nine" format="1">
  <advance width="520"/>
  <unicode hex="0039"/>
  <outline>
    <contour>
      <point x="475" y="419" type="qcurve" smooth="yes"/>
      <point x="475" y="249"/>
      <point x="359" y="121" type="qcurve" smooth="yes"/>
      <point x="237" y="-14"/>
      <point x="84" y="-14" type="qcurve" smooth="yes"/>
      <point x="55" y="-14" type="line"/>
      <point x="55" y="4" type="line"/>
      <point x="171" y="7"/>
      <point x="243" y="85" type="qcurve" smooth="yes"/>
      <point x="331" y="179"/>
      <point x="361" y="303" type="qcurve"/>
      <point x="285" y="251"/>
      <point x="217" y="251" type="qcurve" smooth="yes"/>
      <point x="136" y="251"/>
      <point x="87" y="315" type="qcurve" smooth="yes"/>
      <point x="42" y="373"/>
      <point x="42" y="456" type="qcurve" smooth="yes"/>
      <point x="42" y="561"/>
      <point x="107" y="634" type="qcurve" smooth="yes"/>
      <point x="168" y="703"/>
      <point x="256" y="703" type="qcurve" smooth="yes"/>
      <point x="355" y="703"/>
      <point x="418" y="611" type="qcurve" smooth="yes"/>
      <point x="475" y="527"/>
    </contour>
    <contour>
      <point x="379" y="445" type="qcurve" smooth="yes"/>
      <point x="379" y="549"/>
      <point x="334" y="614" type="qcurve" smooth="yes"/>
      <point x="294" y="672"/>
      <point x="244" y="670" type="qcurve" smooth="yes"/>
      <point x="195" y="669"/>
      <point x="165" y="628" type="qcurve" smooth="yes"/>
      <point x="132" y="584"/>
      <point x="132" y="509" type="qcurve" smooth="yes"/>
      <point x="132" y="461"/>
      <point x="150" y="383"/>
      <point x="183" y="328"/>
      <point x="229" y="297"/>
      <point x="258" y="297" type="qcurve" smooth="yes"/>
      <point x="286" y="297"/>
      <point x="323" y="311" type="qcurve" smooth="yes"/>
      <point x="358" y="325"/>
      <point x="369" y="340" type="qcurve"/>
      <point x="374" y="377"/>
      <point x="379" y="429"/>
    </contour>
  </outline>
</glyph>
<glyph name="colon" format="1">
  <advance width="290"/>
  <unicode hex="003A"/>
  <outline>
    <contour>
      <point x="202" y="423" type="qcurve" smooth="yes"/>
      <point x="202" y="399"/>
      <point x="168" y="367"/>
      <point x="146" y="367" type="qcurve" smooth="yes"/>
      <point x="123" y="367"/>
      <point x="89" y="400"/>
      <point x="89" y="423" type="qcurve" smooth="yes"/>
      <point x="89" y="447"/>
      <point x="122" y="479"/>
      <point x="146" y="479" type="qcurve" smooth="yes"/>
      <point x="169" y="479"/>
      <point x="202" y="447"/>
    </contour>
    <contour>
      <point x="202" y="43" type="qcurve" smooth="yes"/>
      <point x="202" y="18"/>
      <point x="167" y="-14"/>
      <point x="145" y="-14" type="qcurve" smooth="yes"/>
      <point x="122" y="-14"/>
      <point x="88" y="18"/>
      <point x="88" y="43" type="qcurve" smooth="yes"/>
      <point x="88" y="69"/>
      <point x="124" y="99"/>
      <point x="145" y="99" type="qcurve" smooth="yes"/>
      <point x="166" y="99"/>
      <point x="202" y="68"/>
    </contour>
  </outline>
</glyph>
<glyph name="semicolon" format="1">
  <advance width="290"/>
  <unicode hex="003B"/>
  <outline>
    <contour>
      <point x="215" y="424" type="qcurve" smooth="yes"/>
      <point x="215" y="400"/>
      <point x="181" y="368"/>
      <point x="159" y="368" type="qcurve" smooth="yes"/>
      <point x="136" y="368"/>
      <point x="102" y="401"/>
      <point x="102" y="424" type="qcurve" smooth="yes"/>
      <point x="102" y="448"/>
      <point x="135" y="480"/>
      <point x="159" y="480" type="qcurve" smooth="yes"/>
      <point x="182" y="480"/>
      <point x="215" y="448"/>
    </contour>
    <contour>
      <point x="238" y="-4" type="qcurve" smooth="yes"/>
      <point x="238" y="-121"/>
      <point x="87" y="-173" type="qcurve"/>
      <point x="87" y="-150" type="line"/>
      <point x="130" y="-137"/>
      <point x="161" y="-104" type="qcurve" smooth="yes"/>
      <point x="196" y="-66"/>
      <point x="196" y="-19" type="qcurve" smooth="yes"/>
      <point x="196" y="0"/>
      <point x="185" y="0" type="qcurve" smooth="yes"/>
      <point x="177" y="0"/>
      <point x="149" y="-14"/>
      <point x="141" y="-14" type="qcurve" smooth="yes"/>
      <point x="87" y="-14"/>
      <point x="87" y="42" type="qcurve" smooth="yes"/>
      <point x="87" y="68"/>
      <point x="126" y="101"/>
      <point x="153" y="101" type="qcurve" smooth="yes"/>
      <point x="184" y="101"/>
      <point x="210" y="74" type="qcurve" smooth="yes"/>
      <point x="238" y="45"/>
    </contour>
  </outline>
</glyph>
<glyph name="question" format="1">
  <advance width="462"/>
  <unicode hex="003F"/>
  <outline>
    <contour>
      <point x="420" y="544" type="qcurve" smooth="yes"/>
      <point x="420" y="464"/>
      <point x="341" y="376" type="qcurve" smooth="yes"/>
      <point x="309" y="341"/>
      <point x="270" y="290"/>
      <point x="261" y="274" type="qcurve" smooth="yes"/>
      <point x="248" y="251"/>
      <point x="233" y="194"/>
      <point x="231" y="162" type="qcurve"/>
      <point x="209" y="162" type="line"/>
      <point x="215" y="280"/>
      <point x="278" y="385" type="qcurve" smooth="yes"/>
      <point x="326" y="464"/>
      <point x="326" y="536" type="qcurve" smooth="yes"/>
      <point x="326" y="606"/>
      <point x="287" y="644" type="qcurve" smooth="yes"/>
      <point x="253" y="676"/>
      <point x="208" y="676" type="qcurve" smooth="yes"/>
      <point x="163" y="676"/>
      <point x="112" y="634"/>
      <point x="112" y="609" type="qcurve" smooth="yes"/>
      <point x="112" y="594"/>
      <point x="128" y="563" type="qcurve" smooth="yes"/>
      <point x="144" y="534"/>
      <point x="144" y="522" type="qcurve" smooth="yes"/>
      <point x="144" y="502"/>
      <point x="118" y="478"/>
      <point x="103" y="478" type="qcurve" smooth="yes"/>
      <point x="86" y="478"/>
      <point x="70" y="493" type="qcurve" smooth="yes"/>
      <point x="47" y="516"/>
      <point x="47" y="558" type="qcurve" smooth="yes"/>
      <point x="47" y="618"/>
      <point x="94" y="660" type="qcurve" smooth="yes"/>
      <point x="146" y="704"/>
      <point x="230" y="704" type="qcurve" smooth="yes"/>
      <point x="272" y="704"/>
      <point x="342" y="682"/>
      <point x="392" y="640"/>
      <point x="420" y="581"/>
    </contour>
    <contour>
      <point x="280" y="43" type="qcurve" smooth="yes"/>
      <point x="280" y="17"/>
      <point x="245" y="-13"/>
      <point x="224" y="-13" type="qcurve" smooth="yes"/>
      <point x="201" y="-13"/>
      <point x="166" y="17"/>
      <point x="166" y="43" type="qcurve" smooth="yes"/>
      <point x="166" y="67"/>
      <point x="201" y="100"/>
      <point x="224" y="100" type="qcurve" smooth="yes"/>
      <point x="246" y="100"/>
      <point x="280" y="68"/>
    </contour>
  </outline>
</glyph>
<glyph name="at" format="1">
  <advance width="958"/>
  <unicode hex="0040"/>
  <outline>
    <contour>
      <point x="932" y="87" type="line"/>
      <point x="904" y="-16"/>
      <point x="808" y="-104" type="qcurve" smooth="yes"/>
      <point x="677" y="-224"/>
      <point x="492" y="-224" type="qcurve" smooth="yes"/>
      <point x="285" y="-224"/>
      <point x="160" y="-78" type="qcurve" smooth="yes"/>
      <point x="49" y="49"/>
      <point x="49" y="226" type="qcurve" smooth="yes"/>
      <point x="49" y="455"/>
      <point x="206" y="597" type="qcurve" smooth="yes"/>
      <point x="346" y="722"/>
      <point x="529" y="722" type="qcurve" smooth="yes"/>
      <point x="684" y="722"/>
      <point x="785" y="633" type="qcurve" smooth="yes"/>
      <point x="892" y="538"/>
      <point x="892" y="374" type="qcurve" smooth="yes"/>
      <point x="892" y="223"/>
      <point x="811" y="120" type="qcurve" smooth="yes"/>
      <point x="730" y="16"/>
      <point x="612" y="16" type="qcurve" smooth="yes"/>
      <point x="535" y="16"/>
      <point x="535" y="90" type="qcurve" smooth="yes"/>
      <point x="535" y="102"/>
      <point x="539" y="137"/>
      <point x="543" y="160" type="qcurve"/>
      <point x="423" y="16"/>
      <point x="343" y="16" type="qcurve" smooth="yes"/>
      <point x="306" y="16"/>
      <point x="252" y="79"/>
      <point x="252" y="133" type="qcurve" smooth="yes"/>
      <point x="252" y="255"/>
      <point x="348" y="374" type="qcurve" smooth="yes"/>
      <point x="443" y="490"/>
      <point x="531" y="490" type="qcurve" smooth="yes"/>
      <point x="604" y="490"/>
      <point x="619" y="419" type="qcurve"/>
      <point x="635" y="475" type="line"/>
      <point x="714" y="487" type="line"/>
      <point x="656" y="284" type="line" smooth="yes"/>
      <point x="608" y="116"/>
      <point x="608" y="90" type="qcurve" smooth="yes"/>
      <point x="608" y="74"/>
      <point x="631" y="52"/>
      <point x="647" y="52" type="qcurve" smooth="yes"/>
      <point x="717" y="52"/>
      <point x="784" y="140" type="qcurve" smooth="yes"/>
      <point x="861" y="241"/>
      <point x="861" y="384" type="qcurve" smooth="yes"/>
      <point x="861" y="526"/>
      <point x="764" y="613" type="qcurve" smooth="yes"/>
      <point x="672" y="696"/>
      <point x="532" y="696" type="qcurve" smooth="yes"/>
      <point x="353" y="696"/>
      <point x="227" y="561" type="qcurve" smooth="yes"/>
      <point x="97" y="422"/>
      <point x="97" y="212" type="qcurve" smooth="yes"/>
      <point x="97" y="46"/>
      <point x="195" y="-66" type="qcurve" smooth="yes"/>
      <point x="304" y="-192"/>
      <point x="495" y="-192" type="qcurve" smooth="yes"/>
      <point x="664" y="-192"/>
      <point x="780" y="-86" type="qcurve" smooth="yes"/>
      <point x="857" y="-16"/>
      <point x="903" y="87" type="qcurve"/>
    </contour>
    <contour>
      <point x="600" y="383" type="qcurve" smooth="yes"/>
      <point x="600" y="466"/>
      <point x="537" y="466" type="qcurve" smooth="yes"/>
      <point x="467" y="466"/>
      <point x="397" y="340" type="qcurve" smooth="yes"/>
      <point x="332" y="224"/>
      <point x="332" y="149" type="qcurve" smooth="yes"/>
      <point x="332" y="115"/>
      <point x="352" y="95" type="qcurve" smooth="yes"/>
      <point x="368" y="77"/>
      <point x="390" y="77" type="qcurve" smooth="yes"/>
      <point x="437" y="77"/>
      <point x="493" y="136" type="qcurve" smooth="yes"/>
      <point x="543" y="189"/>
      <point x="572" y="261" type="qcurve" smooth="yes"/>
      <point x="600" y="330"/>
    </contour>
  </outline>
</glyph>
<glyph name="B" format="1">
  <advance width="676"/>
  <unicode hex="0042"/>
  <outline>
    <contour>
      <point x="636" y="188" type="qcurve" smooth="yes"/>
      <point x="636" y="104"/>
      <point x="567" y="50" type="qcurve" smooth="yes"/>
      <point x="502" y="0"/>
      <point x="342" y="0" type="qcurve" smooth="yes"/>
      <point x="18" y="0" type="line"/>
      <point x="18" y="19" type="line"/>
      <point x="43" y="19" type="line" smooth="yes"/>
      <point x="86" y="19"/>
      <point x="105" y="47" type="qcurve" smooth="yes"/>
      <point x="116" y="64"/>
      <point x="116" y="122" type="qcurve" smooth="yes"/>
      <point x="116" y="567" type="line" smooth="yes"/>
      <point x="116" y="631"/>
      <point x="102" y="648" type="qcurve" smooth="yes"/>
      <point x="83" y="670"/>
      <point x="43" y="670" type="qcurve" smooth="yes"/>
      <point x="18" y="670" type="line"/>
      <point x="18" y="688" type="line"/>
      <point x="315" y="688" type="line" smooth="yes"/>
      <point x="605" y="688"/>
      <point x="605" y="504" type="qcurve" smooth="yes"/>
      <point x="605" y="451"/>
      <point x="574" y="413" type="qcurve" smooth="yes"/>
      <point x="541" y="371"/>
      <point x="480" y="352" type="qcurve"/>
      <point x="636" y="322"/>
    </contour>
    <contour>
      <point x="498" y="509" type="qcurve" smooth="yes"/>
      <point x="498" y="570"/>
      <point x="451" y="611" type="qcurve" smooth="yes"/>
      <point x="399" y="654"/>
      <point x="306" y="654" type="qcurve" smooth="yes"/>
      <point x="251" y="654"/>
      <point x="214" y="644" type="qcurve"/>
      <point x="214" y="379" type="line"/>
      <point x="242" y="372"/>
      <point x="311" y="372" type="qcurve" smooth="yes"/>
      <point x="498" y="372"/>
    </contour>
    <contour>
      <point x="519" y="180" type="qcurve" smooth="yes"/>
      <point x="519" y="252"/>
      <point x="407" y="337"/>
      <point x="304" y="337" type="qcurve" smooth="yes"/>
      <point x="271" y="337"/>
      <point x="226" y="334"/>
      <point x="214" y="332" type="qcurve"/>
      <point x="214" y="50" type="line"/>
      <point x="278" y="36"/>
      <point x="331" y="36" type="qcurve" smooth="yes"/>
      <point x="419" y="36"/>
      <point x="471" y="77" type="qcurve" smooth="yes"/>
      <point x="519" y="114"/>
    </contour>
  </outline>
</glyph>
<glyph name="C" format="1">
  <advance width="694"/>
  <unicode hex="0043"/>
  <outline>
    <contour>
      <point x="657" y="161" type="line"/>
      <point x="557" y="-15"/>
      <point x="372" y="-15" type="qcurve" smooth="yes"/>
      <point x="219" y="-15"/>
      <point x="125" y="89" type="qcurve" smooth="yes"/>
      <point x="37" y="186"/>
      <point x="37" y="334" type="qcurve" smooth="yes"/>
      <point x="37" y="487"/>
      <point x="133" y="594" type="qcurve" smooth="yes"/>
      <point x="234" y="704"/>
      <point x="388" y="704" type="qcurve" smooth="yes"/>
      <point x="449" y="704"/>
      <point x="508" y="680" type="qcurve" smooth="yes"/>
      <point x="522" y="674"/>
      <point x="544" y="665"/>
      <point x="552" y="662" type="qcurve" smooth="yes"/>
      <point x="561" y="658"/>
      <point x="566" y="656" type="qcurve" smooth="yes"/>
      <point x="596" y="656"/>
      <point x="608" y="704" type="qcurve"/>
      <point x="626" y="704" type="line"/>
      <point x="642" y="470" type="line"/>
      <point x="626" y="470" type="line"/>
      <point x="567" y="668"/>
      <point x="396" y="668" type="qcurve" smooth="yes"/>
      <point x="286" y="668"/>
      <point x="222" y="586" type="qcurve" smooth="yes"/>
      <point x="153" y="497"/>
      <point x="153" y="333" type="qcurve" smooth="yes"/>
      <point x="153" y="189"/>
      <point x="224" y="107" type="qcurve" smooth="yes"/>
      <point x="291" y="29"/>
      <point x="411" y="29" type="qcurve" smooth="yes"/>
      <point x="483" y="29"/>
      <point x="530" y="57" type="qcurve" smooth="yes"/>
      <point x="583" y="89"/>
      <point x="642" y="172" type="qcurve"/>
    </contour>
  </outline>
</glyph>
<glyph name="D" format="1">
  <advance width="751"/>
  <unicode hex="0044"/>
  <outline>
    <contour>
      <point x="711" y="348" type="qcurve" smooth="yes"/>
      <point x="711" y="193"/>
      <point x="618" y="102" type="qcurve" smooth="yes"/>
      <point x="516" y="0"/>
      <point x="326" y="0" type="qcurve" smooth="yes"/>
      <point x="18" y="0" type="line"/>
      <point x="18" y="19" type="line"/>
      <point x="44" y="19" type="line" smooth="yes"/>
      <point x="89" y="19"/>
      <point x="105" y="47" type="qcurve" smooth="yes"/>
      <point x="116" y="66"/>
      <point x="116" y="122" type="qcurve" smooth="yes"/>
      <point x="116" y="567" type="line" smooth="yes"/>
      <point x="116" y="632"/>
      <point x="103" y="648" type="qcurve" smooth="yes"/>
      <point x="81" y="670"/>
      <point x="44" y="670" type="qcurve" smooth="yes"/>
      <point x="18" y="670" type="line"/>
      <point x="18" y="688" type="line"/>
      <point x="298" y="688" type="line" smooth="yes"/>
      <point x="513" y="688"/>
      <point x="605" y="607" type="qcurve" smooth="yes"/>
      <point x="711" y="513"/>
    </contour>
    <contour>
      <point x="596" y="343" type="qcurve" smooth="yes"/>
      <point x="596" y="484"/>
      <point x="518" y="567" type="qcurve" smooth="yes"/>
      <point x="441" y="650"/>
      <point x="318" y="650" type="qcurve" smooth="yes"/>
      <point x="269" y="650"/>
      <point x="214" y="635" type="qcurve"/>
      <point x="214" y="50" type="line"/>
      <point x="284" y="35"/>
      <point x="322" y="35" type="qcurve" smooth="yes"/>
      <point x="441" y="33"/>
      <point x="518" y="118" type="qcurve" smooth="yes"/>
      <point x="596" y="202"/>
    </contour>
  </outline>
</glyph>
<glyph name="F" format="1">
  <advance width="578"/>
  <unicode hex="0046"/>
  <outline>
    <contour>
      <point x="536" y="538" type="line"/>
      <point x="518" y="538" type="line"/>
      <point x="499" y="603"/>
      <point x="470" y="626" type="qcurve" smooth="yes"/>
      <point x="439" y="651"/>
      <point x="365" y="651" type="qcurve" smooth="yes"/>
      <point x="213" y="651" type="line"/>
      <point x="213" y="381" type="line"/>
      <point x="338" y="381" type="line" smooth="yes"/>
      <point x="360" y="381"/>
      <point x="391" y="390"/>
      <point x="412" y="411"/>
      <point x="424" y="447"/>
      <point x="428" y="474" type="qcurve"/>
      <point x="447" y="474" type="line"/>
      <point x="447" y="241" type="line"/>
      <point x="428" y="241" type="line"/>
      <point x="428" y="292"/>
      <point x="389" y="338"/>
      <point x="338" y="338" type="qcurve" smooth="yes"/>
      <point x="213" y="338" type="line"/>
      <point x="213" y="122" type="line" smooth="yes"/>
      <point x="213" y="56"/>
      <point x="224" y="45" type="qcurve" smooth="yes"/>
      <point x="245" y="19"/>
      <point x="287" y="19" type="qcurve" smooth="yes"/>
      <point x="312" y="19" type="line"/>
      <point x="312" y="0" type="line"/>
      <point x="17" y="0" type="line"/>
      <point x="17" y="19" type="line"/>
      <point x="42" y="19" type="line" smooth="yes"/>
      <point x="84" y="19"/>
      <point x="103" y="44" type="qcurve" smooth="yes"/>
      <point x="115" y="59"/>
      <point x="115" y="122" type="qcurve" smooth="yes"/>
      <point x="115" y="567" type="line" smooth="yes"/>
      <point x="115" y="633"/>
      <point x="101" y="647" type="qcurve" smooth="yes"/>
      <point x="78" y="670"/>
      <point x="42" y="670" type="qcurve" smooth="yes"/>
      <point x="17" y="670" type="line"/>
      <point x="17" y="688" type="line"/>
      <point x="529" y="688" type="line"/>
    </contour>
  </outline>
</glyph>
<glyph name="G" format="1">
  <advance width="751"/>
  <unicode hex="0047"/>
  <outline>
    <contour>
      <point x="736" y="357" type="line"/>
      <point x="724" y="357" type="line" smooth="yes"/>
      <point x="683" y="357"/>
      <point x="670" y="330" type="qcurve" smooth="yes"/>
      <point x="659" y="313"/>
      <point x="659" y="256" type="qcurve" smooth="yes"/>
      <point x="659" y="46" type="line"/>
      <point x="553" y="-15"/>
      <point x="417" y="-15" type="qcurve" smooth="yes"/>
      <point x="241" y="-15"/>
      <point x="137" y="86" type="qcurve" smooth="yes"/>
      <point x="36" y="184"/>
      <point x="36" y="334" type="qcurve" smooth="yes"/>
      <point x="36" y="474"/>
      <point x="129" y="582" type="qcurve" smooth="yes"/>
      <point x="233" y="704"/>
      <point x="401" y="704" type="qcurve" smooth="yes"/>
      <point x="472" y="704"/>
      <point x="532" y="682" type="qcurve" smooth="yes"/>
      <point x="592" y="660"/>
      <point x="595" y="660" type="qcurve" smooth="yes"/>
      <point x="615" y="660"/>
      <point x="620" y="704" type="qcurve"/>
      <point x="639" y="704" type="line"/>
      <point x="656" y="487" type="line"/>
      <point x="639" y="487" type="line"/>
      <point x="577" y="669"/>
      <point x="411" y="669" type="qcurve" smooth="yes"/>
      <point x="290" y="669"/>
      <point x="220" y="579" type="qcurve" smooth="yes"/>
      <point x="155" y="494"/>
      <point x="153" y="356" type="qcurve" smooth="yes"/>
      <point x="152" y="209"/>
      <point x="227" y="114" type="qcurve" smooth="yes"/>
      <point x="304" y="19"/>
      <point x="418" y="19" type="qcurve" smooth="yes"/>
      <point x="496" y="19"/>
      <point x="560" y="57" type="qcurve"/>
      <point x="560" y="256" type="line" smooth="yes"/>
      <point x="560" y="318"/>
      <point x="543" y="337" type="qcurve" smooth="yes"/>
      <point x="526" y="356"/>
      <point x="470" y="357" type="qcurve"/>
      <point x="470" y="375" type="line"/>
      <point x="736" y="375" type="line"/>
    </contour>
  </outline>
</glyph>
<glyph name="H" format="1">
  <advance width="751"/>
  <unicode hex="0048"/>
  <outline>
    <contour>
      <point x="730" y="0" type="line"/>
      <point x="435" y="0" type="line"/>
      <point x="435" y="19" type="line"/>
      <point x="460" y="19" type="line" smooth="yes"/>
      <point x="502" y="19"/>
      <point x="521" y="44" type="qcurve" smooth="yes"/>
      <point x="534" y="60"/>
      <point x="534" y="122" type="qcurve" smooth="yes"/>
      <point x="534" y="332" type="line"/>
      <point x="213" y="332" type="line"/>
      <point x="213" y="122" type="line" smooth="yes"/>
      <point x="213" y="57"/>
      <point x="226" y="43" type="qcurve" smooth="yes"/>
      <point x="245" y="19"/>
      <point x="288" y="19" type="qcurve" smooth="yes"/>
      <point x="313" y="19" type="line"/>
      <point x="313" y="0" type="line"/>
      <point x="18" y="0" type="line"/>
      <point x="18" y="19" type="line"/>
      <point x="43" y="19" type="line" smooth="yes"/>
      <point x="85" y="19"/>
      <point x="104" y="44" type="qcurve" smooth="yes"/>
      <point x="116" y="59"/>
      <point x="116" y="122" type="qcurve" smooth="yes"/>
      <point x="116" y="567" type="line" smooth="yes"/>
      <point x="116" y="628"/>
      <point x="102" y="647" type="qcurve" smooth="yes"/>
      <point x="84" y="670"/>
      <point x="43" y="670" type="qcurve" smooth="yes"/>
      <point x="18" y="670" type="line"/>
      <point x="18" y="688" type="line"/>
      <point x="313" y="688" type="line"/>
      <point x="313" y="670" type="line"/>
      <point x="288" y="670" type="line" smooth="yes"/>
      <point x="248" y="670"/>
      <point x="229" y="648" type="qcurve" smooth="yes"/>
      <point x="213" y="631"/>
      <point x="213" y="567" type="qcurve" smooth="yes"/>
      <point x="213" y="369" type="line"/>
      <point x="534" y="369" type="line"/>
      <point x="534" y="567" type="line" smooth="yes"/>
      <point x="534" y="633"/>
      <point x="519" y="648" type="qcurve" smooth="yes"/>
      <point x="497" y="670"/>
      <point x="460" y="670" type="qcurve" smooth="yes"/>
      <point x="435" y="670" type="line"/>
      <point x="435" y="688" type="line"/>
      <point x="730" y="688" type="line"/>
      <point x="730" y="670" type="line"/>
      <point x="705" y="670" type="line" smooth="yes"/>
      <point x="667" y="670"/>
      <point x="646" y="648" type="qcurve" smooth="yes"/>
      <point x="634" y="636"/>
      <point x="633" y="622" type="qcurve" smooth="yes"/>
      <point x="632" y="617"/>
      <point x="631" y="589"/>
      <point x="631" y="567" type="qcurve" smooth="yes"/>
      <point x="631" y="122" type="line" smooth="yes"/>
      <point x="631" y="60"/>
      <point x="643" y="44" type="qcurve" smooth="yes"/>
      <point x="661" y="19"/>
      <point x="705" y="19" type="qcurve" smooth="yes"/>
      <point x="730" y="19" type="line"/>
    </contour>
  </outline>
</glyph>
<glyph name="I" format="1">
  <advance width="346"/>
  <unicode hex="0049"/>
  <outline>
    <contour>
      <point x="321" y="0" type="line"/>
      <point x="26" y="0" type="line"/>
      <point x="26" y="19" type="line"/>
      <point x="51" y="19" type="line" smooth="yes"/>
      <point x="93" y="19"/>
      <point x="112" y="44" type="qcurve" smooth="yes"/>
      <point x="124" y="59"/>
      <point x="124" y="122" type="qcurve" smooth="yes"/>
      <point x="124" y="567" type="line" smooth="yes"/>
      <point x="124" y="630"/>
      <point x="113" y="644" type="qcurve" smooth="yes"/>
      <point x="92" y="670"/>
      <point x="51" y="670" type="qcurve" smooth="yes"/>
      <point x="26" y="670" type="line"/>
      <point x="26" y="688" type="line"/>
      <point x="321" y="688" type="line"/>
      <point x="321" y="670" type="line"/>
      <point x="296" y="670" type="line" smooth="yes"/>
      <point x="254" y="670"/>
      <point x="235" y="645" type="qcurve" smooth="yes"/>
      <point x="222" y="629"/>
      <point x="222" y="567" type="qcurve" smooth="yes"/>
      <point x="222" y="122" type="line" smooth="yes"/>
      <point x="222" y="61"/>
      <point x="234" y="43" type="qcurve" smooth="yes"/>
      <point x="240" y="35"/>
      <point x="278" y="19"/>
      <point x="296" y="19" type="qcurve" smooth="yes"/>
      <point x="321" y="19" type="line"/>
    </contour>
  </outline>
</glyph>
<glyph name="J" format="1">
  <advance width="405"/>
  <unicode hex="004A"/>
  <outline>
    <contour>
      <point x="398" y="670" type="line"/>
      <point x="373" y="670" type="line" smooth="yes"/>
      <point x="334" y="670"/>
      <point x="312" y="645" type="qcurve" smooth="yes"/>
      <point x="300" y="628"/>
      <point x="300" y="567" type="qcurve" smooth="yes"/>
      <point x="300" y="230" type="line" smooth="yes"/>
      <point x="300" y="89"/>
      <point x="236" y="28" type="qcurve" smooth="yes"/>
      <point x="190" y="-15"/>
      <point x="124" y="-15" type="qcurve" smooth="yes"/>
      <point x="76" y="-15"/>
      <point x="22" y="30"/>
      <point x="22" y="62" type="qcurve" smooth="yes"/>
      <point x="22" y="115"/>
      <point x="73" y="115" type="qcurve" smooth="yes"/>
      <point x="107" y="115"/>
      <point x="127" y="67" type="qcurve" smooth="yes"/>
      <point x="147" y="20"/>
      <point x="165" y="20" type="qcurve" smooth="yes"/>
      <point x="203" y="20"/>
      <point x="203" y="97" type="qcurve" smooth="yes"/>
      <point x="203" y="567" type="line" smooth="yes"/>
      <point x="203" y="626"/>
      <point x="193" y="642" type="qcurve" smooth="yes"/>
      <point x="187" y="653"/>
      <point x="148" y="670"/>
      <point x="128" y="670" type="qcurve" smooth="yes"/>
      <point x="104" y="670" type="line"/>
      <point x="104" y="688" type="line"/>
      <point x="398" y="688" type="line"/>
    </contour>
  </outline>
</glyph>
<glyph name="K" format="1">
  <advance width="751"/>
  <unicode hex="004B"/>
  <outline>
    <contour>
      <point x="760" y="0" type="line"/>
      <point x="432" y="0" type="line"/>
      <point x="432" y="19" type="line"/>
      <point x="483" y="19"/>
      <point x="488" y="51" type="qcurve" smooth="yes"/>
      <point x="490" y="68"/>
      <point x="450" y="108" type="qcurve" smooth="yes"/>
      <point x="243" y="314" type="line"/>
      <point x="213" y="284" type="line"/>
      <point x="213" y="122" type="line" smooth="yes"/>
      <point x="213" y="60"/>
      <point x="225" y="44" type="qcurve" smooth="yes"/>
      <point x="243" y="19"/>
      <point x="287" y="19" type="qcurve" smooth="yes"/>
      <point x="311" y="19" type="line"/>
      <point x="311" y="0" type="line"/>
      <point x="18" y="0" type="line"/>
      <point x="18" y="19" type="line"/>
      <point x="42" y="19" type="line" smooth="yes"/>
      <point x="85" y="19"/>
      <point x="104" y="44" type="qcurve" smooth="yes"/>
      <point x="115" y="58"/>
      <point x="115" y="122" type="qcurve" smooth="yes"/>
      <point x="115" y="567" type="line" smooth="yes"/>
      <point x="115" y="634"/>
      <point x="102" y="648" type="qcurve" smooth="yes"/>
      <point x="96" y="655"/>
      <point x="58" y="670"/>
      <point x="42" y="670" type="qcurve" smooth="yes"/>
      <point x="18" y="670" type="line"/>
      <point x="18" y="688" type="line"/>
      <point x="311" y="688" type="line"/>
      <point x="311" y="670" type="line"/>
      <point x="287" y="670" type="line" smooth="yes"/>
      <point x="250" y="670"/>
      <point x="231" y="651" type="qcurve" smooth="yes"/>
      <point x="213" y="633"/>
      <point x="213" y="567" type="qcurve" smooth="yes"/>
      <point x="213" y="351" type="line"/>
      <point x="220" y="357"/>
      <point x="255" y="389"/>
      <point x="283" y="415" type="qcurve" smooth="yes"/>
      <point x="355" y="482"/>
      <point x="445" y="576"/>
      <point x="465" y="605" type="qcurve" smooth="yes"/>
      <point x="478" y="624"/>
      <point x="478" y="641" type="qcurve" smooth="yes"/>
      <point x="478" y="670"/>
      <point x="432" y="670" type="qcurve" smooth="yes"/>
      <point x="416" y="670" type="line"/>
      <point x="416" y="688" type="line"/>
      <point x="670" y="688" type="line"/>
      <point x="670" y="670" type="line"/>
      <point x="628" y="670"/>
      <point x="584" y="642" type="qcurve" smooth="yes"/>
      <point x="568" y="632"/>
      <point x="543" y="614"/>
      <point x="532" y="603" type="qcurve" smooth="yes"/>
      <point x="416" y="487" type="line"/>
      <point x="311" y="382" type="line"/>
      <point x="565" y="129" type="line" smooth="yes"/>
      <point x="630" y="66"/>
      <point x="672" y="44" type="qcurve" smooth="yes"/>
      <point x="692" y="34"/>
      <point x="736" y="21"/>
      <point x="760" y="19" type="qcurve"/>
    </contour>
  </outline>
</glyph>
<glyph name="L" format="1">
  <advance width="635"/>
  <unicode hex="004C"/>
  <outline>
    <contour>
      <point x="614" y="187" type="line"/>
      <point x="554" y="0" type="line"/>
      <point x="19" y="0" type="line"/>
      <point x="19" y="19" type="line"/>
      <point x="70" y="19"/>
      <point x="92" y="33" type="qcurve" smooth="yes"/>
      <point x="120" y="51"/>
      <point x="120" y="105" type="qcurve" smooth="yes"/>
      <point x="120" y="583" type="line" smooth="yes"/>
      <point x="120" y="637"/>
      <point x="92" y="655" type="qcurve" smooth="yes"/>
      <point x="70" y="669"/>
      <point x="19" y="669" type="qcurve"/>
      <point x="19" y="688" type="line"/>
      <point x="318" y="688" type="line"/>
      <point x="318" y="669" type="line"/>
      <point x="267" y="669"/>
      <point x="245" y="655" type="qcurve" smooth="yes"/>
      <point x="217" y="637"/>
      <point x="217" y="583" type="qcurve" smooth="yes"/>
      <point x="217" y="130" type="line" smooth="yes"/>
      <point x="217" y="74"/>
      <point x="238" y="58" type="qcurve" smooth="yes"/>
      <point x="255" y="44"/>
      <point x="303" y="44" type="qcurve" smooth="yes"/>
      <point x="373" y="44" type="line" smooth="yes"/>
      <point x="484" y="44"/>
      <point x="519" y="74" type="qcurve" smooth="yes"/>
      <point x="562" y="111"/>
      <point x="596" y="190" type="qcurve"/>
    </contour>
  </outline>
</glyph>
<glyph name="M" format="1">
  <advance width="925"/>
  <unicode hex="004D"/>
  <outline>
    <contour>
      <point x="903" y="0" type="line"/>
      <point x="610" y="0" type="line"/>
      <point x="610" y="19" type="line"/>
      <point x="634" y="19" type="line" smooth="yes"/>
      <point x="677" y="19"/>
      <point x="697" y="46" type="qcurve" smooth="yes"/>
      <point x="708" y="63"/>
      <point x="708" y="120" type="qcurve" smooth="yes"/>
      <point x="708" y="579" type="line"/>
      <point x="442" y="0" type="line"/>
      <point x="425" y="0" type="line"/>
      <point x="159" y="579" type="line"/>
      <point x="159" y="120" type="line" smooth="yes"/>
      <point x="159" y="58"/>
      <point x="174" y="40" type="qcurve" smooth="yes"/>
      <point x="192" y="19"/>
      <point x="233" y="19" type="qcurve" smooth="yes"/>
      <point x="257" y="19" type="line"/>
      <point x="257" y="0" type="line"/>
      <point x="18" y="0" type="line"/>
      <point x="18" y="19" type="line"/>
      <point x="42" y="19" type="line" smooth="yes"/>
      <point x="84" y="19"/>
      <point x="104" y="46" type="qcurve" smooth="yes"/>
      <point x="114" y="62"/>
      <point x="114" y="120" type="qcurve" smooth="yes"/>
      <point x="114" y="569" type="line" smooth="yes"/>
      <point x="114" y="635"/>
      <point x="92" y="651" type="qcurve" smooth="yes"/>
      <point x="67" y="670"/>
      <point x="18" y="670" type="qcurve"/>
      <point x="18" y="688" type="line"/>
      <point x="212" y="688" type="line"/>
      <point x="462" y="150" type="line"/>
      <point x="708" y="688" type="line"/>
      <point x="903" y="688" type="line"/>
      <point x="903" y="670" type="line"/>
      <point x="879" y="670" type="line" smooth="yes"/>
      <point x="836" y="670"/>
      <point x="816" y="644" type="qcurve" smooth="yes"/>
      <point x="805" y="624"/>
      <point x="805" y="569" type="qcurve" smooth="yes"/>
      <point x="805" y="120" type="line" smooth="yes"/>
      <point x="805" y="56"/>
      <point x="820" y="40" type="qcurve" smooth="yes"/>
      <point x="838" y="19"/>
      <point x="879" y="19" type="qcurve" smooth="yes"/>
      <point x="903" y="19" type="line"/>
    </contour>
  </outline>
</glyph>
<glyph name="N" format="1">
  <advance width="751"/>
  <unicode hex="004E"/>
  <outline>
    <contour>
      <point x="736" y="670" type="line"/>
      <point x="712" y="670" type="line" smooth="yes"/>
      <point x="667" y="670"/>
      <point x="650" y="644" type="qcurve" smooth="yes"/>
      <point x="639" y="627"/>
      <point x="639" y="569" type="qcurve" smooth="yes"/>
      <point x="639" y="-10" type="line"/>
      <point x="621" y="-10" type="line"/>
      <point x="166" y="543" type="line"/>
      <point x="166" y="120" type="line" smooth="yes"/>
      <point x="166" y="57"/>
      <point x="180" y="40" type="qcurve" smooth="yes"/>
      <point x="198" y="19"/>
      <point x="240" y="19" type="qcurve" smooth="yes"/>
      <point x="264" y="19" type="line"/>
      <point x="264" y="0" type="line"/>
      <point x="24" y="0" type="line"/>
      <point x="24" y="19" type="line"/>
      <point x="48" y="19" type="line" smooth="yes"/>
      <point x="93" y="19"/>
      <point x="110" y="46" type="qcurve" smooth="yes"/>
      <point x="122" y="61"/>
      <point x="122" y="120" type="qcurve" smooth="yes"/>
      <point x="122" y="598" type="line"/>
      <point x="90" y="640" type="line"/>
      <point x="57" y="670"/>
      <point x="6" y="670" type="qcurve"/>
      <point x="6" y="688" type="line"/>
      <point x="174" y="688" type="line"/>
      <point x="594" y="172" type="line"/>
      <point x="594" y="569" type="line" smooth="yes"/>
      <point x="594" y="632"/>
      <point x="580" y="648" type="qcurve" smooth="yes"/>
      <point x="561" y="670"/>
      <point x="520" y="670" type="qcurve" smooth="yes"/>
      <point x="497" y="670" type="line"/>
      <point x="497" y="688" type="line"/>
      <point x="736" y="688" type="line"/>
    </contour>
  </outline>
</glyph>
<glyph name="O" format="1">
  <advance width="751"/>
  <unicode hex="004F"/>
  <outline>
    <contour>
      <point x="710" y="348" type="qcurve" smooth="yes"/>
      <point x="710" y="191"/>
      <point x="613" y="88" type="qcurve" smooth="yes"/>
      <point x="516" y="-15"/>
      <point x="372" y="-15" type="qcurve" smooth="yes"/>
      <point x="227" y="-15"/>
      <point x="134" y="84" type="qcurve" smooth="yes"/>
      <point x="36" y="188"/>
      <point x="36" y="346" type="qcurve" smooth="yes"/>
      <point x="36" y="500"/>
      <point x="135" y="602" type="qcurve" smooth="yes"/>
      <point x="234" y="704"/>
      <point x="381" y="704" type="qcurve" smooth="yes"/>
      <point x="518" y="704"/>
      <point x="614" y="602" type="qcurve" smooth="yes"/>
      <point x="710" y="501"/>
    </contour>
    <contour>
      <point x="595" y="335" type="qcurve" smooth="yes"/>
      <point x="596" y="496"/>
      <point x="482" y="667"/>
      <point x="370" y="668" type="qcurve" smooth="yes"/>
      <point x="319" y="668"/>
      <point x="238" y="625"/>
      <point x="182" y="542"/>
      <point x="153" y="424"/>
      <point x="153" y="349" type="qcurve" smooth="yes"/>
      <point x="153" y="201"/>
      <point x="209" y="112" type="qcurve" smooth="yes"/>
      <point x="267" y="22"/>
      <point x="371" y="20" type="qcurve" smooth="yes"/>
      <point x="473" y="19"/>
      <point x="532" y="96" type="qcurve" smooth="yes"/>
      <point x="594" y="179"/>
    </contour>
  </outline>
</glyph>
<glyph name="P" format="1">
  <advance width="578"/>
  <unicode hex="0050"/>
  <outline>
    <contour>
      <point x="542" y="498" type="qcurve" smooth="yes"/>
      <point x="542" y="307"/>
      <point x="301" y="308" type="qcurve" smooth="yes"/>
      <point x="292" y="308"/>
      <point x="248" y="311"/>
      <point x="213" y="313" type="qcurve"/>
      <point x="213" y="122" type="line" smooth="yes"/>
      <point x="213" y="55"/>
      <point x="228" y="42" type="qcurve" smooth="yes"/>
      <point x="246" y="19"/>
      <point x="286" y="19" type="qcurve" smooth="yes"/>
      <point x="312" y="19" type="line"/>
      <point x="312" y="0" type="line"/>
      <point x="18" y="0" type="line"/>
      <point x="18" y="19" type="line"/>
      <point x="43" y="19" type="line" smooth="yes"/>
      <point x="89" y="19"/>
      <point x="105" y="47" type="qcurve" smooth="yes"/>
      <point x="115" y="63"/>
      <point x="115" y="122" type="qcurve" smooth="yes"/>
      <point x="115" y="567" type="line" smooth="yes"/>
      <point x="115" y="632"/>
      <point x="102" y="648" type="qcurve" smooth="yes"/>
      <point x="83" y="670"/>
      <point x="43" y="670" type="qcurve" smooth="yes"/>
      <point x="18" y="670" type="line"/>
      <point x="18" y="688" type="line"/>
      <point x="269" y="688" type="line" smooth="yes"/>
      <point x="407" y="688"/>
      <point x="463" y="645" type="qcurve" smooth="yes"/>
      <point x="542" y="587"/>
    </contour>
    <contour>
      <point x="426" y="488" type="qcurve" smooth="yes"/>
      <point x="427" y="555"/>
      <point x="390" y="600" type="qcurve" smooth="yes"/>
      <point x="349" y="648"/>
      <point x="280" y="648" type="qcurve" smooth="yes"/>
      <point x="256" y="648"/>
      <point x="213" y="638" type="qcurve"/>
      <point x="213" y="347" type="line"/>
      <point x="255" y="341"/>
      <point x="296" y="341" type="qcurve" smooth="yes"/>
      <point x="323" y="341"/>
      <point x="370" y="362"/>
      <point x="405" y="401"/>
      <point x="426" y="455"/>
    </contour>
  </outline>
</glyph>
<glyph name="Q" format="1">
  <advance width="751"/>
  <unicode hex="0051"/>
  <outline>
    <contour>
      <point x="711" y="344" type="qcurve" smooth="yes"/>
      <point x="711" y="219"/>
      <point x="642" y="123" type="qcurve" smooth="yes"/>
      <point x="607" y="75"/>
      <point x="516" y="11"/>
      <point x="458" y="-6" type="qcurve"/>
      <point x="555" y="-174"/>
      <point x="707" y="-186" type="qcurve"/>
      <point x="707" y="-203" type="line"/>
      <point x="591" y="-199"/>
      <point x="467" y="-138" type="qcurve" smooth="yes"/>
      <point x="354" y="-83"/>
      <point x="283" y="-6" type="qcurve"/>
      <point x="36" y="79"/>
      <point x="36" y="345" type="qcurve" smooth="yes"/>
      <point x="36" y="499"/>
      <point x="134" y="602" type="qcurve" smooth="yes"/>
      <point x="233" y="704"/>
      <point x="379" y="704" type="qcurve" smooth="yes"/>
      <point x="518" y="704"/>
      <point x="614" y="602" type="qcurve" smooth="yes"/>
      <point x="711" y="501"/>
    </contour>
    <contour>
      <point x="595" y="331" type="qcurve" smooth="yes"/>
      <point x="595" y="409"/>
      <point x="566" y="533"/>
      <point x="509" y="620"/>
      <point x="426" y="666"/>
      <point x="372" y="666" type="qcurve" smooth="yes"/>
      <point x="269" y="666"/>
      <point x="153" y="501"/>
      <point x="153" y="345" type="qcurve" smooth="yes"/>
      <point x="153" y="198"/>
      <point x="209" y="110" type="qcurve" smooth="yes"/>
      <point x="267" y="21"/>
      <point x="372" y="19" type="qcurve" smooth="yes"/>
      <point x="425" y="19"/>
      <point x="508" y="61"/>
      <point x="565" y="141"/>
      <point x="595" y="257"/>
    </contour>
  </outline>
</glyph>
<glyph name="R" format="1">
  <advance width="694"/>
  <unicode hex="0052"/>
  <outline>
    <contour>
      <point x="703" y="0" type="line"/>
      <point x="519" y="0" type="line"/>
      <point x="286" y="322" type="line"/>
      <point x="230" y="319"/>
      <point x="213" y="322" type="qcurve"/>
      <point x="213" y="122" type="line" smooth="yes"/>
      <point x="213" y="57"/>
      <point x="228" y="42" type="qcurve" smooth="yes"/>
      <point x="246" y="19"/>
      <point x="286" y="19" type="qcurve" smooth="yes"/>
      <point x="313" y="19" type="line"/>
      <point x="313" y="0" type="line"/>
      <point x="18" y="0" type="line"/>
      <point x="18" y="19" type="line"/>
      <point x="44" y="19" type="line" smooth="yes"/>
      <point x="88" y="19"/>
      <point x="106" y="47" type="qcurve" smooth="yes"/>
      <point x="116" y="61"/>
      <point x="116" y="122" type="qcurve" smooth="yes"/>
      <point x="116" y="567" type="line" smooth="yes"/>
      <point x="116" y="632"/>
      <point x="103" y="648" type="qcurve" smooth="yes"/>
      <point x="81" y="670"/>
      <point x="44" y="670" type="qcurve" smooth="yes"/>
      <point x="18" y="670" type="line"/>
      <point x="18" y="688" type="line"/>
      <point x="268" y="688" type="line" smooth="yes"/>
      <point x="383" y="688"/>
      <point x="431" y="672" type="qcurve" smooth="yes"/>
      <point x="485" y="655"/>
      <point x="520" y="613" type="qcurve" smooth="yes"/>
      <point x="555" y="569"/>
      <point x="555" y="512" type="qcurve" smooth="yes"/>
      <point x="555" y="372"/>
      <point x="386" y="335" type="qcurve"/>
      <point x="527" y="137" type="line" smooth="yes"/>
      <point x="573" y="73"/>
      <point x="609" y="49" type="qcurve" smooth="yes"/>
      <point x="645" y="25"/>
      <point x="703" y="19" type="qcurve"/>
    </contour>
    <contour>
      <point x="441" y="504" type="qcurve" smooth="yes"/>
      <point x="441" y="570"/>
      <point x="360" y="649"/>
      <point x="293" y="650" type="qcurve" smooth="yes"/>
      <point x="268" y="650"/>
      <point x="213" y="641" type="qcurve"/>
      <point x="213" y="354" type="line"/>
      <point x="242" y="354" type="line" smooth="yes"/>
      <point x="339" y="354"/>
      <point x="392" y="396" type="qcurve" smooth="yes"/>
      <point x="441" y="436"/>
    </contour>
  </outline>
</glyph>
<glyph name="S" format="1">
  <advance width="578"/>
  <unicode hex="0053"/>
  <outline>
    <contour>
      <point x="523" y="176" type="qcurve" smooth="yes"/>
      <point x="523" y="96"/>
      <point x="461" y="40" type="qcurve" smooth="yes"/>
      <point x="400" y="-15"/>
      <point x="306" y="-15" type="qcurve" smooth="yes"/>
      <point x="278" y="-15"/>
      <point x="221" y="-5"/>
      <point x="190" y="4" type="qcurve" smooth="yes"/>
      <point x="128" y="24"/>
      <point x="121" y="24" type="qcurve" smooth="yes"/>
      <point x="96" y="24"/>
      <point x="90" y="-15" type="qcurve"/>
      <point x="72" y="-15" type="line"/>
      <point x="72" y="220" type="line"/>
      <point x="90" y="220" type="line"/>
      <point x="102" y="120"/>
      <point x="162" y="69" type="qcurve" smooth="yes"/>
      <point x="214" y="24"/>
      <point x="295" y="24" type="qcurve" smooth="yes"/>
      <point x="357" y="24"/>
      <point x="395" y="58" type="qcurve" smooth="yes"/>
      <point x="432" y="89"/>
      <point x="432" y="136" type="qcurve" smooth="yes"/>
      <point x="432" y="184"/>
      <point x="394" y="219" type="qcurve" smooth="yes"/>
      <point x="380" y="232"/>
      <point x="316" y="273"/>
      <point x="266" y="301" type="qcurve" smooth="yes"/>
      <point x="146" y="367"/>
      <point x="105" y="415" type="qcurve" smooth="yes"/>
      <point x="66" y="458"/>
      <point x="66" y="523" type="qcurve" smooth="yes"/>
      <point x="66" y="599"/>
      <point x="121" y="651" type="qcurve" smooth="yes"/>
      <point x="177" y="704"/>
      <point x="266" y="704" type="qcurve" smooth="yes"/>
      <point x="311" y="704"/>
      <point x="365" y="684" type="qcurve" smooth="yes"/>
      <point x="416" y="665"/>
      <point x="425" y="665" type="qcurve" smooth="yes"/>
      <point x="447" y="665"/>
      <point x="458" y="704" type="qcurve"/>
      <point x="477" y="704" type="line"/>
      <point x="477" y="466" type="line"/>
      <point x="458" y="466" type="line"/>
      <point x="453" y="513"/>
      <point x="421" y="586"/>
      <point x="370" y="637"/>
      <point x="304" y="664"/>
      <point x="267" y="664" type="qcurve" smooth="yes"/>
      <point x="218" y="664"/>
      <point x="181" y="632" type="qcurve" smooth="yes"/>
      <point x="146" y="600"/>
      <point x="146" y="558" type="qcurve" smooth="yes"/>
      <point x="146" y="517"/>
      <point x="180" y="486" type="qcurve" smooth="yes"/>
      <point x="214" y="455"/>
      <point x="317" y="399" type="qcurve" smooth="yes"/>
      <point x="363" y="374"/>
      <point x="429" y="335"/>
      <point x="449" y="319" type="qcurve" smooth="yes"/>
      <point x="523" y="263"/>
    </contour>
  </outline>
</glyph>
<glyph name="T" format="1">
  <advance width="633"/>
  <unicode hex="0054"/>
  <outline>
    <contour>
      <point x="609" y="527" type="line"/>
      <point x="587" y="527" type="line"/>
      <point x="581" y="584"/>
      <point x="555" y="612" type="qcurve" smooth="yes"/>
      <point x="522" y="646"/>
      <point x="461" y="646" type="qcurve" smooth="yes"/>
      <point x="364" y="646" type="line"/>
      <point x="364" y="120" type="line" smooth="yes"/>
      <point x="364" y="57"/>
      <point x="378" y="40" type="qcurve" smooth="yes"/>
      <point x="396" y="19"/>
      <point x="437" y="19" type="qcurve" smooth="yes"/>
      <point x="461" y="19" type="line"/>
      <point x="461" y="0" type="line"/>
      <point x="169" y="0" type="line"/>
      <point x="169" y="19" type="line"/>
      <point x="194" y="19" type="line" smooth="yes"/>
      <point x="236" y="19"/>
      <point x="256" y="46" type="qcurve" smooth="yes"/>
      <point x="266" y="62"/>
      <point x="266" y="120" type="qcurve" smooth="yes"/>
      <point x="266" y="646" type="line"/>
      <point x="184" y="646" type="line" smooth="yes"/>
      <point x="116" y="646"/>
      <point x="91" y="624" type="qcurve" smooth="yes"/>
      <point x="54" y="597"/>
      <point x="48" y="527" type="qcurve"/>
      <point x="25" y="527" type="line"/>
      <point x="32" y="688" type="line"/>
      <point x="603" y="688" type="line"/>
    </contour>
  </outline>
</glyph>
<glyph name="V" format="1">
  <advance width="751"/>
  <unicode hex="0056"/>
  <outline>
    <contour>
      <point x="738" y="670" type="line"/>
      <point x="697" y="662"/>
      <point x="673" y="637" type="qcurve" smooth="yes"/>
      <point x="653" y="615"/>
      <point x="635" y="571" type="qcurve" smooth="yes"/>
      <point x="395" y="-15" type="line"/>
      <point x="376" y="-15" type="line"/>
      <point x="119" y="578" type="line" smooth="yes"/>
      <point x="97" y="630"/>
      <point x="74" y="648" type="qcurve" smooth="yes"/>
      <point x="52" y="666"/>
      <point x="9" y="670" type="qcurve"/>
      <point x="9" y="688" type="line"/>
      <point x="290" y="688" type="line"/>
      <point x="290" y="670" type="line"/>
      <point x="233" y="664"/>
      <point x="220" y="645" type="qcurve" smooth="yes"/>
      <point x="214" y="636"/>
      <point x="214" y="622" type="qcurve" smooth="yes"/>
      <point x="214" y="598"/>
      <point x="237" y="544" type="qcurve" smooth="yes"/>
      <point x="413" y="140" type="line"/>
      <point x="575" y="540" type="line" smooth="yes"/>
      <point x="599" y="598"/>
      <point x="599" y="619" type="qcurve" smooth="yes"/>
      <point x="599" y="630"/>
      <point x="594" y="638" type="qcurve" smooth="yes"/>
      <point x="581" y="660"/>
      <point x="526" y="670" type="qcurve"/>
      <point x="526" y="688" type="line"/>
      <point x="738" y="688" type="line"/>
    </contour>
  </outline>
</glyph>
<glyph name="W" format="1">
  <advance width="982"/>
  <unicode hex="0057"/>
  <outline>
    <contour>
      <point x="973" y="670" type="line"/>
      <point x="923" y="670"/>
      <point x="898" y="624" type="qcurve" smooth="yes"/>
      <point x="887" y="604"/>
      <point x="865" y="540" type="qcurve" smooth="yes"/>
      <point x="674" y="-15" type="line"/>
      <point x="653" y="-15" type="line"/>
      <point x="497" y="424" type="line"/>
      <point x="341" y="-15" type="line"/>
      <point x="322" y="-15" type="line"/>
      <point x="118" y="556" type="line" smooth="yes"/>
      <point x="87" y="640"/>
      <point x="76" y="648" type="qcurve" smooth="yes"/>
      <point x="58" y="670"/>
      <point x="14" y="670" type="qcurve"/>
      <point x="14" y="688" type="line"/>
      <point x="268" y="688" type="line"/>
      <point x="268" y="670" type="line"/>
      <point x="256" y="670" type="line" smooth="yes"/>
      <point x="219" y="670"/>
      <point x="207" y="647" type="qcurve" smooth="yes"/>
      <point x="202" y="637"/>
      <point x="202" y="629" type="qcurve" smooth="yes"/>
      <point x="202" y="611"/>
      <point x="224" y="547" type="qcurve" smooth="yes"/>
      <point x="359" y="160" type="line"/>
      <point x="473" y="489" type="line"/>
      <point x="467" y="509"/>
      <point x="455" y="544"/>
      <point x="449" y="560" type="qcurve" smooth="yes"/>
      <point x="420" y="634"/>
      <point x="398" y="652" type="qcurve" smooth="yes"/>
      <point x="375" y="670"/>
      <point x="341" y="670" type="qcurve"/>
      <point x="341" y="688" type="line"/>
      <point x="609" y="688" type="line"/>
      <point x="609" y="670" type="line"/>
      <point x="591" y="670" type="line" smooth="yes"/>
      <point x="536" y="670"/>
      <point x="536" y="625" type="qcurve" smooth="yes"/>
      <point x="536" y="595"/>
      <point x="558" y="535" type="qcurve" smooth="yes"/>
      <point x="691" y="160" type="line"/>
      <point x="822" y="540" type="line" smooth="yes"/>
      <point x="843" y="601"/>
      <point x="843" y="623" type="qcurve" smooth="yes"/>
      <point x="843" y="670"/>
      <point x="768" y="670" type="qcurve"/>
      <point x="768" y="688" type="line"/>
      <point x="973" y="688" type="line"/>
    </contour>
  </outline>
</glyph>
<glyph name="X" format="1">
  <advance width="751"/>
  <unicode hex="0058"/>
  <outline>
    <contour>
      <point x="738" y="0" type="line"/>
      <point x="443" y="0" type="line"/>
      <point x="443" y="19" type="line"/>
      <point x="491" y="19"/>
      <point x="504" y="38" type="qcurve" smooth="yes"/>
      <point x="512" y="49"/>
      <point x="512" y="58" type="qcurve" smooth="yes"/>
      <point x="512" y="74"/>
      <point x="478" y="126" type="qcurve" smooth="yes"/>
      <point x="362" y="303" type="line"/>
      <point x="217" y="118" type="line" smooth="yes"/>
      <point x="186" y="78"/>
      <point x="186" y="58" type="qcurve" smooth="yes"/>
      <point x="186" y="20"/>
      <point x="252" y="19" type="qcurve"/>
      <point x="252" y="0" type="line"/>
      <point x="7" y="0" type="line"/>
      <point x="7" y="19" type="line"/>
      <point x="88" y="22"/>
      <point x="177" y="133" type="qcurve" smooth="yes"/>
      <point x="340" y="339" type="line"/>
      <point x="204" y="538" type="line" smooth="yes"/>
      <point x="154" y="611"/>
      <point x="112" y="641" type="qcurve" smooth="yes"/>
      <point x="74" y="667"/>
      <point x="22" y="670" type="qcurve"/>
      <point x="22" y="688" type="line"/>
      <point x="340" y="688" type="line"/>
      <point x="340" y="670" type="line"/>
      <point x="301" y="669"/>
      <point x="269" y="644"/>
      <point x="269" y="630" type="qcurve" smooth="yes"/>
      <point x="269" y="612"/>
      <point x="293" y="576" type="qcurve" smooth="yes"/>
      <point x="399" y="418" type="line"/>
      <point x="521" y="573" type="line" smooth="yes"/>
      <point x="553" y="614"/>
      <point x="553" y="633" type="qcurve" smooth="yes"/>
      <point x="553" y="642"/>
      <point x="547" y="650" type="qcurve" smooth="yes"/>
      <point x="534" y="668"/>
      <point x="478" y="670" type="qcurve"/>
      <point x="478" y="688" type="line"/>
      <point x="723" y="688" type="line"/>
      <point x="723" y="670" type="line"/>
      <point x="672" y="667"/>
      <point x="637" y="640" type="qcurve" smooth="yes"/>
      <point x="626" y="630"/>
      <point x="588" y="588"/>
      <point x="562" y="556" type="qcurve" smooth="yes"/>
      <point x="424" y="382" type="line"/>
      <point x="572" y="161" type="line" smooth="yes"/>
      <point x="632" y="72"/>
      <point x="662" y="47" type="qcurve" smooth="yes"/>
      <point x="691" y="22"/>
      <point x="738" y="19" type="qcurve"/>
    </contour>
  </outline>
</glyph>
<glyph name="Z" format="1">
  <advance width="635"/>
  <unicode hex="005A"/>
  <outline>
    <contour>
      <point x="606" y="182" type="line"/>
      <point x="574" y="0" type="line"/>
      <point x="14" y="0" type="line"/>
      <point x="14" y="19" type="line"/>
      <point x="454" y="648" type="line"/>
      <point x="235" y="648" type="line" smooth="yes"/>
      <point x="164" y="648"/>
      <point x="136" y="623" type="qcurve" smooth="yes"/>
      <point x="108" y="599"/>
      <point x="94" y="516" type="qcurve"/>
      <point x="75" y="516" type="line"/>
      <point x="89" y="688" type="line"/>
      <point x="598" y="688" type="line"/>
      <point x="146" y="42" type="line"/>
      <point x="428" y="42" type="line" smooth="yes"/>
      <point x="500" y="42"/>
      <point x="537" y="79" type="qcurve" smooth="yes"/>
      <point x="551" y="93"/>
      <point x="577" y="147"/>
      <point x="590" y="185" type="qcurve"/>
    </contour>
  </outline>
</glyph>
<glyph name="bracketleft" format="1">
  <advance width="346"/>
  <unicode hex="005B"/>
  <outline>
    <contour>
      <point x="308" y="-205" type="line"/>
      <point x="84" y="-205" type="line"/>
      <point x="84" y="704" type="line"/>
      <point x="308" y="704" type="line"/>
      <point x="308" y="665" type="line"/>
      <point x="160" y="665" type="line"/>
      <point x="160" y="-165" type="line"/>
      <point x="308" y="-165" type="line"/>
    </contour>
  </outline>
</glyph>
<glyph name="backslash" format="1">
  <advance width="289"/>
  <unicode hex="005C"/>
  <outline>
    <contour>
      <point x="293" y="-14" type="line"/>
      <point x="251" y="-14" type="line"/>
      <point x="1" y="722" type="line"/>
      <point x="45" y="722" type="line"/>
    </contour>
  </outline>
</glyph>
<glyph name="bracketright" format="1">
  <advance width="346"/>
  <unicode hex="005D"/>
  <outline>
    <contour>
      <point x="262" y="-206" type="line"/>
      <point x="39" y="-206" type="line"/>
      <point x="39" y="-165" type="line"/>
      <point x="186" y="-165" type="line"/>
      <point x="186" y="665" type="line"/>
      <point x="39" y="665" type="line"/>
      <point x="39" y="704" type="line"/>
      <point x="262" y="704" type="line"/>
    </contour>
  </outline>
</glyph>
<glyph name="asciicircum" format="1">
  <advance width="1000"/>
  <unicode hex="005E"/>
  <outline>
    <contour>
      <point x="761" y="10" type="line"/>
      <point x="699" y="10" type="line"/>
      <point x="500" y="546" type="line"/>
      <point x="301" y="10" type="line"/>
      <point x="239" y="10" type="line"/>
      <point x="469" y="610" type="line"/>
      <point x="531" y="610" type="line"/>
    </contour>
  </outline>
</glyph>
<glyph name="grave" format="1">
  <advance width="390"/>
  <unicode hex="0060"/>
  <outline>
    <contour>
      <point x="237" y="529" type="line"/>
      <point x="195" y="529" type="line"/>
      <point x="45" y="624" type="line" smooth="yes"/>
      <point x="0" y="652"/>
      <point x="0" y="669" type="qcurve" smooth="yes"/>
      <point x="0" y="708"/>
      <point x="32" y="708" type="qcurve" smooth="yes"/>
      <point x="59" y="708"/>
      <point x="93" y="674" type="qcurve" smooth="yes"/>
    </contour>
  </outline>
</glyph>
<glyph name="b" format="1">
  <advance width="520"/>
  <unicode hex="0062"/>
  <outline>
    <contour>
      <point x="484" y="251" type="qcurve" smooth="yes"/>
      <point x="484" y="138"/>
      <point x="413" y="61" type="qcurve" smooth="yes"/>
      <point x="344" y="-14"/>
      <point x="244" y="-14" type="qcurve" smooth="yes"/>
      <point x="162" y="-14"/>
      <point x="75" y="45" type="qcurve"/>
      <point x="75" y="526" type="line" smooth="yes"/>
      <point x="75" y="600"/>
      <point x="72" y="623" type="qcurve" smooth="yes"/>
      <point x="69" y="642"/>
      <point x="59" y="649" type="qcurve" smooth="yes"/>
      <point x="45" y="661"/>
      <point x="3" y="648" type="qcurve"/>
      <point x="-3" y="666" type="line"/>
      <point x="136" y="722" type="line"/>
      <point x="160" y="722" type="line"/>
      <point x="160" y="385" type="line"/>
      <point x="227" y="478"/>
      <point x="306" y="478" type="qcurve" smooth="yes"/>
      <point x="380" y="478"/>
      <point x="431" y="418" type="qcurve" smooth="yes"/>
      <point x="484" y="353"/>
    </contour>
    <contour>
      <point x="396" y="222" type="qcurve" smooth="yes"/>
      <point x="396" y="264"/>
      <point x="376" y="333"/>
      <point x="340" y="381"/>
      <point x="292" y="407"/>
      <point x="265" y="407" type="qcurve" smooth="yes"/>
      <point x="217" y="407"/>
      <point x="160" y="353" type="qcurve"/>
      <point x="160" y="74" type="line"/>
      <point x="211" y="23"/>
      <point x="270" y="23" type="qcurve" smooth="yes"/>
      <point x="318" y="23"/>
      <point x="356" y="73" type="qcurve" smooth="yes"/>
      <point x="396" y="128"/>
    </contour>
  </outline>
</glyph>
<glyph name="c" format="1">
  <advance width="462"/>
  <unicode hex="0063"/>
  <outline>
    <contour>
      <point x="427" y="177" type="line"/>
      <point x="413" y="93"/>
      <point x="358" y="39" type="qcurve" smooth="yes"/>
      <point x="304" y="-14"/>
      <point x="233" y="-14" type="qcurve" smooth="yes"/>
      <point x="149" y="-14"/>
      <point x="92" y="53" type="qcurve" smooth="yes"/>
      <point x="35" y="120"/>
      <point x="35" y="232" type="qcurve" smooth="yes"/>
      <point x="35" y="339"/>
      <point x="101" y="410" type="qcurve" smooth="yes"/>
      <point x="164" y="478"/>
      <point x="257" y="478" type="qcurve" smooth="yes"/>
      <point x="310" y="478"/>
      <point x="359" y="450" type="qcurve" smooth="yes"/>
      <point x="415" y="417"/>
      <point x="415" y="367" type="qcurve" smooth="yes"/>
      <point x="415" y="324"/>
      <point x="367" y="324" type="qcurve" smooth="yes"/>
      <point x="315" y="324"/>
      <point x="311" y="384" type="qcurve" smooth="yes"/>
      <point x="307" y="445"/>
      <point x="240" y="445" type="qcurve" smooth="yes"/>
      <point x="212" y="445"/>
      <point x="167" y="420"/>
      <point x="135" y="375"/>
      <point x="118" y="313"/>
      <point x="118" y="276" type="qcurve" smooth="yes"/>
      <point x="118" y="188"/>
      <point x="157" y="130" type="qcurve" smooth="yes"/>
      <point x="199" y="66"/>
      <point x="269" y="66" type="qcurve" smooth="yes"/>
      <point x="364" y="66"/>
      <point x="413" y="184" type="qcurve"/>
    </contour>
  </outline>
</glyph>
<glyph name="d" format="1">
  <advance width="520"/>
  <unicode hex="0064"/>
  <outline>
    <contour>
      <point x="524" y="43" type="line"/>
      <point x="384" y="-14" type="line"/>
      <point x="361" y="-14" type="line"/>
      <point x="361" y="52" type="line"/>
      <point x="298" y="-14"/>
      <point x="225" y="-14" type="qcurve" smooth="yes"/>
      <point x="145" y="-14"/>
      <point x="90" y="50" type="qcurve" smooth="yes"/>
      <point x="34" y="115"/>
      <point x="34" y="213" type="qcurve" smooth="yes"/>
      <point x="34" y="312"/>
      <point x="93" y="391" type="qcurve" smooth="yes"/>
      <point x="157" y="477"/>
      <point x="260" y="479" type="qcurve" smooth="yes"/>
      <point x="322" y="479"/>
      <point x="361" y="440" type="qcurve"/>
      <point x="361" y="526" type="line" smooth="yes"/>
      <point x="361" y="602"/>
      <point x="357" y="622" type="qcurve" smooth="yes"/>
      <point x="355" y="638"/>
      <point x="345" y="649" type="qcurve" smooth="yes"/>
      <point x="332" y="662"/>
      <point x="290" y="648" type="qcurve"/>
      <point x="283" y="666" type="line"/>
      <point x="423" y="722" type="line"/>
      <point x="446" y="722" type="line"/>
      <point x="446" y="184" type="line" smooth="yes"/>
      <point x="446" y="146"/>
      <point x="446" y="98"/>
      <point x="448" y="87" type="qcurve" smooth="yes"/>
      <point x="449" y="77"/>
      <point x="457" y="63"/>
      <point x="462" y="59" type="qcurve" smooth="yes"/>
      <point x="478" y="46"/>
      <point x="518" y="61" type="qcurve"/>
    </contour>
    <contour>
      <point x="361" y="88" type="qcurve"/>
      <point x="361" y="328" type="line" smooth="yes"/>
      <point x="361" y="372"/>
      <point x="333" y="407" type="qcurve" smooth="yes"/>
      <point x="301" y="446"/>
      <point x="254" y="448" type="qcurve" smooth="yes"/>
      <point x="201" y="450"/>
      <point x="165" y="397" type="qcurve" smooth="yes"/>
      <point x="128" y="342"/>
      <point x="128" y="254" type="qcurve" smooth="yes"/>
      <point x="128" y="151"/>
      <point x="175" y="92" type="qcurve" smooth="yes"/>
      <point x="215" y="44"/>
      <point x="271" y="42" type="qcurve" smooth="yes"/>
      <point x="318" y="42"/>
    </contour>
  </outline>
</glyph>
<glyph name="f" format="1">
  <advance width="346"/>
  <unicode hex="0066"/>
  <outline>
    <contour>
      <point x="452" y="635" type="qcurve" smooth="yes"/>
      <point x="452" y="621"/>
      <point x="427" y="593"/>
      <point x="411" y="593" type="qcurve" smooth="yes"/>
      <point x="385" y="593"/>
      <point x="354" y="638" type="qcurve" smooth="yes"/>
      <point x="321" y="684"/>
      <point x="284" y="684" type="qcurve" smooth="yes"/>
      <point x="239" y="684"/>
      <point x="225" y="640" type="qcurve" smooth="yes"/>
      <point x="214" y="604"/>
      <point x="214" y="498" type="qcurve" smooth="yes"/>
      <point x="214" y="465" type="line"/>
      <point x="334" y="465" type="line"/>
      <point x="334" y="428" type="line"/>
      <point x="214" y="428" type="line"/>
      <point x="214" y="123" type="line" smooth="yes"/>
      <point x="214" y="56"/>
      <point x="229" y="41" type="qcurve" smooth="yes"/>
      <point x="245" y="19"/>
      <point x="279" y="19" type="qcurve" smooth="yes"/>
      <point x="321" y="19" type="line"/>
      <point x="321" y="0" type="line"/>
      <point x="41" y="0" type="line"/>
      <point x="41" y="19" type="line"/>
      <point x="62" y="19" type="line" smooth="yes"/>
      <point x="89" y="19"/>
      <point x="109" y="36" type="qcurve" smooth="yes"/>
      <point x="129" y="53"/>
      <point x="129" y="123" type="qcurve" smooth="yes"/>
      <point x="129" y="428" type="line"/>
      <point x="38" y="428" type="line"/>
      <point x="38" y="465" type="line"/>
      <point x="129" y="465" type="line"/>
      <point x="129" y="496" type="line" smooth="yes"/>
      <point x="129" y="629"/>
      <point x="215" y="688" type="qcurve" smooth="yes"/>
      <point x="264" y="722"/>
      <point x="324" y="722" type="qcurve" smooth="yes"/>
      <point x="370" y="722"/>
      <point x="411" y="695" type="qcurve" smooth="yes"/>
      <point x="452" y="669"/>
    </contour>
  </outline>
</glyph>
<glyph name="g" format="1">
  <advance width="520"/>
  <unicode hex="0067"/>
  <outline>
    <contour>
      <point x="501" y="424" type="qcurve" smooth="yes"/>
      <point x="501" y="409"/>
      <point x="490" y="400"/>
      <point x="468" y="400" type="qcurve" smooth="yes"/>
      <point x="408" y="400" type="line"/>
      <point x="436" y="363"/>
      <point x="436" y="307" type="qcurve" smooth="yes"/>
      <point x="438" y="241"/>
      <point x="388" y="197" type="qcurve" smooth="yes"/>
      <point x="336" y="150"/>
      <point x="253" y="150" type="qcurve" smooth="yes"/>
      <point x="215" y="150"/>
      <point x="182" y="160" type="qcurve"/>
      <point x="144" y="131"/>
      <point x="144" y="103" type="qcurve" smooth="yes"/>
      <point x="144" y="91"/>
      <point x="153" y="84" type="qcurve" smooth="yes"/>
      <point x="163" y="76"/>
      <point x="191" y="73" type="qcurve" smooth="yes"/>
      <point x="221" y="70"/>
      <point x="333" y="67" type="qcurve" smooth="yes"/>
      <point x="495" y="62"/>
      <point x="495" y="-42" type="qcurve" smooth="yes"/>
      <point x="495" y="-114"/>
      <point x="421" y="-168" type="qcurve" smooth="yes"/>
      <point x="342" y="-224"/>
      <point x="235" y="-224" type="qcurve" smooth="yes"/>
      <point x="157" y="-224"/>
      <point x="94" y="-193" type="qcurve" smooth="yes"/>
      <point x="31" y="-163"/>
      <point x="31" y="-127" type="qcurve" smooth="yes"/>
      <point x="31" y="-88"/>
      <point x="124" y="4" type="qcurve"/>
      <point x="76" y="35"/>
      <point x="76" y="60" type="qcurve" smooth="yes"/>
      <point x="76" y="101"/>
      <point x="157" y="170" type="qcurve"/>
      <point x="115" y="189"/>
      <point x="69" y="266"/>
      <point x="69" y="311" type="qcurve" smooth="yes"/>
      <point x="69" y="378"/>
      <point x="119" y="428" type="qcurve" smooth="yes"/>
      <point x="171" y="478"/>
      <point x="254" y="478" type="qcurve" smooth="yes"/>
      <point x="275" y="478"/>
      <point x="320" y="468"/>
      <point x="344" y="460" type="qcurve" smooth="yes"/>
      <point x="391" y="443"/>
      <point x="423" y="443" type="qcurve" smooth="yes"/>
      <point x="431" y="443"/>
      <point x="453" y="444"/>
      <point x="467" y="445" type="qcurve" smooth="yes"/>
      <point x="475" y="446"/>
      <point x="489" y="445"/>
      <point x="494" y="444" type="qcurve" smooth="yes"/>
      <point x="501" y="443"/>
    </contour>
    <contour>
      <point x="346" y="294" type="qcurve" smooth="yes"/>
      <point x="346" y="366"/>
      <point x="293" y="454"/>
      <point x="245" y="454" type="qcurve" smooth="yes"/>
      <point x="206" y="454"/>
      <point x="183" y="425" type="qcurve" smooth="yes"/>
      <point x="157" y="393"/>
      <point x="157" y="333" type="qcurve" smooth="yes"/>
      <point x="157" y="261"/>
      <point x="211" y="175"/>
      <point x="259" y="175" type="qcurve" smooth="yes"/>
      <point x="346" y="175"/>
    </contour>
    <contour>
      <point x="458" y="-61" type="qcurve" smooth="yes"/>
      <point x="458" y="-28"/>
      <point x="408" y="-17" type="qcurve" smooth="yes"/>
      <point x="398" y="-15"/>
      <point x="359" y="-11"/>
      <point x="328" y="-10" type="qcurve" smooth="yes"/>
      <point x="294" y="-8"/>
      <point x="207" y="-4"/>
      <point x="152" y="0" type="qcurve"/>
      <point x="104" y="-53"/>
      <point x="104" y="-88" type="qcurve" smooth="yes"/>
      <point x="104" y="-104"/>
      <point x="130" y="-131"/>
      <point x="176" y="-151"/>
      <point x="241" y="-162"/>
      <point x="280" y="-162" type="qcurve" smooth="yes"/>
      <point x="364" y="-162"/>
      <point x="414" y="-130" type="qcurve" smooth="yes"/>
      <point x="458" y="-101"/>
    </contour>
  </outline>
</glyph>
<glyph name="h" format="1">
  <advance width="520"/>
  <unicode hex="0068"/>
  <outline>
    <contour>
      <point x="515" y="0" type="line"/>
      <point x="285" y="0" type="line"/>
      <point x="285" y="19" type="line"/>
      <point x="307" y="19"/>
      <point x="337" y="25"/>
      <point x="353" y="42"/>
      <point x="360" y="71"/>
      <point x="360" y="95" type="qcurve" smooth="yes"/>
      <point x="360" y="269" type="line" smooth="yes"/>
      <point x="360" y="342"/>
      <point x="353" y="366" type="qcurve" smooth="yes"/>
      <point x="338" y="417"/>
      <point x="285" y="417" type="qcurve" smooth="yes"/>
      <point x="228" y="417"/>
      <point x="170" y="350" type="qcurve"/>
      <point x="170" y="95" type="line" smooth="yes"/>
      <point x="170" y="49"/>
      <point x="181" y="35" type="qcurve" smooth="yes"/>
      <point x="194" y="19"/>
      <point x="244" y="19" type="qcurve"/>
      <point x="244" y="0" type="line"/>
      <point x="14" y="0" type="line"/>
      <point x="14" y="19" type="line"/>
      <point x="59" y="19"/>
      <point x="73" y="37" type="qcurve" smooth="yes"/>
      <point x="85" y="52"/>
      <point x="85" y="95" type="qcurve" smooth="yes"/>
      <point x="85" y="586" type="line" smooth="yes"/>
      <point x="85" y="656"/>
      <point x="51" y="656" type="qcurve" smooth="yes"/>
      <point x="35" y="656"/>
      <point x="14" y="648" type="qcurve"/>
      <point x="6" y="666" type="line"/>
      <point x="146" y="722" type="line"/>
      <point x="170" y="722" type="line"/>
      <point x="170" y="382" type="line"/>
      <point x="234" y="478"/>
      <point x="324" y="478" type="qcurve" smooth="yes"/>
      <point x="402" y="478"/>
      <point x="429" y="408" type="qcurve" smooth="yes"/>
      <point x="445" y="366"/>
      <point x="445" y="269" type="qcurve" smooth="yes"/>
      <point x="445" y="95" type="line" smooth="yes"/>
      <point x="445" y="50"/>
      <point x="456" y="36" type="qcurve" smooth="yes"/>
      <point x="470" y="19"/>
      <point x="515" y="19" type="qcurve"/>
    </contour>
  </outline>
</glyph>
<glyph name="i" format="1">
  <advance width="289"/>
  <unicode hex="0069"/>
  <outline>
    <contour>
      <point x="204" y="623" type="qcurve" smooth="yes"/>
      <point x="204" y="601"/>
      <point x="175" y="571"/>
      <point x="153" y="571" type="qcurve" smooth="yes"/>
      <point x="131" y="571"/>
      <point x="101" y="601"/>
      <point x="101" y="623" type="qcurve" smooth="yes"/>
      <point x="101" y="645"/>
      <point x="132" y="674"/>
      <point x="153" y="674" type="qcurve" smooth="yes"/>
      <point x="174" y="674"/>
      <point x="204" y="644"/>
    </contour>
    <contour>
      <point x="266" y="0" type="line"/>
      <point x="39" y="0" type="line"/>
      <point x="39" y="19" type="line"/>
      <point x="60" y="19"/>
      <point x="88" y="25"/>
      <point x="104" y="42"/>
      <point x="110" y="71"/>
      <point x="110" y="95" type="qcurve" smooth="yes"/>
      <point x="110" y="344" type="line" smooth="yes"/>
      <point x="110" y="412"/>
      <point x="75" y="412" type="qcurve" smooth="yes"/>
      <point x="65" y="412"/>
      <point x="39" y="404" type="qcurve"/>
      <point x="32" y="422" type="line"/>
      <point x="173" y="478" type="line"/>
      <point x="195" y="478" type="line"/>
      <point x="195" y="95" type="line" smooth="yes"/>
      <point x="195" y="71"/>
      <point x="201" y="42"/>
      <point x="216" y="25"/>
      <point x="244" y="19"/>
      <point x="266" y="19" type="qcurve"/>
    </contour>
  </outline>
</glyph>
<glyph name="j" format="1">
  <advance width="289"/>
  <unicode hex="006A"/>
  <outline>
    <contour>
      <point x="203" y="623" type="qcurve" smooth="yes"/>
      <point x="203" y="602"/>
      <point x="173" y="571"/>
      <point x="151" y="571" type="qcurve" smooth="yes"/>
      <point x="129" y="571"/>
      <point x="99" y="601"/>
      <point x="99" y="623" type="qcurve" smooth="yes"/>
      <point x="99" y="644"/>
      <point x="130" y="675"/>
      <point x="151" y="675" type="qcurve" smooth="yes"/>
      <point x="171" y="675"/>
      <point x="203" y="644"/>
    </contour>
    <contour>
      <point x="195" y="10" type="line" smooth="yes"/>
      <point x="195" y="-106"/>
      <point x="143" y="-167" type="qcurve" smooth="yes"/>
      <point x="93" y="-224"/>
      <point x="11" y="-224" type="qcurve" smooth="yes"/>
      <point x="-32" y="-224"/>
      <point x="-57" y="-206" type="qcurve" smooth="yes"/>
      <point x="-67" y="-199"/>
      <point x="-79" y="-183"/>
      <point x="-79" y="-173" type="qcurve" smooth="yes"/>
      <point x="-80" y="-154"/>
      <point x="-54" y="-129"/>
      <point x="-37" y="-129" type="qcurve" smooth="yes"/>
      <point x="-10" y="-129"/>
      <point x="22" y="-161" type="qcurve" smooth="yes"/>
      <point x="44" y="-183"/>
      <point x="63" y="-183" type="qcurve" smooth="yes"/>
      <point x="96" y="-183"/>
      <point x="105" y="-139" type="qcurve" smooth="yes"/>
      <point x="108" y="-127"/>
      <point x="110" y="-81"/>
      <point x="110" y="-47" type="qcurve" smooth="yes"/>
      <point x="110" y="283" type="line" smooth="yes"/>
      <point x="110" y="393"/>
      <point x="95" y="405" type="qcurve" smooth="yes"/>
      <point x="79" y="418"/>
      <point x="38" y="404" type="qcurve"/>
      <point x="32" y="422" type="line"/>
      <point x="173" y="478" type="line"/>
      <point x="195" y="478" type="line"/>
    </contour>
  </outline>
</glyph>
<glyph name="k" format="1">
  <advance width="520"/>
  <unicode hex="006B"/>
  <outline>
    <contour>
      <point x="526" y="0" type="line"/>
      <point x="300" y="0" type="line"/>
      <point x="300" y="19" type="line"/>
      <point x="326" y="19"/>
      <point x="331" y="31" type="qcurve" smooth="yes"/>
      <point x="337" y="47"/>
      <point x="313" y="77" type="qcurve" smooth="yes"/>
      <point x="171" y="257" type="line"/>
      <point x="171" y="105" type="line" smooth="yes"/>
      <point x="171" y="50"/>
      <point x="182" y="36" type="qcurve" smooth="yes"/>
      <point x="196" y="19"/>
      <point x="245" y="19" type="qcurve"/>
      <point x="245" y="0" type="line"/>
      <point x="7" y="0" type="line"/>
      <point x="7" y="19" type="line"/>
      <point x="56" y="19"/>
      <point x="70" y="33" type="qcurve" smooth="yes"/>
      <point x="84" y="49"/>
      <point x="84" y="102" type="qcurve" smooth="yes"/>
      <point x="84" y="525" type="line" smooth="yes"/>
      <point x="84" y="602"/>
      <point x="81" y="622" type="qcurve" smooth="yes"/>
      <point x="79" y="641"/>
      <point x="62" y="656"/>
      <point x="50" y="656" type="qcurve" smooth="yes"/>
      <point x="38" y="656"/>
      <point x="17" y="648" type="qcurve"/>
      <point x="7" y="666" type="line"/>
      <point x="147" y="722" type="line"/>
      <point x="171" y="722" type="line"/>
      <point x="171" y="268" type="line"/>
      <point x="288" y="367" type="line" smooth="yes"/>
      <point x="336" y="407"/>
      <point x="336" y="423" type="qcurve" smooth="yes"/>
      <point x="336" y="446"/>
      <point x="300" y="449" type="qcurve"/>
      <point x="300" y="465" type="line"/>
      <point x="502" y="465" type="line"/>
      <point x="502" y="449" type="line"/>
      <point x="481" y="448"/>
      <point x="447" y="442"/>
      <point x="417" y="429"/>
      <point x="388" y="409"/>
      <point x="372" y="394" type="qcurve" smooth="yes"/>
      <point x="250" y="285" type="line"/>
      <point x="372" y="133" type="line" smooth="yes"/>
      <point x="400" y="98"/>
      <point x="436" y="56"/>
      <point x="444" y="48" type="qcurve" smooth="yes"/>
      <point x="455" y="39"/>
      <point x="482" y="23" type="qcurve" smooth="yes"/>
      <point x="489" y="19"/>
      <point x="526" y="19" type="qcurve"/>
    </contour>
  </outline>
</glyph>
<glyph name="l" format="1">
  <advance width="289"/>
  <unicode hex="006C"/>
  <outline>
    <contour>
      <point x="267" y="0" type="line"/>
      <point x="39" y="0" type="line"/>
      <point x="39" y="19" type="line"/>
      <point x="60" y="19"/>
      <point x="86" y="26"/>
      <point x="101" y="46"/>
      <point x="107" y="79"/>
      <point x="107" y="105" type="qcurve" smooth="yes"/>
      <point x="107" y="527" type="line" smooth="yes"/>
      <point x="107" y="601"/>
      <point x="104" y="624" type="qcurve" smooth="yes"/>
      <point x="101" y="641"/>
      <point x="93" y="649" type="qcurve" smooth="yes"/>
      <point x="73" y="661"/>
      <point x="39" y="648" type="qcurve"/>
      <point x="30" y="666" type="line"/>
      <point x="170" y="722" type="line"/>
      <point x="192" y="722" type="line"/>
      <point x="192" y="105" type="line" smooth="yes"/>
      <point x="192" y="79"/>
      <point x="197" y="46"/>
      <point x="214" y="27"/>
      <point x="243" y="19"/>
      <point x="267" y="19" type="qcurve"/>
    </contour>
  </outline>
</glyph>
<glyph name="m" format="1">
  <advance width="809"/>
  <unicode hex="006D"/>
  <outline>
    <contour>
      <point x="805" y="0" type="line"/>
      <point x="575" y="0" type="line"/>
      <point x="575" y="19" type="line"/>
      <point x="627" y="19"/>
      <point x="640" y="38" type="qcurve" smooth="yes"/>
      <point x="650" y="52"/>
      <point x="650" y="105" type="qcurve" smooth="yes"/>
      <point x="650" y="306" type="line" smooth="yes"/>
      <point x="650" y="418"/>
      <point x="573" y="418" type="qcurve" smooth="yes"/>
      <point x="516" y="418"/>
      <point x="453" y="355" type="qcurve"/>
      <point x="453" y="105" type="line" smooth="yes"/>
      <point x="453" y="53"/>
      <point x="464" y="37" type="qcurve" smooth="yes"/>
      <point x="477" y="19"/>
      <point x="528" y="19" type="qcurve"/>
      <point x="528" y="0" type="line"/>
      <point x="292" y="0" type="line"/>
      <point x="292" y="19" type="line"/>
      <point x="346" y="19"/>
      <point x="360" y="40" type="qcurve" smooth="yes"/>
      <point x="368" y="54"/>
      <point x="368" y="105" type="qcurve" smooth="yes"/>
      <point x="368" y="306" type="line" smooth="yes"/>
      <point x="368" y="419"/>
      <point x="289" y="419" type="qcurve" smooth="yes"/>
      <point x="230" y="419"/>
      <point x="170" y="355" type="qcurve"/>
      <point x="170" y="105" type="line" smooth="yes"/>
      <point x="170" y="49"/>
      <point x="184" y="33" type="qcurve" smooth="yes"/>
      <point x="198" y="19"/>
      <point x="245" y="19" type="qcurve"/>
      <point x="245" y="0" type="line"/>
      <point x="15" y="0" type="line"/>
      <point x="15" y="19" type="line"/>
      <point x="58" y="19"/>
      <point x="72" y="34" type="qcurve" smooth="yes"/>
      <point x="85" y="50"/>
      <point x="85" y="105" type="qcurve" smooth="yes"/>
      <point x="85" y="283" type="line" smooth="yes"/>
      <point x="85" y="362"/>
      <point x="82" y="379" type="qcurve" smooth="yes"/>
      <point x="76" y="412"/>
      <point x="50" y="412" type="qcurve" smooth="yes"/>
      <point x="39" y="412"/>
      <point x="15" y="404" type="qcurve"/>
      <point x="7" y="422" type="line"/>
      <point x="148" y="478" type="line"/>
      <point x="170" y="478" type="line"/>
      <point x="170" y="380" type="line"/>
      <point x="196" y="409"/>
      <point x="242" y="449"/>
      <point x="261" y="460" type="qcurve" smooth="yes"/>
      <point x="294" y="478"/>
      <point x="331" y="478" type="qcurve" smooth="yes"/>
      <point x="426" y="478"/>
      <point x="449" y="380" type="qcurve"/>
      <point x="474" y="409"/>
      <point x="518" y="448"/>
      <point x="537" y="459" type="qcurve" smooth="yes"/>
      <point x="571" y="478"/>
      <point x="612" y="478" type="qcurve" smooth="yes"/>
      <point x="735" y="478"/>
      <point x="735" y="306" type="qcurve" smooth="yes"/>
      <point x="735" y="105" type="line" smooth="yes"/>
      <point x="735" y="78"/>
      <point x="741" y="45"/>
      <point x="757" y="26"/>
      <point x="784" y="19"/>
      <point x="805" y="19" type="qcurve"/>
    </contour>
  </outline>
</glyph>
<glyph name="n" format="1">
  <advance width="520"/>
  <unicode hex="006E"/>
  <outline>
    <contour>
      <point x="518" y="0" type="line"/>
      <point x="285" y="0" type="line"/>
      <point x="285" y="19" type="line"/>
      <point x="336" y="19"/>
      <point x="348" y="34" type="qcurve" smooth="yes"/>
      <point x="361" y="50"/>
      <point x="361" y="105" type="qcurve" smooth="yes"/>
      <point x="361" y="295" type="line" smooth="yes"/>
      <point x="361" y="359"/>
      <point x="328" y="416"/>
      <point x="288" y="416" type="qcurve" smooth="yes"/>
      <point x="228" y="416"/>
      <point x="168" y="350" type="qcurve"/>
      <point x="168" y="105" type="line" smooth="yes"/>
      <point x="168" y="52"/>
      <point x="178" y="39" type="qcurve" smooth="yes"/>
      <point x="192" y="19"/>
      <point x="244" y="19" type="qcurve"/>
      <point x="244" y="0" type="line"/>
      <point x="13" y="0" type="line"/>
      <point x="13" y="19" type="line"/>
      <point x="57" y="19"/>
      <point x="70" y="35" type="qcurve" smooth="yes"/>
      <point x="83" y="51"/>
      <point x="83" y="105" type="qcurve" smooth="yes"/>
      <point x="83" y="278" type="line" smooth="yes"/>
      <point x="83" y="391"/>
      <point x="68" y="405" type="qcurve" smooth="yes"/>
      <point x="51" y="419"/>
      <point x="13" y="404" type="qcurve"/>
      <point x="5" y="422" type="line"/>
      <point x="147" y="478" type="line"/>
      <point x="168" y="478" type="line"/>
      <point x="168" y="381" type="line"/>
      <point x="250" y="478"/>
      <point x="324" y="478" type="qcurve" smooth="yes"/>
      <point x="446" y="478"/>
      <point x="446" y="304" type="qcurve" smooth="yes"/>
      <point x="446" y="105" type="line" smooth="yes"/>
      <point x="446" y="56"/>
      <point x="456" y="40" type="qcurve" smooth="yes"/>
      <point x="469" y="19"/>
      <point x="518" y="19" type="qcurve"/>
    </contour>
  </outline>
</glyph>
<glyph name="o" format="1">
  <advance width="520"/>
  <unicode hex="006F"/>
  <outline>
    <contour>
      <point x="484" y="241" type="qcurve" smooth="yes"/>
      <point x="484" y="141"/>
      <point x="427" y="68" type="qcurve" smooth="yes"/>
      <point x="363" y="-14"/>
      <point x="255" y="-14" type="qcurve" smooth="yes"/>
      <point x="159" y="-14"/>
      <point x="97" y="57" type="qcurve" smooth="yes"/>
      <point x="35" y="130"/>
      <point x="35" y="228" type="qcurve" smooth="yes"/>
      <point x="35" y="326"/>
      <point x="95" y="400" type="qcurve" smooth="yes"/>
      <point x="159" y="478"/>
      <point x="260" y="478" type="qcurve" smooth="yes"/>
      <point x="358" y="478"/>
      <point x="421" y="410" type="qcurve" smooth="yes"/>
      <point x="484" y="342"/>
    </contour>
    <contour>
      <point x="389" y="202" type="qcurve" smooth="yes"/>
      <point x="389" y="309"/>
      <point x="349" y="377" type="qcurve" smooth="yes"/>
      <point x="310" y="446"/>
      <point x="244" y="446" type="qcurve" smooth="yes"/>
      <point x="197" y="446"/>
      <point x="167" y="409" type="qcurve" smooth="yes"/>
      <point x="129" y="362"/>
      <point x="129" y="270" type="qcurve" smooth="yes"/>
      <point x="129" y="166"/>
      <point x="169" y="96" type="qcurve" smooth="yes"/>
      <point x="211" y="22"/>
      <point x="276" y="22" type="qcurve" smooth="yes"/>
      <point x="389" y="22"/>
    </contour>
  </outline>
</glyph>
<glyph name="p" format="1">
  <advance width="520"/>
  <unicode hex="0070"/>
  <outline>
    <contour>
      <point x="485" y="250" type="qcurve" smooth="yes"/>
      <point x="485" y="139"/>
      <point x="426" y="63" type="qcurve" smooth="yes"/>
      <point x="367" y="-14"/>
      <point x="272" y="-14" type="qcurve" smooth="yes"/>
      <point x="208" y="-14"/>
      <point x="161" y="27" type="qcurve"/>
      <point x="161" y="-113" type="line" smooth="yes"/>
      <point x="161" y="-171"/>
      <point x="173" y="-184" type="qcurve" smooth="yes"/>
      <point x="187" y="-202"/>
      <point x="240" y="-203" type="qcurve"/>
      <point x="240" y="-222" type="line"/>
      <point x="-5" y="-222" type="line"/>
      <point x="-5" y="-203" type="line"/>
      <point x="50" y="-201"/>
      <point x="62" y="-185" type="qcurve" smooth="yes"/>
      <point x="75" y="-171"/>
      <point x="75" y="-111" type="qcurve" smooth="yes"/>
      <point x="75" y="328" type="line" smooth="yes"/>
      <point x="75" y="349"/>
      <point x="74" y="376"/>
      <point x="73" y="381" type="qcurve" smooth="yes"/>
      <point x="70" y="397"/>
      <point x="58" y="404" type="qcurve" smooth="yes"/>
      <point x="41" y="417"/>
      <point x="3" y="402" type="qcurve"/>
      <point x="-2" y="419" type="line"/>
      <point x="142" y="477" type="line"/>
      <point x="161" y="477" type="line"/>
      <point x="161" y="368" type="line"/>
      <point x="226" y="478"/>
      <point x="311" y="478" type="qcurve" smooth="yes"/>
      <point x="386" y="478"/>
      <point x="436" y="413" type="qcurve" smooth="yes"/>
      <point x="485" y="349"/>
    </contour>
    <contour>
      <point x="404" y="202" type="qcurve" smooth="yes"/>
      <point x="404" y="308"/>
      <point x="364" y="365" type="qcurve" smooth="yes"/>
      <point x="328" y="416"/>
      <point x="270" y="416" type="qcurve" smooth="yes"/>
      <point x="242" y="416"/>
      <point x="216" y="394" type="qcurve" smooth="yes"/>
      <point x="208" y="388"/>
      <point x="181" y="360"/>
      <point x="161" y="338" type="qcurve"/>
      <point x="161" y="164" type="line" smooth="yes"/>
      <point x="161" y="112"/>
      <point x="166" y="90" type="qcurve" smooth="yes"/>
      <point x="173" y="60"/>
      <point x="228" y="16"/>
      <point x="270" y="16" type="qcurve" smooth="yes"/>
      <point x="330" y="16"/>
      <point x="404" y="117"/>
    </contour>
  </outline>
</glyph>
<glyph name="q" format="1">
  <advance width="520"/>
  <unicode hex="0071"/>
  <outline>
    <contour>
      <point x="522" y="-222" type="line"/>
      <point x="285" y="-222" type="line"/>
      <point x="285" y="-203" type="line"/>
      <point x="332" y="-203"/>
      <point x="346" y="-188" type="qcurve" smooth="yes"/>
      <point x="361" y="-175"/>
      <point x="361" y="-119" type="qcurve" smooth="yes"/>
      <point x="361" y="81" type="line"/>
      <point x="282" y="-14"/>
      <point x="208" y="-14" type="qcurve" smooth="yes"/>
      <point x="139" y="-14"/>
      <point x="89" y="45" type="qcurve" smooth="yes"/>
      <point x="34" y="109"/>
      <point x="34" y="212" type="qcurve" smooth="yes"/>
      <point x="34" y="327"/>
      <point x="102" y="403" type="qcurve" smooth="yes"/>
      <point x="171" y="478"/>
      <point x="274" y="478" type="qcurve" smooth="yes"/>
      <point x="338" y="478"/>
      <point x="370" y="446" type="qcurve"/>
      <point x="381" y="451"/>
      <point x="409" y="467"/>
      <point x="428" y="478" type="qcurve"/>
      <point x="446" y="478" type="line"/>
      <point x="446" y="-119" type="line" smooth="yes"/>
      <point x="446" y="-171"/>
      <point x="460" y="-187" type="qcurve" smooth="yes"/>
      <point x="473" y="-203"/>
      <point x="522" y="-203" type="qcurve"/>
    </contour>
    <contour>
      <point x="361" y="112" type="qcurve"/>
      <point x="361" y="331" type="line" smooth="yes"/>
      <point x="361" y="443"/>
      <point x="258" y="443" type="qcurve" smooth="yes"/>
      <point x="198" y="443"/>
      <point x="161" y="395" type="qcurve" smooth="yes"/>
      <point x="120" y="342"/>
      <point x="120" y="249" type="qcurve" smooth="yes"/>
      <point x="120" y="157"/>
      <point x="162" y="105" type="qcurve" smooth="yes"/>
      <point x="201" y="57"/>
      <point x="261" y="57" type="qcurve" smooth="yes"/>
      <point x="312" y="57"/>
    </contour>
  </outline>
</glyph>
<glyph name="r" format="1">
  <advance width="356"/>
  <unicode hex="0072"/>
  <outline>
    <contour>
      <point x="354" y="422" type="qcurve" smooth="yes"/>
      <point x="354" y="404"/>
      <point x="327" y="375"/>
      <point x="308" y="375" type="qcurve" smooth="yes"/>
      <point x="290" y="375"/>
      <point x="268" y="393" type="qcurve" smooth="yes"/>
      <point x="245" y="411"/>
      <point x="236" y="411" type="qcurve" smooth="yes"/>
      <point x="210" y="411"/>
      <point x="168" y="332" type="qcurve"/>
      <point x="168" y="108" type="line" smooth="yes"/>
      <point x="168" y="61"/>
      <point x="184" y="42" type="qcurve" smooth="yes"/>
      <point x="204" y="19"/>
      <point x="250" y="19" type="qcurve"/>
      <point x="250" y="0" type="line"/>
      <point x="9" y="0" type="line"/>
      <point x="9" y="19" type="line"/>
      <point x="55" y="19"/>
      <point x="69" y="33" type="qcurve" smooth="yes"/>
      <point x="83" y="49"/>
      <point x="83" y="105" type="qcurve" smooth="yes"/>
      <point x="83" y="285" type="line" smooth="yes"/>
      <point x="83" y="387"/>
      <point x="68" y="405" type="qcurve"/>
      <point x="44" y="418"/>
      <point x="9" y="404" type="qcurve"/>
      <point x="4" y="422" type="line"/>
      <point x="148" y="478" type="line"/>
      <point x="168" y="478" type="line"/>
      <point x="168" y="374" type="line"/>
      <point x="227" y="478"/>
      <point x="288" y="478" type="qcurve" smooth="yes"/>
      <point x="316" y="478"/>
      <point x="354" y="446"/>
    </contour>
  </outline>
</glyph>
<glyph name="s" format="1">
  <advance width="405"/>
  <unicode hex="0073"/>
  <outline>
    <contour>
      <point x="368" y="117" type="qcurve" smooth="yes"/>
      <point x="368" y="65"/>
      <point x="321" y="24" type="qcurve" smooth="yes"/>
      <point x="274" y="-14"/>
      <point x="213" y="-14" type="qcurve" smooth="yes"/>
      <point x="185" y="-14"/>
      <point x="143" y="0" type="qcurve" smooth="yes"/>
      <point x="99" y="14"/>
      <point x="88" y="16" type="qcurve" smooth="yes"/>
      <point x="81" y="16"/>
      <point x="70" y="-6" type="qcurve"/>
      <point x="53" y="-6" type="line"/>
      <point x="53" y="159" type="line"/>
      <point x="70" y="159" type="line"/>
      <point x="84" y="91"/>
      <point x="124" y="52" type="qcurve" smooth="yes"/>
      <point x="161" y="16"/>
      <point x="213" y="16" type="qcurve" smooth="yes"/>
      <point x="249" y="16"/>
      <point x="292" y="56"/>
      <point x="293" y="85" type="qcurve" smooth="yes"/>
      <point x="294" y="119"/>
      <point x="271" y="146" type="qcurve" smooth="yes"/>
      <point x="260" y="159"/>
      <point x="212" y="188"/>
      <point x="175" y="208" type="qcurve" smooth="yes"/>
      <point x="139" y="227"/>
      <point x="91" y="260"/>
      <point x="63" y="295"/>
      <point x="51" y="332"/>
      <point x="51" y="354" type="qcurve" smooth="yes"/>
      <point x="51" y="408"/>
      <point x="130" y="478"/>
      <point x="202" y="478" type="qcurve" smooth="yes"/>
      <point x="226" y="478"/>
      <point x="262" y="469" type="qcurve" smooth="yes"/>
      <point x="298" y="460"/>
      <point x="303" y="460" type="qcurve" smooth="yes"/>
      <point x="317" y="460"/>
      <point x="326" y="478" type="qcurve"/>
      <point x="343" y="478" type="line"/>
      <point x="343" y="320" type="line"/>
      <point x="326" y="320" type="line"/>
      <point x="294" y="449"/>
      <point x="200" y="449" type="qcurve" smooth="yes"/>
      <point x="111" y="449"/>
      <point x="110" y="388" type="qcurve" smooth="yes"/>
      <point x="109" y="327"/>
      <point x="186" y="291" type="qcurve" smooth="yes"/>
      <point x="261" y="256" type="line" smooth="yes"/>
      <point x="368" y="206"/>
    </contour>
  </outline>
</glyph>
<glyph name="t" format="1">
  <advance width="289"/>
  <unicode hex="0074"/>
  <outline>
    <contour>
      <point x="290" y="85" type="line"/>
      <point x="275" y="38"/>
      <point x="239" y="9" type="qcurve" smooth="yes"/>
      <point x="207" y="-14"/>
      <point x="174" y="-14" type="qcurve" smooth="yes"/>
      <point x="82" y="-14"/>
      <point x="82" y="108" type="qcurve" smooth="yes"/>
      <point x="82" y="430" type="line"/>
      <point x="8" y="430" type="line"/>
      <point x="8" y="446" type="line"/>
      <point x="47" y="460"/>
      <point x="94" y="515" type="qcurve" smooth="yes"/>
      <point x="108" y="531"/>
      <point x="136" y="583"/>
      <point x="152" y="618" type="qcurve"/>
      <point x="167" y="618" type="line"/>
      <point x="167" y="465" type="line"/>
      <point x="276" y="465" type="line"/>
      <point x="276" y="430" type="line"/>
      <point x="167" y="430" type="line"/>
      <point x="167" y="120" type="line" smooth="yes"/>
      <point x="167" y="44"/>
      <point x="213" y="43" type="qcurve" smooth="yes"/>
      <point x="250" y="41"/>
      <point x="270" y="85" type="qcurve"/>
    </contour>
  </outline>
</glyph>
<glyph name="u" format="1">
  <advance width="520"/>
  <unicode hex="0075"/>
  <outline>
    <contour>
      <point x="521" y="43" type="line"/>
      <point x="380" y="-14" type="line"/>
      <point x="357" y="-14" type="line"/>
      <point x="357" y="84" type="line"/>
      <point x="329" y="55"/>
      <point x="284" y="15"/>
      <point x="267" y="5" type="qcurve" smooth="yes"/>
      <point x="232" y="-14"/>
      <point x="199" y="-14" type="qcurve" smooth="yes"/>
      <point x="79" y="-14"/>
      <point x="79" y="166" type="qcurve" smooth="yes"/>
      <point x="79" y="374" type="line" smooth="yes"/>
      <point x="79" y="418"/>
      <point x="45" y="446"/>
      <point x="0" y="446" type="qcurve"/>
      <point x="0" y="465" type="line"/>
      <point x="164" y="465" type="line"/>
      <point x="164" y="154" type="line" smooth="yes"/>
      <point x="164" y="48"/>
      <point x="241" y="48" type="qcurve" smooth="yes"/>
      <point x="291" y="48"/>
      <point x="357" y="114" type="qcurve"/>
      <point x="357" y="378" type="line" smooth="yes"/>
      <point x="357" y="419"/>
      <point x="339" y="433" type="qcurve" smooth="yes"/>
      <point x="324" y="445"/>
      <point x="282" y="446" type="qcurve"/>
      <point x="282" y="465" type="line"/>
      <point x="442" y="465" type="line"/>
      <point x="442" y="123" type="line" smooth="yes"/>
      <point x="442" y="53"/>
      <point x="473" y="53" type="qcurve" smooth="yes"/>
      <point x="493" y="53"/>
      <point x="514" y="61" type="qcurve"/>
    </contour>
  </outline>
</glyph>
<glyph name="v" format="1">
  <advance width="520"/>
  <unicode hex="0076"/>
  <outline>
    <contour>
      <point x="511" y="446" type="line"/>
      <point x="486" y="445"/>
      <point x="473" y="436" type="qcurve" smooth="yes"/>
      <point x="455" y="418"/>
      <point x="442" y="385" type="qcurve" smooth="yes"/>
      <point x="277" y="-14" type="line"/>
      <point x="256" y="-14" type="line"/>
      <point x="89" y="379" type="line" smooth="yes"/>
      <point x="73" y="419"/>
      <point x="43" y="438" type="qcurve" smooth="yes"/>
      <point x="36" y="442"/>
      <point x="8" y="446" type="qcurve"/>
      <point x="8" y="465" type="line"/>
      <point x="228" y="465" type="line"/>
      <point x="228" y="446" type="line"/>
      <point x="213" y="446" type="line" smooth="yes"/>
      <point x="173" y="446"/>
      <point x="173" y="409" type="qcurve" smooth="yes"/>
      <point x="173" y="391"/>
      <point x="183" y="368" type="qcurve" smooth="yes"/>
      <point x="291" y="112" type="line"/>
      <point x="400" y="379" type="line" smooth="yes"/>
      <point x="417" y="421"/>
      <point x="408" y="434" type="qcurve" smooth="yes"/>
      <point x="400" y="446"/>
      <point x="359" y="446" type="qcurve"/>
      <point x="359" y="465" type="line"/>
      <point x="511" y="465" type="line"/>
    </contour>
  </outline>
</glyph>
<glyph name="w" format="1">
  <advance width="751"/>
  <unicode hex="0077"/>
  <outline>
    <contour>
      <point x="742" y="446" type="line"/>
      <point x="696" y="440"/>
      <point x="676" y="387" type="qcurve" smooth="yes"/>
      <point x="521" y="-14" type="line"/>
      <point x="500" y="-14" type="line"/>
      <point x="384" y="283" type="line"/>
      <point x="249" y="-14" type="line"/>
      <point x="230" y="-14" type="line"/>
      <point x="80" y="376" type="line" smooth="yes"/>
      <point x="73" y="394"/>
      <point x="60" y="419"/>
      <point x="44" y="434"/>
      <point x="22" y="443"/>
      <point x="6" y="446" type="qcurve"/>
      <point x="6" y="465" type="line"/>
      <point x="202" y="465" type="line"/>
      <point x="202" y="446" type="line"/>
      <point x="175" y="445"/>
      <point x="158" y="429"/>
      <point x="158" y="414" type="qcurve" smooth="yes"/>
      <point x="158" y="406"/>
      <point x="161" y="387"/>
      <point x="166" y="376" type="qcurve" smooth="yes"/>
      <point x="266" y="109" type="line"/>
      <point x="366" y="327" type="line"/>
      <point x="340" y="396" type="line" smooth="yes"/>
      <point x="330" y="424"/>
      <point x="308" y="438" type="qcurve" smooth="yes"/>
      <point x="299" y="444"/>
      <point x="266" y="446" type="qcurve"/>
      <point x="266" y="465" type="line"/>
      <point x="488" y="465" type="line"/>
      <point x="488" y="446" type="line"/>
      <point x="449" y="444"/>
      <point x="425" y="425"/>
      <point x="425" y="405" type="qcurve" smooth="yes"/>
      <point x="425" y="395"/>
      <point x="430" y="387" type="qcurve" smooth="yes"/>
      <point x="536" y="120" type="line"/>
      <point x="633" y="376" type="line" smooth="yes"/>
      <point x="644" y="406"/>
      <point x="644" y="420" type="qcurve" smooth="yes"/>
      <point x="644" y="446"/>
      <point x="595" y="446" type="qcurve"/>
      <point x="595" y="465" type="line"/>
      <point x="742" y="465" type="line"/>
    </contour>
  </outline>
</glyph>
<glyph name="x" format="1">
  <advance width="520"/>
  <unicode hex="0078"/>
  <outline>
    <contour>
      <point x="508" y="0" type="line"/>
      <point x="288" y="0" type="line"/>
      <point x="288" y="19" type="line"/>
      <point x="334" y="19"/>
      <point x="334" y="48" type="qcurve" smooth="yes"/>
      <point x="334" y="56"/>
      <point x="329" y="64" type="qcurve" smooth="yes"/>
      <point x="233" y="206" type="line"/>
      <point x="132" y="71" type="line" smooth="yes"/>
      <point x="124" y="60"/>
      <point x="124" y="49" type="qcurve" smooth="yes"/>
      <point x="124" y="20"/>
      <point x="170" y="19" type="qcurve"/>
      <point x="170" y="0" type="line"/>
      <point x="18" y="0" type="line"/>
      <point x="18" y="19" type="line"/>
      <point x="38" y="21"/>
      <point x="56" y="37" type="qcurve" smooth="yes"/>
      <point x="74" y="52"/>
      <point x="114" y="106" type="qcurve" smooth="yes"/>
      <point x="212" y="236" type="line"/>
      <point x="124" y="364" type="line" smooth="yes"/>
      <point x="88" y="416"/>
      <point x="66" y="432" type="qcurve" smooth="yes"/>
      <point x="49" y="444"/>
      <point x="14" y="446" type="qcurve"/>
      <point x="14" y="465" type="line"/>
      <point x="233" y="465" type="line"/>
      <point x="233" y="446" type="line"/>
      <point x="194" y="447"/>
      <point x="194" y="421" type="qcurve" smooth="yes"/>
      <point x="194" y="413"/>
      <point x="197" y="409" type="qcurve" smooth="yes"/>
      <point x="263" y="305" type="line"/>
      <point x="332" y="405" type="line" smooth="yes"/>
      <point x="338" y="412"/>
      <point x="338" y="422" type="qcurve" smooth="yes"/>
      <point x="338" y="446"/>
      <point x="301" y="446" type="qcurve"/>
      <point x="301" y="465" type="line"/>
      <point x="458" y="465" type="line"/>
      <point x="458" y="446" type="line"/>
      <point x="427" y="445"/>
      <point x="405" y="427" type="qcurve" smooth="yes"/>
      <point x="394" y="418"/>
      <point x="365" y="384"/>
      <point x="346" y="358" type="qcurve" smooth="yes"/>
      <point x="283" y="272" type="line"/>
      <point x="399" y="106" type="line" smooth="yes"/>
      <point x="428" y="64"/>
      <point x="460" y="32" type="qcurve" smooth="yes"/>
      <point x="472" y="20"/>
      <point x="508" y="19" type="qcurve"/>
    </contour>
  </outline>
</glyph>
<glyph name="y" format="1">
  <advance width="520"/>
  <unicode hex="0079"/>
  <outline>
    <contour>
      <point x="514" y="446" type="line"/>
      <point x="491" y="445"/>
      <point x="478" y="433" type="qcurve" smooth="yes"/>
      <point x="463" y="419"/>
      <point x="445" y="376" type="qcurve" smooth="yes"/>
      <point x="256" y="-87" type="line" smooth="yes"/>
      <point x="230" y="-151"/>
      <point x="144" y="-224"/>
      <point x="99" y="-224" type="qcurve" smooth="yes"/>
      <point x="69" y="-224"/>
      <point x="30" y="-190"/>
      <point x="30" y="-166" type="qcurve" smooth="yes"/>
      <point x="30" y="-120"/>
      <point x="82" y="-120" type="qcurve" smooth="yes"/>
      <point x="94" y="-120"/>
      <point x="123" y="-129" type="qcurve" smooth="yes"/>
      <point x="151" y="-138"/>
      <point x="153" y="-138" type="qcurve" smooth="yes"/>
      <point x="191" y="-138"/>
      <point x="223" y="-61" type="qcurve" smooth="yes"/>
      <point x="256" y="19" type="line"/>
      <point x="89" y="369" type="line" smooth="yes"/>
      <point x="73" y="403"/>
      <point x="62" y="415" type="qcurve" smooth="yes"/>
      <point x="39" y="443"/>
      <point x="6" y="446" type="qcurve"/>
      <point x="6" y="465" type="line"/>
      <point x="223" y="465" type="line"/>
      <point x="223" y="446" type="line"/>
      <point x="212" y="446" type="line" smooth="yes"/>
      <point x="166" y="446"/>
      <point x="166" y="412" type="qcurve" smooth="yes"/>
      <point x="166" y="393"/>
      <point x="183" y="357" type="qcurve" smooth="yes"/>
      <point x="296" y="123" type="line"/>
      <point x="400" y="380" type="line" smooth="yes"/>
      <point x="419" y="417"/>
      <point x="406" y="435" type="qcurve" smooth="yes"/>
      <point x="398" y="446"/>
      <point x="363" y="446" type="qcurve"/>
      <point x="363" y="465" type="line"/>
      <point x="514" y="465" type="line"/>
    </contour>
  </outline>
</glyph>
<glyph name="z" format="1">
  <advance width="462"/>
  <unicode hex="007A"/>
  <outline>
    <contour>
      <point x="445" y="446" type="line"/>
      <point x="133" y="34" type="line"/>
      <point x="303" y="34" type="line" smooth="yes"/>
      <point x="330" y="34"/>
      <point x="365" y="39"/>
      <point x="387" y="48"/>
      <point x="398" y="58"/>
      <point x="401" y="64" type="qcurve" smooth="yes"/>
      <point x="411" y="83"/>
      <point x="419" y="142" type="qcurve"/>
      <point x="437" y="142" type="line"/>
      <point x="431" y="0" type="line"/>
      <point x="21" y="0" type="line"/>
      <point x="21" y="19" type="line"/>
      <point x="330" y="430" type="line"/>
      <point x="177" y="430" type="line" smooth="yes"/>
      <point x="155" y="430"/>
      <point x="123" y="428"/>
      <point x="112" y="423" type="qcurve" smooth="yes"/>
      <point x="80" y="410"/>
      <point x="72" y="336" type="qcurve"/>
      <point x="52" y="336" type="line"/>
      <point x="55" y="465" type="line"/>
      <point x="445" y="465" type="line"/>
    </contour>
  </outline>
</glyph>
<glyph name="braceleft" format="1">
  <advance width="497"/>
  <unicode hex="007B"/>
  <outline>
    <contour>
      <point x="393" y="-223" type="line"/>
      <point x="319" y="-216"/>
      <point x="261" y="-158" type="qcurve" smooth="yes"/>
      <point x="204" y="-103"/>
      <point x="204" y="-28" type="qcurve" smooth="yes"/>
      <point x="204" y="-14"/>
      <point x="210" y="25"/>
      <point x="215" y="51" type="qcurve" smooth="yes"/>
      <point x="227" y="103"/>
      <point x="227" y="125" type="qcurve" smooth="yes"/>
      <point x="227" y="170"/>
      <point x="187" y="203" type="qcurve" smooth="yes"/>
      <point x="152" y="232"/>
      <point x="111" y="236" type="qcurve"/>
      <point x="111" y="262" type="line"/>
      <point x="152" y="266"/>
      <point x="187" y="295" type="qcurve" smooth="yes"/>
      <point x="227" y="326"/>
      <point x="227" y="371" type="qcurve" smooth="yes"/>
      <point x="227" y="392"/>
      <point x="215" y="448" type="qcurve" smooth="yes"/>
      <point x="204" y="506"/>
      <point x="204" y="534" type="qcurve" smooth="yes"/>
      <point x="204" y="605"/>
      <point x="263" y="661" type="qcurve" smooth="yes"/>
      <point x="321" y="715"/>
      <point x="393" y="722" type="qcurve"/>
      <point x="393" y="704" type="line"/>
      <point x="280" y="675"/>
      <point x="280" y="570" type="qcurve" smooth="yes"/>
      <point x="280" y="558"/>
      <point x="286" y="523"/>
      <point x="291" y="500" type="qcurve" smooth="yes"/>
      <point x="296" y="477"/>
      <point x="302" y="442"/>
      <point x="302" y="429" type="qcurve" smooth="yes"/>
      <point x="302" y="298"/>
      <point x="163" y="249" type="qcurve"/>
      <point x="302" y="200"/>
      <point x="302" y="67" type="qcurve" smooth="yes"/>
      <point x="302" y="45"/>
      <point x="291" y="-1" type="qcurve" smooth="yes"/>
      <point x="286" y="-24"/>
      <point x="280" y="-59"/>
      <point x="280" y="-71" type="qcurve" smooth="yes"/>
      <point x="280" y="-176"/>
      <point x="393" y="-205" type="qcurve"/>
    </contour>
  </outline>
</glyph>
<glyph name="bar" format="1">
  <advance width="208"/>
  <unicode hex="007C"/>
  <outline>
    <contour>
      <point x="125" y="-224" type="line"/>
      <point x="82" y="-224" type="line"/>
      <point x="82" y="722" type="line"/>
      <point x="125" y="722" type="line"/>
    </contour>
  </outline>
</glyph>
<glyph name="braceright" format="1">
  <advance width="497"/>
  <unicode hex="007D"/>
  <outline>
    <contour>
      <point x="386" y="236" type="line"/>
      <point x="345" y="232"/>
      <point x="310" y="203" type="qcurve" smooth="yes"/>
      <point x="270" y="170"/>
      <point x="270" y="125" type="qcurve" smooth="yes"/>
      <point x="270" y="106"/>
      <point x="281" y="51" type="qcurve" smooth="yes"/>
      <point x="293" y="-1"/>
      <point x="293" y="-28" type="qcurve" smooth="yes"/>
      <point x="293" y="-103"/>
      <point x="236" y="-158" type="qcurve" smooth="yes"/>
      <point x="178" y="-216"/>
      <point x="104" y="-223" type="qcurve"/>
      <point x="104" y="-205" type="line"/>
      <point x="217" y="-176"/>
      <point x="217" y="-71" type="qcurve" smooth="yes"/>
      <point x="217" y="-59"/>
      <point x="211" y="-24"/>
      <point x="206" y="-1" type="qcurve" smooth="yes"/>
      <point x="195" y="45"/>
      <point x="195" y="67" type="qcurve" smooth="yes"/>
      <point x="195" y="200"/>
      <point x="334" y="249" type="qcurve"/>
      <point x="195" y="298"/>
      <point x="195" y="429" type="qcurve" smooth="yes"/>
      <point x="195" y="442"/>
      <point x="201" y="477"/>
      <point x="206" y="500" type="qcurve" smooth="yes"/>
      <point x="211" y="523"/>
      <point x="217" y="558"/>
      <point x="217" y="570" type="qcurve" smooth="yes"/>
      <point x="217" y="675"/>
      <point x="104" y="704" type="qcurve"/>
      <point x="104" y="722" type="line"/>
      <point x="176" y="715"/>
      <point x="234" y="661" type="qcurve" smooth="yes"/>
      <point x="293" y="605"/>
      <point x="293" y="534" type="qcurve" smooth="yes"/>
      <point x="293" y="503"/>
      <point x="281" y="448" type="qcurve" smooth="yes"/>
      <point x="276" y="420"/>
      <point x="270" y="382"/>
      <point x="270" y="371" type="qcurve" smooth="yes"/>
      <point x="270" y="326"/>
      <point x="310" y="295" type="qcurve" smooth="yes"/>
      <point x="345" y="266"/>
      <point x="386" y="262" type="qcurve"/>
    </contour>
  </outline>
</glyph>
<glyph name="asciitilde" format="1">
  <advance width="566"/>
  <unicode hex="007E"/>
  <outline>
    <contour>
      <point x="546" y="320" type="line"/>
      <point x="487" y="209"/>
      <point x="403" y="209" type="qcurve" smooth="yes"/>
      <point x="361" y="209"/>
      <point x="278" y="246" type="qcurve" smooth="yes"/>
      <point x="194" y="284"/>
      <point x="159" y="284" type="qcurve" smooth="yes"/>
      <point x="122" y="284"/>
      <point x="92" y="252" type="qcurve" smooth="yes"/>
      <point x="84" y="244"/>
      <point x="62" y="211"/>
      <point x="48" y="188" type="qcurve"/>
      <point x="20" y="225" type="line"/>
      <point x="52" y="283"/>
      <point x="76" y="307" type="qcurve" smooth="yes"/>
      <point x="116" y="345"/>
      <point x="164" y="345" type="qcurve" smooth="yes"/>
      <point x="202" y="345"/>
      <point x="292" y="306" type="qcurve" smooth="yes"/>
      <point x="383" y="268"/>
      <point x="408" y="268" type="qcurve" smooth="yes"/>
      <point x="472" y="268"/>
      <point x="517" y="358" type="qcurve"/>
    </contour>
  </outline>
</glyph>
<glyph name="exclamdown" format="1">
  <advance width="346"/>
  <unicode hex="00A1"/>
  <outline>
    <contour>
      <point x="230" y="437" type="qcurve" smooth="yes"/>
      <point x="230" y="412"/>
      <point x="195" y="382"/>
      <point x="173" y="382" type="qcurve" smooth="yes"/>
      <point x="152" y="382"/>
      <point x="117" y="413"/>
      <point x="117" y="437" type="qcurve" smooth="yes"/>
      <point x="117" y="461"/>
      <point x="150" y="495"/>
      <point x="173" y="495" type="qcurve" smooth="yes"/>
      <point x="193" y="495"/>
      <point x="210" y="481" type="qcurve" smooth="yes"/>
      <point x="230" y="464"/>
    </contour>
    <contour>
      <point x="231" y="-152" type="qcurve" smooth="yes"/>
      <point x="231" y="-185"/>
      <point x="198" y="-223"/>
      <point x="172" y="-223" type="qcurve" smooth="yes"/>
      <point x="151" y="-223"/>
      <point x="134" y="-206" type="qcurve" smooth="yes"/>
      <point x="115" y="-186"/>
      <point x="115" y="-147" type="qcurve" smooth="yes"/>
      <point x="115" y="-139"/>
      <point x="116" y="-122"/>
      <point x="117" y="-113" type="qcurve" smooth="yes"/>
      <point x="163" y="298" type="line"/>
      <point x="183" y="298" type="line"/>
      <point x="227" y="-113" type="line" smooth="yes"/>
      <point x="229" y="-132"/>
      <point x="231" y="-151"/>
    </contour>
  </outline>
</glyph>
<glyph name="cent" format="1">
  <advance width="520"/>
  <unicode hex="00A2"/>
  <outline>
    <contour>
      <point x="456" y="177" type="line"/>
      <point x="442" y="93"/>
      <point x="387" y="39" type="qcurve" smooth="yes"/>
      <point x="333" y="-14"/>
      <point x="262" y="-14" type="qcurve" smooth="yes"/>
      <point x="225" y="-14"/>
      <point x="191" y="0" type="qcurve"/>
      <point x="122" y="-191" type="line"/>
      <point x="86" y="-191" type="line"/>
      <point x="162" y="16" type="line"/>
      <point x="64" y="84"/>
      <point x="64" y="232" type="qcurve" smooth="yes"/>
      <point x="64" y="339"/>
      <point x="130" y="410" type="qcurve" smooth="yes"/>
      <point x="193" y="478"/>
      <point x="286" y="478" type="qcurve" smooth="yes"/>
      <point x="313" y="478"/>
      <point x="328" y="474" type="qcurve"/>
      <point x="400" y="673" type="line"/>
      <point x="436" y="673" type="line"/>
      <point x="361" y="465" type="line"/>
      <point x="377" y="458"/>
      <point x="404" y="438"/>
      <point x="416" y="426" type="qcurve" smooth="yes"/>
      <point x="444" y="395"/>
      <point x="444" y="367" type="qcurve" smooth="yes"/>
      <point x="444" y="324"/>
      <point x="396" y="324" type="qcurve" smooth="yes"/>
      <point x="344" y="324"/>
      <point x="340" y="384" type="qcurve"/>
      <point x="337" y="400" type="line"/>
      <point x="224" y="89" type="line"/>
      <point x="259" y="66"/>
      <point x="298" y="66" type="qcurve" smooth="yes"/>
      <point x="393" y="66"/>
      <point x="442" y="184" type="qcurve"/>
    </contour>
    <contour>
      <point x="313" y="434" type="qcurve"/>
      <point x="296" y="445"/>
      <point x="269" y="445" type="qcurve" smooth="yes"/>
      <point x="241" y="445"/>
      <point x="196" y="420"/>
      <point x="164" y="375"/>
      <point x="147" y="313"/>
      <point x="147" y="276" type="qcurve" smooth="yes"/>
      <point x="147" y="174"/>
      <point x="197" y="115" type="qcurve"/>
      <point x="235" y="218"/>
      <point x="293" y="377"/>
    </contour>
  </outline>
</glyph>
<glyph name="sterling" format="1">
  <advance width="520"/>
  <unicode hex="00A3"/>
  <outline>
    <contour>
      <point x="496" y="154" type="line"/>
      <point x="489" y="90"/>
      <point x="453" y="42" type="qcurve" smooth="yes"/>
      <point x="413" y="-11"/>
      <point x="350" y="-11" type="qcurve" smooth="yes"/>
      <point x="308" y="-11"/>
      <point x="271" y="9" type="qcurve" smooth="yes"/>
      <point x="259" y="16"/>
      <point x="185" y="70" type="qcurve"/>
      <point x="147" y="-11"/>
      <point x="90" y="-11" type="qcurve" smooth="yes"/>
      <point x="31" y="-11"/>
      <point x="31" y="53" type="qcurve" smooth="yes"/>
      <point x="31" y="96"/>
      <point x="62" y="117" type="qcurve" smooth="yes"/>
      <point x="84" y="132"/>
      <point x="114" y="132" type="qcurve" smooth="yes"/>
      <point x="141" y="132"/>
      <point x="157" y="128" type="qcurve"/>
      <point x="161" y="176"/>
      <point x="148" y="335" type="qcurve"/>
      <point x="50" y="335" type="line"/>
      <point x="50" y="383" type="line"/>
      <point x="148" y="383" type="line"/>
      <point x="147" y="395"/>
      <point x="145" y="426"/>
      <point x="143" y="446" type="qcurve" smooth="yes"/>
      <point x="141" y="460"/>
      <point x="141" y="479"/>
      <point x="141" y="484" type="qcurve" smooth="yes"/>
      <point x="141" y="588"/>
      <point x="203" y="650" type="qcurve" smooth="yes"/>
      <point x="258" y="703"/>
      <point x="330" y="703" type="qcurve" smooth="yes"/>
      <point x="385" y="703"/>
      <point x="422" y="671" type="qcurve" smooth="yes"/>
      <point x="458" y="639"/>
      <point x="458" y="599" type="qcurve" smooth="yes"/>
      <point x="458" y="584"/>
      <point x="434" y="557"/>
      <point x="419" y="557" type="qcurve" smooth="yes"/>
      <point x="379" y="557"/>
      <point x="379" y="616" type="qcurve" smooth="yes"/>
      <point x="379" y="675"/>
      <point x="317" y="675" type="qcurve" smooth="yes"/>
      <point x="225" y="675"/>
      <point x="225" y="532" type="qcurve" smooth="yes"/>
      <point x="225" y="518"/>
      <point x="231" y="444"/>
      <point x="236" y="383" type="qcurve"/>
      <point x="367" y="383" type="line"/>
      <point x="367" y="335" type="line"/>
      <point x="236" y="335" type="line"/>
      <point x="236" y="301"/>
      <point x="236" y="262"/>
      <point x="235" y="256" type="qcurve" smooth="yes"/>
      <point x="231" y="184"/>
      <point x="205" y="119" type="qcurve"/>
      <point x="331" y="77"/>
      <point x="370" y="77" type="qcurve" smooth="yes"/>
      <point x="455" y="77"/>
      <point x="477" y="159" type="qcurve"/>
    </contour>
    <contour>
      <point x="152" y="87" type="qcurve"/>
      <point x="132" y="101"/>
      <point x="108" y="101" type="qcurve" smooth="yes"/>
      <point x="60" y="101"/>
      <point x="60" y="57" type="qcurve" smooth="yes"/>
      <point x="60" y="18"/>
      <point x="94" y="18" type="qcurve" smooth="yes"/>
      <point x="134" y="18"/>
    </contour>
  </outline>
</glyph>
<glyph name="currency" format="1">
  <advance width="600"/>
  <unicode hex="00A4"/>
  <outline>
    <contour>
      <point x="570" y="196" type="line"/>
      <point x="534" y="160" type="line"/>
      <point x="431" y="263" type="line"/>
      <point x="375" y="216"/>
      <point x="302" y="216" type="qcurve" smooth="yes"/>
      <point x="224" y="216"/>
      <point x="169" y="263" type="qcurve"/>
      <point x="66" y="160" type="line"/>
      <point x="30" y="196" type="line"/>
      <point x="133" y="299" type="line"/>
      <point x="89" y="355"/>
      <point x="89" y="427" type="qcurve" smooth="yes"/>
      <point x="89" y="510"/>
      <point x="135" y="559" type="qcurve"/>
      <point x="30" y="664" type="line"/>
      <point x="66" y="700" type="line"/>
      <point x="171" y="595" type="line"/>
      <point x="227" y="639"/>
      <point x="302" y="639" type="qcurve" smooth="yes"/>
      <point x="375" y="639"/>
      <point x="428" y="594" type="qcurve"/>
      <point x="534" y="700" type="line"/>
      <point x="570" y="664" type="line"/>
      <point x="466" y="560" type="line"/>
      <point x="511" y="504"/>
      <point x="511" y="428" type="qcurve" smooth="yes"/>
      <point x="511" y="352"/>
      <point x="467" y="299" type="qcurve"/>
    </contour>
    <contour>
      <point x="454" y="428" type="qcurve" smooth="yes"/>
      <point x="454" y="489"/>
      <point x="409" y="536" type="qcurve" smooth="yes"/>
      <point x="364" y="582"/>
      <point x="302" y="582" type="qcurve" smooth="yes"/>
      <point x="237" y="582"/>
      <point x="191" y="537" type="qcurve" smooth="yes"/>
      <point x="146" y="492"/>
      <point x="146" y="427" type="qcurve" smooth="yes"/>
      <point x="146" y="363"/>
      <point x="191" y="318" type="qcurve" smooth="yes"/>
      <point x="237" y="273"/>
      <point x="302" y="273" type="qcurve" smooth="yes"/>
      <point x="366" y="273"/>
      <point x="409" y="319" type="qcurve" smooth="yes"/>
      <point x="454" y="365"/>
    </contour>
  </outline>
</glyph>
<glyph name="yen" format="1">
  <advance width="520"/>
  <unicode hex="00A5"/>
  <outline>
    <contour>
      <point x="520" y="670" type="line"/>
      <point x="489" y="670"/>
      <point x="475" y="657" type="qcurve" smooth="yes"/>
      <point x="453" y="638"/>
      <point x="432" y="591" type="qcurve" smooth="yes"/>
      <point x="322" y="344" type="line"/>
      <point x="510" y="344" type="line"/>
      <point x="510" y="307" type="line"/>
      <point x="307" y="307" type="line"/>
      <point x="303" y="298" type="line"/>
      <point x="303" y="216" type="line"/>
      <point x="510" y="216" type="line"/>
      <point x="510" y="179" type="line"/>
      <point x="303" y="179" type="line"/>
      <point x="303" y="124" type="line" smooth="yes"/>
      <point x="303" y="55"/>
      <point x="316" y="41" type="qcurve" smooth="yes"/>
      <point x="333" y="21"/>
      <point x="369" y="21" type="qcurve" smooth="yes"/>
      <point x="390" y="21" type="line"/>
      <point x="390" y="0" type="line"/>
      <point x="128" y="0" type="line"/>
      <point x="128" y="21" type="line"/>
      <point x="145" y="21" type="line" smooth="yes"/>
      <point x="186" y="21"/>
      <point x="206" y="42" type="qcurve" smooth="yes"/>
      <point x="216" y="52"/>
      <point x="216" y="124" type="qcurve" smooth="yes"/>
      <point x="216" y="179" type="line"/>
      <point x="10" y="179" type="line"/>
      <point x="10" y="216" type="line"/>
      <point x="216" y="216" type="line"/>
      <point x="216" y="289" type="line"/>
      <point x="209" y="307" type="line"/>
      <point x="10" y="307" type="line"/>
      <point x="10" y="344" type="line"/>
      <point x="192" y="344" type="line"/>
      <point x="84" y="596" type="line" smooth="yes"/>
      <point x="65" y="642"/>
      <point x="48" y="654" type="qcurve" smooth="yes"/>
      <point x="32" y="667"/>
      <point x="1" y="670" type="qcurve"/>
      <point x="1" y="688" type="line"/>
      <point x="226" y="688" type="line"/>
      <point x="226" y="670" type="line"/>
      <point x="192" y="667"/>
      <point x="163" y="649"/>
      <point x="163" y="638" type="qcurve" smooth="yes"/>
      <point x="163" y="635"/>
      <point x="174" y="608" type="qcurve" smooth="yes"/>
      <point x="282" y="344" type="line"/>
      <point x="390" y="600" type="line" smooth="yes"/>
      <point x="400" y="623"/>
      <point x="400" y="638" type="qcurve" smooth="yes"/>
      <point x="400" y="652"/>
      <point x="390" y="659" type="qcurve" smooth="yes"/>
      <point x="376" y="668"/>
      <point x="344" y="670" type="qcurve"/>
      <point x="344" y="688" type="line"/>
      <point x="520" y="688" type="line"/>
    </contour>
  </outline>
</glyph>
<glyph name="brokenbar" format="1">
  <advance width="315"/>
  <unicode hex="00A6"/>
  <outline>
    <contour>
      <point x="183" y="336" type="line"/>
      <point x="132" y="336" type="line"/>
      <point x="132" y="736" type="line"/>
      <point x="183" y="736" type="line"/>
    </contour>
    <contour>
      <point x="183" y="-197" type="line"/>
      <point x="132" y="-197" type="line"/>
      <point x="132" y="202" type="line"/>
      <point x="183" y="202" type="line"/>
    </contour>
  </outline>
</glyph>
<glyph name="section" format="1">
  <advance width="520"/>
  <unicode hex="00A7"/>
  <outline>
    <contour>
      <point x="441" y="244" type="qcurve" smooth="yes"/>
      <point x="441" y="140"/>
      <point x="329" y="71" type="qcurve"/>
      <point x="391" y="3"/>
      <point x="391" y="-57" type="qcurve" smooth="yes"/>
      <point x="391" y="-121"/>
      <point x="348" y="-161" type="qcurve" smooth="yes"/>
      <point x="305" y="-202"/>
      <point x="246" y="-202" type="qcurve" smooth="yes"/>
      <point x="199" y="-202"/>
      <point x="162" y="-173" type="qcurve" smooth="yes"/>
      <point x="120" y="-140"/>
      <point x="120" y="-88" type="qcurve" smooth="yes"/>
      <point x="120" y="-67"/>
      <point x="144" y="-43"/>
      <point x="159" y="-43" type="qcurve" smooth="yes"/>
      <point x="176" y="-43"/>
      <point x="198" y="-69"/>
      <point x="198" y="-87" type="qcurve" smooth="yes"/>
      <point x="198" y="-92"/>
      <point x="193" y="-115" type="qcurve" smooth="yes"/>
      <point x="189" y="-134"/>
      <point x="189" y="-143" type="qcurve" smooth="yes"/>
      <point x="189" y="-161"/>
      <point x="227" y="-182"/>
      <point x="250" y="-182" type="qcurve" smooth="yes"/>
      <point x="282" y="-182"/>
      <point x="311" y="-155" type="qcurve" smooth="yes"/>
      <point x="339" y="-128"/>
      <point x="339" y="-99" type="qcurve" smooth="yes"/>
      <point x="339" y="-32"/>
      <point x="235" y="43" type="qcurve" smooth="yes"/>
      <point x="155" y="102"/>
      <point x="121" y="146" type="qcurve" smooth="yes"/>
      <point x="79" y="200"/>
      <point x="79" y="256" type="qcurve" smooth="yes"/>
      <point x="79" y="361"/>
      <point x="191" y="428" type="qcurve"/>
      <point x="128" y="503"/>
      <point x="128" y="560" type="qcurve" smooth="yes"/>
      <point x="128" y="627"/>
      <point x="180" y="669" type="qcurve" smooth="yes"/>
      <point x="223" y="703"/>
      <point x="272" y="703" type="qcurve" smooth="yes"/>
      <point x="325" y="703"/>
      <point x="362" y="672" type="qcurve" smooth="yes"/>
      <point x="401" y="640"/>
      <point x="401" y="591" type="qcurve" smooth="yes"/>
      <point x="401" y="545"/>
      <point x="361" y="545" type="qcurve" smooth="yes"/>
      <point x="344" y="545"/>
      <point x="321" y="570"/>
      <point x="321" y="584" type="qcurve" smooth="yes"/>
      <point x="321" y="586"/>
      <point x="323" y="598"/>
      <point x="326" y="613"/>
      <point x="328" y="628"/>
      <point x="328" y="633" type="qcurve" smooth="yes"/>
      <point x="328" y="681"/>
      <point x="272" y="681" type="qcurve" smooth="yes"/>
      <point x="232" y="681"/>
      <point x="184" y="629"/>
      <point x="184" y="593" type="qcurve" smooth="yes"/>
      <point x="184" y="553"/>
      <point x="211" y="520" type="qcurve" smooth="yes"/>
      <point x="227" y="500"/>
      <point x="275" y="464" type="qcurve" smooth="yes"/>
      <point x="353" y="405"/>
      <point x="383" y="372" type="qcurve" smooth="yes"/>
      <point x="441" y="310"/>
    </contour>
    <contour>
      <point x="389" y="198" type="qcurve" smooth="yes"/>
      <point x="389" y="214"/>
      <point x="379" y="247"/>
      <point x="355" y="284"/>
      <point x="313" y="327"/>
      <point x="281" y="353" type="qcurve" smooth="yes"/>
      <point x="263" y="368"/>
      <point x="226" y="397"/>
      <point x="208" y="412" type="qcurve"/>
      <point x="130" y="365"/>
      <point x="130" y="299" type="qcurve" smooth="yes"/>
      <point x="130" y="268"/>
      <point x="150" y="234" type="qcurve" smooth="yes"/>
      <point x="172" y="196"/>
      <point x="233" y="150" type="qcurve" smooth="yes"/>
      <point x="268" y="124"/>
      <point x="307" y="91"/>
      <point x="312" y="85" type="qcurve"/>
      <point x="389" y="135"/>
    </contour>
  </outline>
</glyph>
<glyph name="dieresis" format="1">
  <advance width="311"/>
  <unicode hex="00A8"/>
  <outline>
    <contour>
      <point x="311" y="623" type="qcurve" smooth="yes"/>
      <point x="311" y="602"/>
      <point x="280" y="571"/>
      <point x="259" y="571" type="qcurve" smooth="yes"/>
      <point x="238" y="571"/>
      <point x="207" y="603"/>
      <point x="207" y="623" type="qcurve" smooth="yes"/>
      <point x="207" y="643"/>
      <point x="240" y="675"/>
      <point x="259" y="675" type="qcurve" smooth="yes"/>
      <point x="280" y="675"/>
      <point x="311" y="644"/>
    </contour>
    <contour>
      <point x="103" y="623" type="qcurve" smooth="yes"/>
      <point x="103" y="602"/>
      <point x="72" y="571"/>
      <point x="51" y="571" type="qcurve" smooth="yes"/>
      <point x="31" y="571"/>
      <point x="0" y="603"/>
      <point x="0" y="623" type="qcurve" smooth="yes"/>
      <point x="0" y="643"/>
      <point x="32" y="675"/>
      <point x="51" y="675" type="qcurve" smooth="yes"/>
      <point x="72" y="675"/>
      <point x="103" y="644"/>
    </contour>
  </outline>
</glyph>
<glyph name="copyright" format="1">
  <advance width="790"/>
  <unicode hex="00A9"/>
  <outline>
    <contour>
      <point x="756" y="344" type="qcurve" smooth="yes"/>
      <point x="756" y="193"/>
      <point x="650" y="88" type="qcurve" smooth="yes"/>
      <point x="546" y="-15"/>
      <point x="395" y="-15" type="qcurve" smooth="yes"/>
      <point x="243" y="-15"/>
      <point x="140" y="87" type="qcurve" smooth="yes"/>
      <point x="35" y="190"/>
      <point x="35" y="344" type="qcurve" smooth="yes"/>
      <point x="35" y="504"/>
      <point x="148" y="608" type="qcurve" smooth="yes"/>
      <point x="253" y="704"/>
      <point x="395" y="704" type="qcurve" smooth="yes"/>
      <point x="547" y="704"/>
      <point x="651" y="600" type="qcurve" smooth="yes"/>
      <point x="756" y="496"/>
    </contour>
    <contour>
      <point x="724" y="344" type="qcurve" smooth="yes"/>
      <point x="724" y="481"/>
      <point x="627" y="577" type="qcurve" smooth="yes"/>
      <point x="529" y="673"/>
      <point x="395" y="673" type="qcurve" smooth="yes"/>
      <point x="266" y="673"/>
      <point x="171" y="585" type="qcurve" smooth="yes"/>
      <point x="67" y="489"/>
      <point x="67" y="344" type="qcurve" smooth="yes"/>
      <point x="67" y="204"/>
      <point x="165" y="109" type="qcurve" smooth="yes"/>
      <point x="259" y="16"/>
      <point x="395" y="16" type="qcurve" smooth="yes"/>
      <point x="528" y="16"/>
      <point x="625" y="108" type="qcurve" smooth="yes"/>
      <point x="724" y="204"/>
    </contour>
    <contour>
      <point x="592" y="218" type="line"/>
      <point x="520" y="115"/>
      <point x="397" y="115" type="qcurve" smooth="yes"/>
      <point x="299" y="115"/>
      <point x="231" y="179" type="qcurve" smooth="yes"/>
      <point x="162" y="243"/>
      <point x="162" y="341" type="qcurve" smooth="yes"/>
      <point x="162" y="449"/>
      <point x="239" y="515" type="qcurve" smooth="yes"/>
      <point x="310" y="576"/>
      <point x="415" y="576" type="qcurve" smooth="yes"/>
      <point x="434" y="576"/>
      <point x="471" y="569"/>
      <point x="488" y="564" type="qcurve" smooth="yes"/>
      <point x="506" y="558"/>
      <point x="526" y="553"/>
      <point x="528" y="553" type="qcurve" smooth="yes"/>
      <point x="542" y="553"/>
      <point x="553" y="576" type="qcurve"/>
      <point x="573" y="576" type="line"/>
      <point x="583" y="434" type="line"/>
      <point x="564" y="434" type="line"/>
      <point x="523" y="553"/>
      <point x="410" y="553" type="qcurve" smooth="yes"/>
      <point x="332" y="553"/>
      <point x="246" y="447"/>
      <point x="246" y="356" type="qcurve" smooth="yes"/>
      <point x="246" y="254"/>
      <point x="293" y="199" type="qcurve" smooth="yes"/>
      <point x="336" y="147"/>
      <point x="415" y="147" type="qcurve" smooth="yes"/>
      <point x="515" y="147"/>
      <point x="573" y="229" type="qcurve"/>
    </contour>
  </outline>
</glyph>
<glyph name="ordfeminine" format="1">
  <advance width="331"/>
  <unicode hex="00AA"/>
  <outline>
    <contour>
      <point x="330" y="449" type="line"/>
      <point x="289" y="404"/>
      <point x="251" y="404" type="qcurve" smooth="yes"/>
      <point x="212" y="404"/>
      <point x="212" y="449" type="qcurve"/>
      <point x="191" y="435"/>
      <point x="166" y="420"/>
      <point x="162" y="418" type="qcurve" smooth="yes"/>
      <point x="132" y="404"/>
      <point x="106" y="404" type="qcurve" smooth="yes"/>
      <point x="70" y="404"/>
      <point x="26" y="443"/>
      <point x="26" y="475" type="qcurve" smooth="yes"/>
      <point x="26" y="509"/>
      <point x="59" y="533" type="qcurve" smooth="yes"/>
      <point x="79" y="547"/>
      <point x="155" y="578"/>
      <point x="212" y="594" type="qcurve"/>
      <point x="212" y="605" type="line" smooth="yes"/>
      <point x="212" y="678"/>
      <point x="149" y="678" type="qcurve" smooth="yes"/>
      <point x="103" y="678"/>
      <point x="99" y="644" type="qcurve"/>
      <point x="100" y="626" type="line" smooth="yes"/>
      <point x="102" y="597"/>
      <point x="70" y="597" type="qcurve" smooth="yes"/>
      <point x="39" y="597"/>
      <point x="39" y="626" type="qcurve" smooth="yes"/>
      <point x="39" y="642"/>
      <point x="58" y="668"/>
      <point x="91" y="686"/>
      <point x="136" y="696"/>
      <point x="161" y="696" type="qcurve" smooth="yes"/>
      <point x="229" y="696"/>
      <point x="253" y="670" type="qcurve" smooth="yes"/>
      <point x="273" y="650"/>
      <point x="273" y="601" type="qcurve" smooth="yes"/>
      <point x="273" y="506" type="line" smooth="yes"/>
      <point x="273" y="465"/>
      <point x="275" y="457" type="qcurve" smooth="yes"/>
      <point x="276" y="442"/>
      <point x="291" y="442" type="qcurve" smooth="yes"/>
      <point x="302" y="442"/>
      <point x="330" y="467" type="qcurve"/>
    </contour>
    <contour>
      <point x="324" y="332" type="line"/>
      <point x="30" y="332" type="line"/>
      <point x="30" y="354" type="line"/>
      <point x="324" y="354" type="line"/>
    </contour>
    <contour>
      <point x="212" y="469" type="qcurve"/>
      <point x="212" y="576" type="line"/>
      <point x="173" y="563"/>
      <point x="121" y="540"/>
      <point x="108" y="529" type="qcurve" smooth="yes"/>
      <point x="88" y="512"/>
      <point x="88" y="489" type="qcurve" smooth="yes"/>
      <point x="88" y="468"/>
      <point x="118" y="439"/>
      <point x="139" y="438" type="qcurve" smooth="yes"/>
      <point x="163" y="437"/>
    </contour>
  </outline>
</glyph>
<glyph name="guillemotleft" format="1">
  <advance width="520"/>
  <unicode hex="00AB"/>
  <outline>
    <contour>
      <point x="487" y="-3" type="line"/>
      <point x="458" y="-3" type="line"/>
      <point x="258" y="236" type="line"/>
      <point x="458" y="474" type="line"/>
      <point x="487" y="474" type="line"/>
      <point x="363" y="236" type="line"/>
    </contour>
    <contour>
      <point x="257" y="-3" type="line"/>
      <point x="229" y="-3" type="line"/>
      <point x="32" y="236" type="line"/>
      <point x="229" y="474" type="line"/>
      <point x="257" y="474" type="line"/>
      <point x="133" y="236" type="line"/>
    </contour>
  </outline>
</glyph>
<glyph name="uni00AD" format="1">
  <advance width="346"/>
  <unicode hex="00AD"/>
  <outline>
    <contour>
      <point x="304" y="194" type="line"/>
      <point x="42" y="194" type="line"/>
      <point x="42" y="271" type="line"/>
      <point x="304" y="271" type="line"/>
    </contour>
  </outline>
</glyph>
<glyph name="registered" format="1">
  <advance width="790"/>
  <unicode hex="00AE"/>
  <outline>
    <contour>
      <point x="756" y="344" type="qcurve" smooth="yes"/>
      <point x="756" y="193"/>
      <point x="650" y="88" type="qcurve" smooth="yes"/>
      <point x="546" y="-15"/>
      <point x="395" y="-15" type="qcurve" smooth="yes"/>
      <point x="243" y="-15"/>
      <point x="140" y="87" type="qcurve" smooth="yes"/>
      <point x="35" y="190"/>
      <point x="35" y="344" type="qcurve" smooth="yes"/>
      <point x="35" y="504"/>
      <point x="148" y="608" type="qcurve" smooth="yes"/>
      <point x="253" y="704"/>
      <point x="395" y="704" type="qcurve" smooth="yes"/>
      <point x="547" y="704"/>
      <point x="651" y="600" type="qcurve" smooth="yes"/>
      <point x="756" y="496"/>
    </contour>
    <contour>
      <point x="724" y="344" type="qcurve" smooth="yes"/>
      <point x="724" y="481"/>
      <point x="627" y="577" type="qcurve" smooth="yes"/>
      <point x="529" y="673"/>
      <point x="395" y="673" type="qcurve" smooth="yes"/>
      <point x="266" y="673"/>
      <point x="171" y="585" type="qcurve" smooth="yes"/>
      <point x="67" y="489"/>
      <point x="67" y="344" type="qcurve" smooth="yes"/>
      <point x="67" y="204"/>
      <point x="165" y="109" type="qcurve" smooth="yes"/>
      <point x="259" y="16"/>
      <point x="395" y="16" type="qcurve" smooth="yes"/>
      <point x="528" y="16"/>
      <point x="625" y="108" type="qcurve" smooth="yes"/>
      <point x="724" y="204"/>
    </contour>
    <contour>
      <point x="598" y="127" type="line"/>
      <point x="504" y="127" type="line"/>
      <point x="355" y="332" type="line"/>
      <point x="316" y="332" type="line"/>
      <point x="316" y="175" type="line" smooth="yes"/>
      <point x="316" y="161"/>
      <point x="331" y="151" type="qcurve" smooth="yes"/>
      <point x="341" y="144"/>
      <point x="376" y="144" type="qcurve"/>
      <point x="376" y="127" type="line"/>
      <point x="190" y="127" type="line"/>
      <point x="190" y="144" type="line"/>
      <point x="224" y="144"/>
      <point x="234" y="157" type="qcurve" smooth="yes"/>
      <point x="242" y="168"/>
      <point x="242" y="213" type="qcurve" smooth="yes"/>
      <point x="242" y="478" type="line" smooth="yes"/>
      <point x="242" y="520"/>
      <point x="241" y="523" type="qcurve" smooth="yes"/>
      <point x="233" y="547"/>
      <point x="196" y="547" type="qcurve"/>
      <point x="196" y="566" type="line"/>
      <point x="392" y="566" type="line" smooth="yes"/>
      <point x="463" y="566"/>
      <point x="504" y="532" type="qcurve" smooth="yes"/>
      <point x="543" y="500"/>
      <point x="543" y="452" type="qcurve" smooth="yes"/>
      <point x="543" y="367"/>
      <point x="431" y="339" type="qcurve"/>
      <point x="536" y="188" type="line" smooth="yes"/>
      <point x="565" y="147"/>
      <point x="598" y="144" type="qcurve"/>
    </contour>
    <contour>
      <point x="462" y="446" type="qcurve" smooth="yes"/>
      <point x="462" y="487"/>
      <point x="435" y="514" type="qcurve" smooth="yes"/>
      <point x="406" y="543"/>
      <point x="359" y="543" type="qcurve" smooth="yes"/>
      <point x="337" y="543"/>
      <point x="316" y="536" type="qcurve"/>
      <point x="316" y="354" type="line"/>
      <point x="462" y="354"/>
    </contour>
  </outline>
</glyph>
<glyph name="macron" format="1">
  <advance width="326"/>
  <unicode hex="00AF"/>
  <outline>
    <contour>
      <point x="326" y="571" type="line"/>
      <point x="0" y="571" type="line"/>
      <point x="0" y="627" type="line"/>
      <point x="326" y="627" type="line"/>
    </contour>
  </outline>
</glyph>
<glyph name="degree" format="1">
  <advance width="320"/>
  <unicode hex="00B0"/>
  <outline>
    <contour>
      <point x="270" y="610" type="qcurve" smooth="yes"/>
      <point x="270" y="587"/>
      <point x="253" y="547"/>
      <point x="223" y="517"/>
      <point x="183" y="500"/>
      <point x="160" y="500" type="qcurve" smooth="yes"/>
      <point x="137" y="500"/>
      <point x="97" y="517"/>
      <point x="67" y="547"/>
      <point x="50" y="587"/>
      <point x="50" y="610" type="qcurve" smooth="yes"/>
      <point x="50" y="633"/>
      <point x="67" y="673"/>
      <point x="97" y="703"/>
      <point x="137" y="720"/>
      <point x="160" y="720" type="qcurve" smooth="yes"/>
      <point x="183" y="720"/>
      <point x="223" y="703"/>
      <point x="253" y="673"/>
      <point x="270" y="633"/>
    </contour>
    <contour>
      <point x="230" y="610" type="qcurve" smooth="yes"/>
      <point x="230" y="639"/>
      <point x="189" y="680"/>
      <point x="160" y="680" type="qcurve" smooth="yes"/>
      <point x="131" y="680"/>
      <point x="90" y="639"/>
      <point x="90" y="610" type="qcurve" smooth="yes"/>
      <point x="90" y="581"/>
      <point x="131" y="540"/>
      <point x="160" y="540" type="qcurve" smooth="yes"/>
      <point x="189" y="540"/>
      <point x="230" y="581"/>
    </contour>
  </outline>
</glyph>
<glyph name="twosuperior" format="1">
  <advance width="366"/>
  <unicode hex="00B2"/>
  <outline>
    <contour>
      <point x="339" y="488" type="line"/>
      <point x="304" y="409" type="line"/>
      <point x="12" y="409" type="line"/>
      <point x="12" y="420" type="line"/>
      <point x="47" y="447"/>
      <point x="94" y="485"/>
      <point x="107" y="496" type="qcurve" smooth="yes"/>
      <point x="162" y="542"/>
      <point x="194" y="581" type="qcurve" smooth="yes"/>
      <point x="246" y="643"/>
      <point x="246" y="694" type="qcurve" smooth="yes"/>
      <point x="246" y="741"/>
      <point x="209" y="766" type="qcurve" smooth="yes"/>
      <point x="180" y="784"/>
      <point x="148" y="784" type="qcurve" smooth="yes"/>
      <point x="67" y="784"/>
      <point x="40" y="714" type="qcurve"/>
      <point x="27" y="714" type="line"/>
      <point x="45" y="831"/>
      <point x="167" y="831" type="qcurve" smooth="yes"/>
      <point x="222" y="831"/>
      <point x="266" y="801" type="qcurve" smooth="yes"/>
      <point x="309" y="771"/>
      <point x="309" y="722" type="qcurve" smooth="yes"/>
      <point x="309" y="652"/>
      <point x="203" y="555" type="qcurve" smooth="yes"/>
      <point x="159" y="515"/>
      <point x="103" y="466"/>
      <point x="90" y="455" type="qcurve"/>
      <point x="220" y="455" type="line" smooth="yes"/>
      <point x="265" y="455"/>
      <point x="279" y="458" type="qcurve" smooth="yes"/>
      <point x="305" y="463"/>
      <point x="326" y="488" type="qcurve"/>
    </contour>
  </outline>
</glyph>
<glyph name="threesuperior" format="1">
  <advance width="366"/>
  <unicode hex="00B3"/>
  <outline>
    <contour>
      <point x="308" y="549" type="qcurve" smooth="yes"/>
      <point x="308" y="517"/>
      <point x="280" y="464"/>
      <point x="229" y="426"/>
      <point x="157" y="405"/>
      <point x="112" y="405" type="qcurve" smooth="yes"/>
      <point x="27" y="405"/>
      <point x="27" y="438" type="qcurve" smooth="yes"/>
      <point x="27" y="459"/>
      <point x="56" y="459" type="qcurve" smooth="yes"/>
      <point x="70" y="459"/>
      <point x="103" y="445" type="qcurve" smooth="yes"/>
      <point x="136" y="431"/>
      <point x="161" y="431" type="qcurve" smooth="yes"/>
      <point x="179" y="431"/>
      <point x="212" y="443"/>
      <point x="238" y="465"/>
      <point x="254" y="494"/>
      <point x="254" y="512" type="qcurve" smooth="yes"/>
      <point x="254" y="612"/>
      <point x="110" y="617" type="qcurve"/>
      <point x="110" y="626" type="line"/>
      <point x="145" y="631"/>
      <point x="173" y="646" type="qcurve" smooth="yes"/>
      <point x="223" y="675"/>
      <point x="223" y="722" type="qcurve" smooth="yes"/>
      <point x="223" y="757"/>
      <point x="194" y="777" type="qcurve" smooth="yes"/>
      <point x="171" y="792"/>
      <point x="141" y="792" type="qcurve" smooth="yes"/>
      <point x="83" y="792"/>
      <point x="46" y="741" type="qcurve"/>
      <point x="34" y="746" type="line"/>
      <point x="80" y="834"/>
      <point x="168" y="834" type="qcurve" smooth="yes"/>
      <point x="231" y="834"/>
      <point x="262" y="800" type="qcurve" smooth="yes"/>
      <point x="283" y="776"/>
      <point x="283" y="750" type="qcurve" smooth="yes"/>
      <point x="283" y="705"/>
      <point x="216" y="657" type="qcurve"/>
      <point x="308" y="628"/>
    </contour>
  </outline>
</glyph>
<glyph name="acute" format="1">
  <advance width="356"/>
  <unicode hex="00B4"/>
  <outline>
    <contour>
      <point x="293" y="675" type="qcurve" smooth="yes"/>
      <point x="293" y="651"/>
      <point x="251" y="624" type="qcurve" smooth="yes"/>
      <point x="101" y="529" type="line"/>
      <point x="59" y="529" type="line"/>
      <point x="203" y="674" type="line" smooth="yes"/>
      <point x="237" y="708"/>
      <point x="266" y="708" type="qcurve" smooth="yes"/>
      <point x="274" y="708"/>
      <point x="293" y="685"/>
    </contour>
  </outline>
</glyph>
<glyph name="mu" format="1">
  <advance width="589"/>
  <unicode hex="00B5"/>
  <outline>
    <contour>
      <point x="550" y="105" type="line"/>
      <point x="543" y="-14"/>
      <point x="449" y="-14" type="qcurve" smooth="yes"/>
      <point x="382" y="-14"/>
      <point x="369" y="82" type="qcurve"/>
      <point x="286" y="-14"/>
      <point x="210" y="-14" type="qcurve" smooth="yes"/>
      <point x="156" y="-14"/>
      <point x="131" y="29" type="qcurve"/>
      <point x="131" y="5" type="line" smooth="yes"/>
      <point x="131" y="-29"/>
      <point x="143" y="-89" type="qcurve" smooth="yes"/>
      <point x="155" y="-149"/>
      <point x="155" y="-167" type="qcurve" smooth="yes"/>
      <point x="155" y="-191"/>
      <point x="126" y="-224"/>
      <point x="107" y="-224" type="qcurve" smooth="yes"/>
      <point x="89" y="-224"/>
      <point x="63" y="-192"/>
      <point x="63" y="-169" type="qcurve" smooth="yes"/>
      <point x="63" y="-152"/>
      <point x="79" y="-84" type="qcurve" smooth="yes"/>
      <point x="95" y="-16"/>
      <point x="95" y="97" type="qcurve" smooth="yes"/>
      <point x="95" y="464" type="line"/>
      <point x="178" y="464" type="line"/>
      <point x="178" y="194" type="line" smooth="yes"/>
      <point x="178" y="122"/>
      <point x="187" y="94" type="qcurve" smooth="yes"/>
      <point x="202" y="48"/>
      <point x="250" y="48" type="qcurve" smooth="yes"/>
      <point x="309" y="48"/>
      <point x="369" y="116" type="qcurve"/>
      <point x="369" y="464" type="line"/>
      <point x="454" y="464" type="line"/>
      <point x="454" y="134" type="line" smooth="yes"/>
      <point x="454" y="73"/>
      <point x="464" y="54" type="qcurve" smooth="yes"/>
      <point x="470" y="42"/>
      <point x="488" y="42" type="qcurve" smooth="yes"/>
      <point x="516" y="42"/>
      <point x="530" y="105" type="qcurve"/>
    </contour>
  </outline>
</glyph>
<glyph name="paragraph" format="1">
  <advance width="471"/>
  <unicode hex="00B6"/>
  <outline>
    <contour>
      <point x="473" y="660" type="line"/>
      <point x="406" y="660" type="line"/>
      <point x="406" y="-224" type="line"/>
      <point x="368" y="-224" type="line"/>
      <point x="368" y="660" type="line"/>
      <point x="274" y="660" type="line"/>
      <point x="274" y="-224" type="line"/>
      <point x="237" y="-224" type="line"/>
      <point x="237" y="306" type="line"/>
      <point x="-6" y="312"/>
      <point x="-6" y="498" type="qcurve" smooth="yes"/>
      <point x="-6" y="599"/>
      <point x="67" y="648" type="qcurve" smooth="yes"/>
      <point x="125" y="688"/>
      <point x="222" y="688" type="qcurve" smooth="yes"/>
      <point x="473" y="688" type="line"/>
    </contour>
  </outline>
</glyph>
<glyph name="periodcentered" format="1">
  <advance width="188"/>
  <unicode hex="00B7"/>
  <outline>
    <contour>
      <point x="153" y="340" type="qcurve" smooth="yes"/>
      <point x="153" y="315"/>
      <point x="119" y="281"/>
      <point x="94" y="281" type="qcurve" smooth="yes"/>
      <point x="69" y="281"/>
      <point x="35" y="315"/>
      <point x="35" y="340" type="qcurve" smooth="yes"/>
      <point x="35" y="365"/>
      <point x="69" y="399"/>
      <point x="94" y="399" type="qcurve" smooth="yes"/>
      <point x="119" y="399"/>
      <point x="153" y="365"/>
    </contour>
  </outline>
</glyph>
<glyph name="cedilla" format="1">
  <advance width="244"/>
  <unicode hex="00B8"/>
  <outline>
    <contour>
      <point x="231" y="-136" type="qcurve" smooth="yes"/>
      <point x="231" y="-176"/>
      <point x="190" y="-199" type="qcurve" smooth="yes"/>
      <point x="149" y="-223"/>
      <point x="97" y="-223" type="qcurve" smooth="yes"/>
      <point x="58" y="-223"/>
      <point x="13" y="-207" type="qcurve"/>
      <point x="28" y="-174" type="line"/>
      <point x="60" y="-187"/>
      <point x="92" y="-187" type="qcurve" smooth="yes"/>
      <point x="153" y="-187"/>
      <point x="153" y="-143" type="qcurve" smooth="yes"/>
      <point x="153" y="-106"/>
      <point x="115" y="-103" type="qcurve" smooth="yes"/>
      <point x="104" y="-102"/>
      <point x="80" y="-104"/>
      <point x="68" y="-108" type="qcurve"/>
      <point x="60" y="-102" type="line"/>
      <point x="104" y="0" type="line"/>
      <point x="141" y="0" type="line"/>
      <point x="114" y="-67" type="line"/>
      <point x="127" y="-64"/>
      <point x="144" y="-64" type="qcurve" smooth="yes"/>
      <point x="181" y="-64"/>
      <point x="204" y="-81" type="qcurve" smooth="yes"/>
      <point x="231" y="-101"/>
    </contour>
  </outline>
</glyph>
<glyph name="onesuperior" format="1">
  <advance width="366"/>
  <unicode hex="00B9"/>
  <outline>
    <contour>
      <point x="279" y="409" type="line"/>
      <point x="92" y="409" type="line"/>
      <point x="92" y="420" type="line"/>
      <point x="134" y="420"/>
      <point x="145" y="429" type="qcurve" smooth="yes"/>
      <point x="156" y="440"/>
      <point x="156" y="482" type="qcurve" smooth="yes"/>
      <point x="156" y="705" type="line" smooth="yes"/>
      <point x="156" y="727"/>
      <point x="155" y="754"/>
      <point x="154" y="759" type="qcurve" smooth="yes"/>
      <point x="150" y="781"/>
      <point x="127" y="781" type="qcurve" smooth="yes"/>
      <point x="113" y="781"/>
      <point x="89" y="772" type="qcurve"/>
      <point x="84" y="782" type="line"/>
      <point x="204" y="831" type="line"/>
      <point x="217" y="831" type="line"/>
      <point x="217" y="482" type="line" smooth="yes"/>
      <point x="217" y="438"/>
      <point x="227" y="429" type="qcurve" smooth="yes"/>
      <point x="237" y="420"/>
      <point x="279" y="420" type="qcurve"/>
    </contour>
  </outline>
</glyph>
<glyph name="ordmasculine" format="1">
  <advance width="381"/>
  <unicode hex="00BA"/>
  <outline>
    <contour>
      <point x="352" y="554" type="qcurve" smooth="yes"/>
      <point x="352" y="494"/>
      <point x="311" y="450" type="qcurve" smooth="yes"/>
      <point x="264" y="400"/>
      <point x="188" y="400" type="qcurve" smooth="yes"/>
      <point x="118" y="400"/>
      <point x="74" y="443" type="qcurve" smooth="yes"/>
      <point x="29" y="486"/>
      <point x="29" y="546" type="qcurve" smooth="yes"/>
      <point x="29" y="606"/>
      <point x="72" y="649" type="qcurve" smooth="yes"/>
      <point x="119" y="696"/>
      <point x="191" y="696" type="qcurve" smooth="yes"/>
      <point x="261" y="696"/>
      <point x="307" y="655" type="qcurve" smooth="yes"/>
      <point x="352" y="614"/>
    </contour>
    <contour>
      <point x="347" y="332" type="line"/>
      <point x="35" y="332" type="line"/>
      <point x="35" y="354" type="line"/>
      <point x="347" y="354" type="line"/>
    </contour>
    <contour>
      <point x="284" y="530" type="qcurve" smooth="yes"/>
      <point x="284" y="594"/>
      <point x="228" y="677"/>
      <point x="180" y="677" type="qcurve" smooth="yes"/>
      <point x="147" y="677"/>
      <point x="124" y="654" type="qcurve" smooth="yes"/>
      <point x="97" y="625"/>
      <point x="97" y="571" type="qcurve" smooth="yes"/>
      <point x="97" y="510"/>
      <point x="126" y="467" type="qcurve" smooth="yes"/>
      <point x="156" y="422"/>
      <point x="203" y="422" type="qcurve" smooth="yes"/>
      <point x="284" y="422"/>
    </contour>
  </outline>
</glyph>
<glyph name="guillemotright" format="1">
  <advance width="520"/>
  <unicode hex="00BB"/>
  <outline>
    <contour>
      <point x="488" y="235" type="line"/>
      <point x="291" y="-3" type="line"/>
      <point x="263" y="-3" type="line"/>
      <point x="387" y="235" type="line"/>
      <point x="263" y="474" type="line"/>
      <point x="291" y="474" type="line"/>
    </contour>
    <contour>
      <point x="262" y="235" type="line"/>
      <point x="62" y="-3" type="line"/>
      <point x="33" y="-3" type="line"/>
      <point x="157" y="235" type="line"/>
      <point x="33" y="474" type="line"/>
      <point x="62" y="474" type="line"/>
    </contour>
  </outline>
</glyph>
<glyph name="onequarter" format="1">
  <advance width="800"/>
  <unicode hex="00BC"/>
  <outline>
    <contour>
      <point x="701" y="107" type="line"/>
      <point x="646" y="107" type="line"/>
      <point x="646" y="-3" type="line"/>
      <point x="595" y="-3" type="line"/>
      <point x="595" y="107" type="line"/>
      <point x="418" y="107" type="line"/>
      <point x="418" y="145" type="line"/>
      <point x="612" y="422" type="line"/>
      <point x="646" y="422" type="line"/>
      <point x="646" y="150" type="line"/>
      <point x="701" y="150" type="line"/>
    </contour>
    <contour>
      <point x="663" y="701" type="line"/>
      <point x="193" y="-7" type="line"/>
      <point x="143" y="-7" type="line"/>
      <point x="616" y="701" type="line"/>
    </contour>
    <contour>
      <point x="264" y="266" type="line"/>
      <point x="106" y="266" type="line"/>
      <point x="106" y="278" type="line"/>
      <point x="145" y="278"/>
      <point x="152" y="288" type="qcurve" smooth="yes"/>
      <point x="160" y="299"/>
      <point x="160" y="340" type="qcurve" smooth="yes"/>
      <point x="160" y="564" type="line" smooth="yes"/>
      <point x="160" y="587"/>
      <point x="159" y="614"/>
      <point x="158" y="619" type="qcurve" smooth="yes"/>
      <point x="153" y="642"/>
      <point x="136" y="642" type="qcurve" smooth="yes"/>
      <point x="123" y="642"/>
      <point x="103" y="632" type="qcurve"/>
      <point x="99" y="643" type="line"/>
      <point x="200" y="692" type="line"/>
      <point x="211" y="692" type="line"/>
      <point x="211" y="340" type="line" smooth="yes"/>
      <point x="211" y="297"/>
      <point x="218" y="287" type="qcurve" smooth="yes"/>
      <point x="225" y="278"/>
      <point x="264" y="278" type="qcurve"/>
    </contour>
    <contour>
      <point x="595" y="150" type="line"/>
      <point x="595" y="357" type="line"/>
      <point x="448" y="150" type="line"/>
    </contour>
  </outline>
</glyph>
<glyph name="onehalf" format="1">
  <advance width="800"/>
  <unicode hex="00BD"/>
  <outline>
    <contour>
      <point x="716" y="76" type="line"/>
      <point x="686" y="-3" type="line"/>
      <point x="440" y="-3" type="line"/>
      <point x="440" y="8" type="line"/>
      <point x="485" y="49"/>
      <point x="546" y="110"/>
      <point x="564" y="131" type="qcurve" smooth="yes"/>
      <point x="637" y="219"/>
      <point x="637" y="284" type="qcurve" smooth="yes"/>
      <point x="637" y="331"/>
      <point x="606" y="356" type="qcurve" smooth="yes"/>
      <point x="583" y="375"/>
      <point x="555" y="375" type="qcurve" smooth="yes"/>
      <point x="487" y="375"/>
      <point x="463" y="305" type="qcurve"/>
      <point x="453" y="305" type="line"/>
      <point x="457" y="346"/>
      <point x="479" y="377" type="qcurve" smooth="yes"/>
      <point x="510" y="422"/>
      <point x="571" y="422" type="qcurve" smooth="yes"/>
      <point x="618" y="422"/>
      <point x="653" y="393" type="qcurve" smooth="yes"/>
      <point x="690" y="362"/>
      <point x="690" y="312" type="qcurve" smooth="yes"/>
      <point x="690" y="240"/>
      <point x="601" y="143" type="qcurve" smooth="yes"/>
      <point x="581" y="121"/>
      <point x="533" y="71"/>
      <point x="506" y="43" type="qcurve"/>
      <point x="615" y="43" type="line" smooth="yes"/>
      <point x="655" y="43"/>
      <point x="666" y="46" type="qcurve" smooth="yes"/>
      <point x="688" y="52"/>
      <point x="704" y="76" type="qcurve"/>
    </contour>
    <contour>
      <point x="621" y="701" type="line"/>
      <point x="184" y="-7" type="line"/>
      <point x="134" y="-7" type="line"/>
      <point x="572" y="701" type="line"/>
    </contour>
    <contour>
      <point x="249" y="266" type="line"/>
      <point x="91" y="266" type="line"/>
      <point x="91" y="278" type="line"/>
      <point x="130" y="278"/>
      <point x="137" y="288" type="qcurve" smooth="yes"/>
      <point x="145" y="299"/>
      <point x="145" y="340" type="qcurve" smooth="yes"/>
      <point x="145" y="564" type="line" smooth="yes"/>
      <point x="145" y="587"/>
      <point x="144" y="614"/>
      <point x="143" y="619" type="qcurve" smooth="yes"/>
      <point x="138" y="642"/>
      <point x="121" y="642" type="qcurve" smooth="yes"/>
      <point x="108" y="642"/>
      <point x="88" y="632" type="qcurve"/>
      <point x="84" y="643" type="line"/>
      <point x="185" y="692" type="line"/>
      <point x="196" y="692" type="line"/>
      <point x="196" y="340" type="line" smooth="yes"/>
      <point x="196" y="297"/>
      <point x="203" y="287" type="qcurve" smooth="yes"/>
      <point x="210" y="278"/>
      <point x="249" y="278" type="qcurve"/>
    </contour>
  </outline>
</glyph>
<glyph name="threequarters" format="1">
  <advance width="800"/>
  <unicode hex="00BE"/>
  <outline>
    <contour>
      <point x="714" y="107" type="line"/>
      <point x="659" y="107" type="line"/>
      <point x="659" y="-3" type="line"/>
      <point x="608" y="-3" type="line"/>
      <point x="608" y="107" type="line"/>
      <point x="431" y="107" type="line"/>
      <point x="431" y="145" type="line"/>
      <point x="625" y="422" type="line"/>
      <point x="659" y="422" type="line"/>
      <point x="659" y="150" type="line"/>
      <point x="714" y="150" type="line"/>
    </contour>
    <contour>
      <point x="686" y="701" type="line"/>
      <point x="216" y="-7" type="line"/>
      <point x="166" y="-7" type="line"/>
      <point x="639" y="701" type="line"/>
    </contour>
    <contour>
      <point x="323" y="404" type="qcurve" smooth="yes"/>
      <point x="323" y="338"/>
      <point x="234" y="258"/>
      <point x="158" y="258" type="qcurve" smooth="yes"/>
      <point x="86" y="258"/>
      <point x="86" y="292" type="qcurve" smooth="yes"/>
      <point x="86" y="313"/>
      <point x="111" y="313" type="qcurve" smooth="yes"/>
      <point x="124" y="313"/>
      <point x="150" y="299" type="qcurve" smooth="yes"/>
      <point x="178" y="285"/>
      <point x="200" y="285" type="qcurve" smooth="yes"/>
      <point x="215" y="285"/>
      <point x="243" y="297"/>
      <point x="265" y="319"/>
      <point x="278" y="348"/>
      <point x="278" y="366" type="qcurve" smooth="yes"/>
      <point x="278" y="469"/>
      <point x="156" y="472" type="qcurve"/>
      <point x="156" y="482" type="line"/>
      <point x="184" y="485"/>
      <point x="210" y="502" type="qcurve" smooth="yes"/>
      <point x="251" y="531"/>
      <point x="251" y="579" type="qcurve" smooth="yes"/>
      <point x="251" y="614"/>
      <point x="227" y="634" type="qcurve" smooth="yes"/>
      <point x="207" y="649"/>
      <point x="183" y="649" type="qcurve" smooth="yes"/>
      <point x="134" y="649"/>
      <point x="103" y="598" type="qcurve"/>
      <point x="92" y="603" type="line"/>
      <point x="111" y="643"/>
      <point x="125" y="657" type="qcurve" smooth="yes"/>
      <point x="157" y="692"/>
      <point x="205" y="692" type="qcurve" smooth="yes"/>
      <point x="259" y="692"/>
      <point x="284" y="658" type="qcurve" smooth="yes"/>
      <point x="302" y="634"/>
      <point x="302" y="607" type="qcurve" smooth="yes"/>
      <point x="302" y="563"/>
      <point x="246" y="513" type="qcurve"/>
      <point x="323" y="483"/>
    </contour>
    <contour>
      <point x="608" y="150" type="line"/>
      <point x="608" y="357" type="line"/>
      <point x="461" y="150" type="line"/>
    </contour>
  </outline>
</glyph>
<glyph name="questiondown" format="1">
  <advance width="462"/>
  <unicode hex="00BF"/>
  <outline>
    <contour>
      <point x="293" y="437" type="qcurve" smooth="yes"/>
      <point x="293" y="413"/>
      <point x="258" y="380"/>
      <point x="235" y="380" type="qcurve" smooth="yes"/>
      <point x="213" y="380"/>
      <point x="179" y="412"/>
      <point x="179" y="437" type="qcurve" smooth="yes"/>
      <point x="179" y="463"/>
      <point x="214" y="494"/>
      <point x="235" y="494" type="qcurve" smooth="yes"/>
      <point x="258" y="494"/>
      <point x="293" y="463"/>
    </contour>
    <contour>
      <point x="412" y="-77" type="qcurve" smooth="yes"/>
      <point x="412" y="-137"/>
      <point x="365" y="-179" type="qcurve" smooth="yes"/>
      <point x="313" y="-223"/>
      <point x="229" y="-223" type="qcurve" smooth="yes"/>
      <point x="187" y="-223"/>
      <point x="117" y="-201"/>
      <point x="67" y="-159"/>
      <point x="39" y="-100"/>
      <point x="39" y="-63" type="qcurve" smooth="yes"/>
      <point x="39" y="16"/>
      <point x="118" y="104" type="qcurve" smooth="yes"/>
      <point x="150" y="139"/>
      <point x="189" y="190"/>
      <point x="198" y="206" type="qcurve" smooth="yes"/>
      <point x="211" y="229"/>
      <point x="226" y="286"/>
      <point x="228" y="318" type="qcurve"/>
      <point x="250" y="318" type="line"/>
      <point x="244" y="200"/>
      <point x="181" y="95" type="qcurve" smooth="yes"/>
      <point x="133" y="15"/>
      <point x="133" y="-55" type="qcurve" smooth="yes"/>
      <point x="133" y="-126"/>
      <point x="172" y="-163" type="qcurve" smooth="yes"/>
      <point x="206" y="-195"/>
      <point x="251" y="-195" type="qcurve" smooth="yes"/>
      <point x="297" y="-195"/>
      <point x="323" y="-173" type="qcurve" smooth="yes"/>
      <point x="347" y="-154"/>
      <point x="347" y="-128" type="qcurve" smooth="yes"/>
      <point x="347" y="-113"/>
      <point x="331" y="-82" type="qcurve" smooth="yes"/>
      <point x="315" y="-53"/>
      <point x="315" y="-41" type="qcurve" smooth="yes"/>
      <point x="315" y="-21"/>
      <point x="341" y="2"/>
      <point x="356" y="2" type="qcurve" smooth="yes"/>
      <point x="374" y="2"/>
      <point x="389" y="-12" type="qcurve" smooth="yes"/>
      <point x="412" y="-35"/>
    </contour>
  </outline>
</glyph>
<glyph name="Aacute" format="1">
  <advance width="634"/>
  <unicode hex="00C1"/>
  <outline>
    <contour>
      <point x="551" y="898" type="qcurve" smooth="yes"/>
      <point x="551" y="874"/>
      <point x="509" y="847" type="qcurve" smooth="yes"/>
      <point x="359" y="752" type="line"/>
      <point x="317" y="752" type="line"/>
      <point x="461" y="897" type="line" smooth="yes"/>
      <point x="495" y="931"/>
      <point x="524" y="931" type="qcurve" smooth="yes"/>
      <point x="532" y="931"/>
      <point x="551" y="908"/>
    </contour>
    <contour>
      <point x="739" y="0" type="line"/>
      <point x="468" y="0" type="line"/>
      <point x="468" y="19" type="line"/>
      <point x="537" y="20"/>
      <point x="537" y="63" type="qcurve" smooth="yes"/>
      <point x="537" y="85"/>
      <point x="517" y="132" type="qcurve" smooth="yes"/>
      <point x="476" y="231" type="line"/>
      <point x="209" y="231" type="line"/>
      <point x="162" y="121" type="line" smooth="yes"/>
      <point x="145" y="79"/>
      <point x="145" y="64" type="qcurve" smooth="yes"/>
      <point x="145" y="27"/>
      <point x="225" y="19" type="qcurve"/>
      <point x="225" y="0" type="line"/>
      <point x="8" y="0" type="line"/>
      <point x="8" y="19" type="line"/>
      <point x="49" y="22"/>
      <point x="75" y="51" type="qcurve" smooth="yes"/>
      <point x="97" y="76"/>
      <point x="122" y="137" type="qcurve" smooth="yes"/>
      <point x="364" y="704" type="line"/>
      <point x="382" y="704" type="line"/>
      <point x="621" y="132" type="line" smooth="yes"/>
      <point x="651" y="61"/>
      <point x="674" y="41" type="qcurve" smooth="yes"/>
      <point x="693" y="22"/>
      <point x="739" y="19" type="qcurve"/>
    </contour>
    <contour>
      <point x="462" y="268" type="line"/>
      <point x="345" y="547" type="line"/>
      <point x="225" y="268" type="line"/>
    </contour>
  </outline>
</glyph>
<glyph name="Acircumflex" format="1">
  <advance width="634"/>
  <unicode hex="00C2"/>
  <outline>
    <contour>
      <point x="536" y="752" type="line"/>
      <point x="500" y="752" type="line"/>
      <point x="373" y="860" type="line"/>
      <point x="246" y="752" type="line"/>
      <point x="210" y="752" type="line"/>
      <point x="341" y="926" type="line"/>
      <point x="406" y="926" type="line"/>
    </contour>
    <contour>
      <point x="739" y="0" type="line"/>
      <point x="468" y="0" type="line"/>
      <point x="468" y="19" type="line"/>
      <point x="537" y="20"/>
      <point x="537" y="63" type="qcurve" smooth="yes"/>
      <point x="537" y="85"/>
      <point x="517" y="132" type="qcurve" smooth="yes"/>
      <point x="476" y="231" type="line"/>
      <point x="209" y="231" type="line"/>
      <point x="162" y="121" type="line" smooth="yes"/>
      <point x="145" y="79"/>
      <point x="145" y="64" type="qcurve" smooth="yes"/>
      <point x="145" y="27"/>
      <point x="225" y="19" type="qcurve"/>
      <point x="225" y="0" type="line"/>
      <point x="8" y="0" type="line"/>
      <point x="8" y="19" type="line"/>
      <point x="49" y="22"/>
      <point x="75" y="51" type="qcurve" smooth="yes"/>
      <point x="97" y="76"/>
      <point x="122" y="137" type="qcurve" smooth="yes"/>
      <point x="364" y="704" type="line"/>
      <point x="382" y="704" type="line"/>
      <point x="621" y="132" type="line" smooth="yes"/>
      <point x="651" y="61"/>
      <point x="674" y="41" type="qcurve" smooth="yes"/>
      <point x="693" y="22"/>
      <point x="739" y="19" type="qcurve"/>
    </contour>
    <contour>
      <point x="462" y="268" type="line"/>
      <point x="345" y="547" type="line"/>
      <point x="225" y="268" type="line"/>
    </contour>
  </outline>
</glyph>
